G75*
%MOIN*%
%OFA0B0*%
%FSLAX25Y25*%
%IPPOS*%
%LPD*%
%AMOC8*
5,1,8,0,0,1.08239X$1,22.5*
%
%ADD10R,0.10000X0.60000*%
%ADD11C,0.02400*%
%ADD12C,0.00400*%
%ADD13C,0.00500*%
%ADD14C,0.02000*%
%ADD15C,0.00800*%
%ADD16C,0.00010*%
%ADD17C,0.00600*%
%ADD18C,0.02000*%
%ADD19C,0.01000*%
%ADD20R,0.00079X0.01142*%
%ADD21R,0.00118X0.01850*%
%ADD22R,0.00079X0.00787*%
%ADD23R,0.00079X0.01929*%
%ADD24R,0.00079X0.00276*%
%ADD25R,0.00118X0.01575*%
%ADD26R,0.00118X0.00709*%
%ADD27R,0.00118X0.00472*%
%ADD28R,0.00118X0.00866*%
%ADD29R,0.00079X0.01654*%
%ADD30R,0.00079X0.00591*%
%ADD31R,0.00079X0.01457*%
%ADD32R,0.00079X0.00551*%
%ADD33R,0.00079X0.00709*%
%ADD34R,0.00079X0.00472*%
%ADD35R,0.00118X0.00591*%
%ADD36R,0.00118X0.00394*%
%ADD37R,0.00118X0.00512*%
%ADD38R,0.00079X0.00748*%
%ADD39R,0.00079X0.00394*%
%ADD40R,0.00079X0.00512*%
%ADD41R,0.00079X0.00197*%
%ADD42R,0.00079X0.01063*%
%ADD43R,0.00118X0.00787*%
%ADD44R,0.00118X0.00354*%
%ADD45R,0.00079X0.00354*%
%ADD46R,0.00079X0.00669*%
%ADD47R,0.00118X0.00669*%
%ADD48R,0.00118X0.00276*%
%ADD49R,0.00079X0.00984*%
%ADD50R,0.00118X0.00551*%
%ADD51R,0.00118X0.01181*%
%ADD52R,0.00118X0.01260*%
%ADD53R,0.00079X0.00118*%
%ADD54R,0.00079X0.01181*%
%ADD55R,0.00079X0.01339*%
%ADD56R,0.00079X0.00866*%
%ADD57R,0.00079X0.00079*%
%ADD58R,0.00118X0.01339*%
%ADD59R,0.00118X0.00079*%
%ADD60R,0.00079X0.01575*%
%ADD61R,0.00118X0.00984*%
%ADD62R,0.00118X0.01535*%
%ADD63R,0.00079X0.01260*%
%ADD64R,0.00118X0.01063*%
%ADD65R,0.00118X0.00315*%
%ADD66R,0.00118X0.01378*%
%ADD67R,0.00079X0.00157*%
%ADD68R,0.00079X0.00315*%
%ADD69R,0.00079X0.01378*%
%ADD70R,0.00118X0.00118*%
%ADD71R,0.00079X0.00906*%
%ADD72R,0.00118X0.00197*%
%ADD73R,0.00118X0.00945*%
%ADD74R,0.00118X0.02598*%
%ADD75R,0.00079X0.04173*%
%ADD76R,0.00118X0.04961*%
%ADD77R,0.00079X0.05748*%
%ADD78R,0.00079X0.01850*%
%ADD79R,0.00118X0.06575*%
%ADD80R,0.00118X0.01654*%
%ADD81R,0.00079X0.07205*%
%ADD82R,0.00118X0.07756*%
%ADD83R,0.00079X0.08386*%
%ADD84R,0.00079X0.08780*%
%ADD85R,0.00118X0.09409*%
%ADD86R,0.00079X0.01102*%
%ADD87R,0.00079X0.09803*%
%ADD88R,0.00118X0.10197*%
%ADD89R,0.00079X0.10787*%
%ADD90R,0.00118X0.11102*%
%ADD91R,0.00079X0.11496*%
%ADD92R,0.00118X0.11890*%
%ADD93R,0.00079X0.12323*%
%ADD94R,0.00118X0.12638*%
%ADD95R,0.00079X0.12835*%
%ADD96R,0.00118X0.13228*%
%ADD97R,0.00079X0.13386*%
%ADD98R,0.00118X0.13622*%
%ADD99R,0.00079X0.14016*%
%ADD100R,0.00079X0.14173*%
%ADD101R,0.00118X0.14488*%
%ADD102R,0.00079X0.14685*%
%ADD103R,0.00118X0.14882*%
%ADD104R,0.00079X0.06732*%
%ADD105R,0.00118X0.06102*%
%ADD106R,0.00118X0.06417*%
%ADD107R,0.00079X0.05945*%
%ADD108R,0.00118X0.05472*%
%ADD109R,0.00118X0.05433*%
%ADD110R,0.00079X0.05354*%
%ADD111R,0.00079X0.05433*%
%ADD112R,0.00118X0.03504*%
%ADD113R,0.00118X0.05276*%
%ADD114R,0.00079X0.03110*%
%ADD115R,0.00079X0.05157*%
%ADD116R,0.00118X0.02835*%
%ADD117R,0.00118X0.04843*%
%ADD118R,0.00079X0.02559*%
%ADD119R,0.00079X0.04961*%
%ADD120R,0.00118X0.02244*%
%ADD121R,0.00079X0.01969*%
%ADD122R,0.00118X0.05039*%
%ADD123R,0.00079X0.01772*%
%ADD124R,0.00079X0.05236*%
%ADD125R,0.00118X0.05354*%
%ADD126R,0.00079X0.02047*%
%ADD127R,0.00079X0.05472*%
%ADD128R,0.00118X0.02047*%
%ADD129R,0.00118X0.05630*%
%ADD130R,0.00079X0.02126*%
%ADD131R,0.00079X0.05827*%
%ADD132R,0.00118X0.02126*%
%ADD133R,0.00118X0.05827*%
%ADD134R,0.00079X0.02244*%
%ADD135R,0.00079X0.06024*%
%ADD136R,0.00118X0.02323*%
%ADD137R,0.00118X0.06142*%
%ADD138R,0.00079X0.02441*%
%ADD139R,0.00079X0.06220*%
%ADD140R,0.00118X0.02441*%
%ADD141R,0.00118X0.06299*%
%ADD142R,0.00079X0.06417*%
%ADD143R,0.00118X0.02520*%
%ADD144R,0.00079X0.02638*%
%ADD145R,0.00079X0.06614*%
%ADD146R,0.00118X0.02638*%
%ADD147R,0.00118X0.06732*%
%ADD148R,0.00079X0.02598*%
%ADD149R,0.00079X0.06811*%
%ADD150R,0.00118X0.02717*%
%ADD151R,0.00118X0.06890*%
%ADD152R,0.00079X0.02717*%
%ADD153R,0.00079X0.07008*%
%ADD154R,0.00079X0.02795*%
%ADD155R,0.00079X0.07126*%
%ADD156R,0.00118X0.02913*%
%ADD157R,0.00118X0.07205*%
%ADD158R,0.00079X0.02913*%
%ADD159R,0.00118X0.02992*%
%ADD160R,0.00118X0.07402*%
%ADD161R,0.00079X0.02992*%
%ADD162R,0.00079X0.07480*%
%ADD163R,0.00118X0.03031*%
%ADD164R,0.00118X0.07559*%
%ADD165R,0.00079X0.03031*%
%ADD166R,0.00079X0.07677*%
%ADD167R,0.00118X0.03110*%
%ADD168R,0.00118X0.07677*%
%ADD169R,0.00079X0.07874*%
%ADD170R,0.00118X0.03228*%
%ADD171R,0.00118X0.07874*%
%ADD172R,0.00079X0.03189*%
%ADD173R,0.00079X0.04094*%
%ADD174R,0.00079X0.08071*%
%ADD175R,0.00118X0.03189*%
%ADD176R,0.00118X0.13110*%
%ADD177R,0.00079X0.03307*%
%ADD178R,0.00079X0.13307*%
%ADD179R,0.00118X0.03307*%
%ADD180R,0.00118X0.13583*%
%ADD181R,0.00079X0.03386*%
%ADD182R,0.00079X0.13780*%
%ADD183R,0.00079X0.09331*%
%ADD184R,0.00079X0.04449*%
%ADD185R,0.00118X0.09213*%
%ADD186R,0.00118X0.04370*%
%ADD187R,0.00079X0.03425*%
%ADD188R,0.00079X0.09055*%
%ADD189R,0.00118X0.08937*%
%ADD190R,0.00118X0.04173*%
%ADD191R,0.00079X0.03504*%
%ADD192R,0.00079X0.04055*%
%ADD193R,0.00118X0.08661*%
%ADD194R,0.00118X0.03976*%
%ADD195R,0.00079X0.03583*%
%ADD196R,0.00079X0.08465*%
%ADD197R,0.00079X0.03898*%
%ADD198R,0.00118X0.03583*%
%ADD199R,0.00118X0.08346*%
%ADD200R,0.00118X0.03780*%
%ADD201R,0.00079X0.08189*%
%ADD202R,0.00079X0.03780*%
%ADD203R,0.00118X0.07992*%
%ADD204R,0.00118X0.03661*%
%ADD205R,0.00079X0.07756*%
%ADD206R,0.00079X0.03661*%
%ADD207R,0.00079X0.07598*%
%ADD208R,0.00118X0.07362*%
%ADD209R,0.00118X0.03425*%
%ADD210R,0.00118X0.03701*%
%ADD211R,0.00118X0.07480*%
%ADD212R,0.00079X0.03701*%
%ADD213R,0.00118X0.09016*%
%ADD214R,0.00079X0.10394*%
%ADD215R,0.00118X0.03858*%
%ADD216R,0.00118X0.11299*%
%ADD217R,0.00079X0.16811*%
%ADD218R,0.00118X0.16811*%
%ADD219R,0.00118X0.16732*%
%ADD220R,0.00118X0.16693*%
%ADD221R,0.00079X0.16693*%
%ADD222R,0.00079X0.02165*%
%ADD223R,0.00118X0.16614*%
%ADD224R,0.00079X0.16614*%
%ADD225R,0.00079X0.16535*%
%ADD226R,0.00079X0.01732*%
%ADD227R,0.00118X0.16457*%
%ADD228R,0.00079X0.16457*%
%ADD229R,0.00079X0.01535*%
%ADD230R,0.00118X0.16339*%
%ADD231R,0.00118X0.01457*%
%ADD232R,0.00079X0.16339*%
%ADD233R,0.00118X0.16417*%
%ADD234R,0.00118X0.16220*%
%ADD235R,0.00118X0.01142*%
%ADD236R,0.00079X0.16220*%
%ADD237R,0.00118X0.16142*%
%ADD238R,0.00079X0.16142*%
%ADD239R,0.00118X0.16024*%
%ADD240R,0.00118X0.02559*%
%ADD241R,0.00079X0.16024*%
%ADD242R,0.00118X0.15945*%
%ADD243R,0.00079X0.15945*%
%ADD244R,0.00118X0.15827*%
%ADD245R,0.00079X0.15748*%
%ADD246R,0.00118X0.15748*%
%ADD247R,0.00079X0.10000*%
%ADD248R,0.00079X0.00945*%
%ADD249R,0.00118X0.04764*%
%ADD250R,0.00118X0.10039*%
%ADD251R,0.00079X0.03976*%
%ADD252R,0.00079X0.11457*%
%ADD253R,0.00118X0.11457*%
%ADD254R,0.00118X0.11378*%
%ADD255R,0.00079X0.02520*%
%ADD256R,0.00079X0.11378*%
%ADD257R,0.00079X0.11299*%
%ADD258R,0.00079X0.11181*%
%ADD259R,0.00118X0.11063*%
%ADD260R,0.00079X0.10984*%
%ADD261R,0.00118X0.10906*%
%ADD262R,0.00079X0.10906*%
%ADD263R,0.00079X0.10669*%
%ADD264R,0.00118X0.10669*%
%ADD265R,0.00079X0.10591*%
%ADD266R,0.00118X0.10512*%
%ADD267R,0.00118X0.10276*%
%ADD268R,0.00079X0.10197*%
%ADD269R,0.00118X0.10118*%
%ADD270R,0.00079X0.09882*%
%ADD271R,0.00118X0.09803*%
%ADD272R,0.00079X0.09606*%
%ADD273R,0.00118X0.09528*%
%ADD274R,0.00079X0.09449*%
%ADD275R,0.00118X0.09331*%
%ADD276R,0.00118X0.06220*%
%ADD277R,0.00079X0.06102*%
%ADD278R,0.00118X0.06024*%
%ADD279R,0.00118X0.02795*%
%ADD280R,0.00118X0.05669*%
%ADD281R,0.00079X0.05551*%
%ADD282R,0.00079X0.03228*%
%ADD283R,0.00118X0.05157*%
%ADD284R,0.00079X0.04843*%
%ADD285R,0.00079X0.02835*%
%ADD286R,0.00079X0.04646*%
%ADD287R,0.00118X0.04488*%
%ADD288R,0.00079X0.04252*%
%ADD289R,0.00118X0.02953*%
%ADD290R,0.00118X0.03268*%
%ADD291R,0.00079X0.03268*%
%ADD292R,0.00118X0.03386*%
%ADD293R,0.00118X0.03898*%
%ADD294R,0.00118X0.04055*%
%ADD295R,0.00118X0.03622*%
%ADD296R,0.00118X0.04094*%
%ADD297R,0.00118X0.03819*%
%ADD298R,0.00079X0.04213*%
%ADD299R,0.00118X0.03465*%
%ADD300R,0.00118X0.04213*%
%ADD301R,0.00079X0.03819*%
%ADD302R,0.00079X0.04291*%
%ADD303R,0.00079X0.04016*%
%ADD304R,0.00079X0.08622*%
%ADD305R,0.00118X0.08465*%
%ADD306R,0.00118X0.08150*%
%ADD307R,0.00118X0.04252*%
%ADD308R,0.00118X0.07953*%
%ADD309R,0.00079X0.04370*%
%ADD310R,0.00118X0.08543*%
%ADD311R,0.00079X0.08740*%
%ADD312R,0.00079X0.09646*%
%ADD313R,0.00118X0.09843*%
%ADD314R,0.00079X0.09921*%
%ADD315R,0.00118X0.10394*%
%ADD316R,0.00118X0.01929*%
%ADD317R,0.00118X0.10709*%
%ADD318R,0.00079X0.10866*%
%ADD319R,0.00118X0.12835*%
%ADD320R,0.00079X0.12520*%
%ADD321R,0.00118X0.12244*%
%ADD322R,0.00079X0.11850*%
%ADD323R,0.00079X0.07992*%
%ADD324R,0.00118X0.04449*%
%ADD325R,0.00118X0.01772*%
%ADD326R,0.01535X0.00079*%
%ADD327R,0.02244X0.00079*%
%ADD328R,0.02795X0.00079*%
%ADD329R,0.02953X0.00079*%
%ADD330R,0.03268X0.00079*%
%ADD331R,0.03425X0.00079*%
%ADD332R,0.03583X0.00079*%
%ADD333R,0.03740X0.00079*%
%ADD334R,0.03819X0.00079*%
%ADD335R,0.03976X0.00079*%
%ADD336R,0.04016X0.00079*%
%ADD337R,0.03937X0.00079*%
%ADD338R,0.04016X0.00039*%
%ADD339R,0.00157X0.00079*%
%ADD340R,0.00315X0.00079*%
%ADD341R,0.04055X0.00079*%
%ADD342R,0.00394X0.00079*%
%ADD343R,0.00472X0.00079*%
%ADD344R,0.00354X0.00079*%
%ADD345R,0.00433X0.00079*%
%ADD346R,0.00236X0.00079*%
%ADD347R,0.04134X0.00079*%
%ADD348R,0.00512X0.00079*%
%ADD349R,0.00591X0.00079*%
%ADD350R,0.00748X0.00079*%
%ADD351R,0.00827X0.00079*%
%ADD352R,0.00984X0.00079*%
%ADD353R,0.01142X0.00079*%
%ADD354R,0.01220X0.00079*%
%ADD355R,0.01299X0.00079*%
%ADD356R,0.01378X0.00079*%
%ADD357R,0.01693X0.00079*%
%ADD358R,0.01772X0.00079*%
%ADD359R,0.01929X0.00079*%
%ADD360R,0.02087X0.00079*%
%ADD361R,0.02165X0.00079*%
%ADD362R,0.02323X0.00079*%
%ADD363R,0.02480X0.00079*%
%ADD364R,0.04055X0.00039*%
%ADD365R,0.00551X0.00039*%
%ADD366R,0.02480X0.00039*%
%ADD367R,0.02559X0.00079*%
%ADD368R,0.00551X0.00079*%
%ADD369R,0.02638X0.00079*%
%ADD370R,0.02677X0.00079*%
%ADD371R,0.02756X0.00079*%
%ADD372R,0.02717X0.00079*%
%ADD373R,0.01811X0.00079*%
%ADD374R,0.00669X0.00079*%
%ADD375R,0.00787X0.00079*%
%ADD376R,0.04094X0.00079*%
%ADD377R,0.00866X0.00079*%
%ADD378R,0.00945X0.00079*%
%ADD379R,0.01024X0.00079*%
%ADD380R,0.01102X0.00079*%
%ADD381R,0.01260X0.00079*%
%ADD382R,0.01339X0.00079*%
%ADD383R,0.01496X0.00079*%
%ADD384R,0.01575X0.00079*%
%ADD385R,0.01654X0.00079*%
%ADD386R,0.01732X0.00079*%
%ADD387R,0.01890X0.00079*%
%ADD388R,0.02047X0.00079*%
%ADD389R,0.02126X0.00079*%
%ADD390R,0.02283X0.00079*%
%ADD391R,0.02362X0.00079*%
%ADD392R,0.02520X0.00079*%
%ADD393R,0.02874X0.00079*%
%ADD394R,0.00906X0.00079*%
%ADD395R,0.03031X0.00079*%
%ADD396R,0.01063X0.00079*%
%ADD397R,0.03110X0.00079*%
%ADD398R,0.03346X0.00079*%
%ADD399R,0.01220X0.00039*%
%ADD400R,0.04094X0.00039*%
%ADD401R,0.03504X0.00039*%
%ADD402R,0.03504X0.00079*%
%ADD403R,0.01457X0.00079*%
%ADD404R,0.03661X0.00079*%
%ADD405R,0.01614X0.00079*%
%ADD406R,0.03898X0.00079*%
%ADD407R,0.01850X0.00079*%
%ADD408R,0.02008X0.00079*%
%ADD409R,0.04528X0.00079*%
%ADD410R,0.04921X0.00079*%
%ADD411R,0.05394X0.00079*%
%ADD412R,0.06614X0.00079*%
%ADD413R,0.01181X0.00079*%
%ADD414R,0.05866X0.00079*%
%ADD415R,0.06457X0.00079*%
%ADD416R,0.06142X0.00079*%
%ADD417R,0.00630X0.00079*%
%ADD418R,0.01417X0.00079*%
%ADD419R,0.06299X0.00079*%
%ADD420R,0.06811X0.00079*%
%ADD421R,0.06220X0.00079*%
%ADD422R,0.07126X0.00079*%
%ADD423R,0.07441X0.00079*%
%ADD424R,0.06063X0.00079*%
%ADD425R,0.07756X0.00079*%
%ADD426R,0.05906X0.00079*%
%ADD427R,0.07913X0.00079*%
%ADD428R,0.08228X0.00079*%
%ADD429R,0.05748X0.00079*%
%ADD430R,0.08465X0.00079*%
%ADD431R,0.05669X0.00079*%
%ADD432R,0.08780X0.00079*%
%ADD433R,0.14528X0.00079*%
%ADD434R,0.14449X0.00079*%
%ADD435R,0.14370X0.00079*%
%ADD436R,0.14409X0.00079*%
%ADD437R,0.03189X0.00079*%
%ADD438R,0.14331X0.00079*%
%ADD439R,0.14252X0.00079*%
%ADD440R,0.14173X0.00079*%
%ADD441R,0.14094X0.00079*%
%ADD442R,0.14016X0.00039*%
%ADD443R,0.00512X0.00039*%
%ADD444R,0.01732X0.00039*%
%ADD445R,0.01693X0.00039*%
%ADD446R,0.14016X0.00079*%
%ADD447R,0.13937X0.00079*%
%ADD448R,0.13780X0.00079*%
%ADD449R,0.13701X0.00079*%
%ADD450R,0.13543X0.00079*%
%ADD451R,0.13465X0.00079*%
%ADD452R,0.13386X0.00079*%
%ADD453R,0.13307X0.00079*%
%ADD454R,0.13268X0.00079*%
%ADD455R,0.13110X0.00079*%
%ADD456R,0.12953X0.00079*%
%ADD457R,0.12795X0.00079*%
%ADD458R,0.12835X0.00079*%
%ADD459R,0.12756X0.00079*%
%ADD460R,0.12677X0.00079*%
%ADD461R,0.12598X0.00079*%
%ADD462R,0.03858X0.00079*%
%ADD463R,0.17008X0.00079*%
%ADD464R,0.17165X0.00079*%
%ADD465R,0.17244X0.00079*%
%ADD466R,0.17323X0.00079*%
%ADD467R,0.17402X0.00079*%
%ADD468R,0.17480X0.00079*%
%ADD469R,0.17559X0.00079*%
%ADD470R,0.17638X0.00079*%
%ADD471R,0.17717X0.00079*%
%ADD472R,0.17795X0.00079*%
%ADD473R,0.17874X0.00079*%
%ADD474R,0.17953X0.00079*%
%ADD475R,0.18110X0.00079*%
%ADD476R,0.18189X0.00039*%
%ADD477R,0.18189X0.00079*%
%ADD478R,0.18268X0.00079*%
%ADD479R,0.18425X0.00079*%
%ADD480R,0.18504X0.00079*%
%ADD481R,0.18661X0.00079*%
%ADD482R,0.18583X0.00079*%
%ADD483R,0.18031X0.00079*%
%ADD484R,0.16417X0.00079*%
%ADD485R,0.15866X0.00079*%
%ADD486R,0.15787X0.00079*%
%ADD487R,0.04252X0.00079*%
%ADD488R,0.10669X0.00079*%
%ADD489R,0.10354X0.00079*%
%ADD490R,0.10197X0.00079*%
%ADD491R,0.10039X0.00079*%
%ADD492R,0.09961X0.00079*%
%ADD493R,0.09803X0.00079*%
%ADD494R,0.09724X0.00079*%
%ADD495R,0.09646X0.00079*%
%ADD496R,0.09567X0.00079*%
%ADD497R,0.09488X0.00079*%
%ADD498R,0.09409X0.00079*%
%ADD499R,0.02953X0.00039*%
%ADD500R,0.09331X0.00039*%
%ADD501R,0.09252X0.00079*%
%ADD502R,0.09173X0.00079*%
%ADD503R,0.09094X0.00079*%
%ADD504R,0.09016X0.00079*%
%ADD505R,0.08937X0.00079*%
%ADD506R,0.02402X0.00079*%
%ADD507R,0.08858X0.00079*%
%ADD508R,0.09331X0.00079*%
%ADD509R,0.03268X0.00039*%
%ADD510R,0.10039X0.00039*%
%ADD511R,0.13858X0.00079*%
%ADD512R,0.13622X0.00079*%
%ADD513R,0.13150X0.00079*%
%ADD514R,0.13071X0.00079*%
%ADD515R,0.12992X0.00079*%
%ADD516R,0.12520X0.00079*%
%ADD517R,0.12441X0.00079*%
%ADD518R,0.12283X0.00079*%
%ADD519R,0.12126X0.00079*%
%ADD520R,0.11969X0.00079*%
%ADD521R,0.11890X0.00079*%
%ADD522R,0.11732X0.00079*%
%ADD523R,0.11575X0.00079*%
%ADD524R,0.11417X0.00079*%
%ADD525R,0.11260X0.00079*%
%ADD526R,0.11181X0.00079*%
%ADD527R,0.10945X0.00079*%
%ADD528R,0.10866X0.00079*%
%ADD529R,0.10512X0.00079*%
%ADD530R,0.08701X0.00079*%
%ADD531R,0.08228X0.00039*%
%ADD532R,0.07953X0.00079*%
%ADD533R,0.07717X0.00079*%
%ADD534R,0.07402X0.00079*%
%ADD535R,0.07244X0.00079*%
%ADD536R,0.06850X0.00079*%
%ADD537R,0.05827X0.00079*%
%ADD538R,0.05354X0.00079*%
%ADD539R,0.05039X0.00079*%
%ADD540R,0.04370X0.00079*%
%ADD541R,0.28189X0.00157*%
%ADD542R,0.02992X0.00157*%
%ADD543R,0.16378X0.00157*%
%ADD544R,0.07402X0.00157*%
%ADD545R,0.02520X0.00157*%
%ADD546R,0.01732X0.00157*%
%ADD547R,0.00630X0.00157*%
%ADD548R,0.00472X0.00157*%
%ADD549R,0.02362X0.00157*%
%ADD550R,0.03465X0.00157*%
%ADD551R,0.01260X0.00157*%
%ADD552R,0.01890X0.00157*%
%ADD553R,0.01417X0.00157*%
%ADD554R,0.00315X0.00157*%
%ADD555R,0.03150X0.00157*%
%ADD556R,0.00945X0.00157*%
%ADD557R,0.00787X0.00157*%
%ADD558R,0.02205X0.00157*%
%ADD559R,0.02047X0.00157*%
%ADD560R,0.01102X0.00157*%
%ADD561R,0.01575X0.00157*%
%ADD562R,0.03307X0.00157*%
%ADD563R,0.03622X0.00157*%
%ADD564R,0.02677X0.00157*%
%ADD565R,0.00157X0.00157*%
%ADD566R,0.02835X0.00157*%
%ADD567R,0.06142X0.00157*%
%ADD568R,0.06299X0.00157*%
%ADD569R,0.06457X0.00157*%
%ADD570R,0.06772X0.00157*%
%ADD571R,0.00236X0.22913*%
%ADD572R,0.00236X0.04961*%
%ADD573R,0.00236X0.16535*%
%ADD574R,0.00236X0.04488*%
%ADD575R,0.00236X0.01890*%
%ADD576R,0.00236X0.02835*%
%ADD577R,0.00236X0.00945*%
%ADD578R,0.00236X0.04016*%
%ADD579R,0.00236X0.01181*%
%ADD580R,0.00236X0.02362*%
%ADD581R,0.00236X0.00709*%
%ADD582R,0.00236X0.03780*%
%ADD583R,0.00236X0.02126*%
%ADD584R,0.00236X0.03307*%
%ADD585R,0.00236X0.03543*%
%ADD586R,0.00236X0.03071*%
%ADD587R,0.00236X0.01654*%
%ADD588R,0.00236X0.01417*%
%ADD589R,0.00236X0.04252*%
%ADD590R,0.00236X0.02598*%
%ADD591R,0.00236X0.00236*%
%ADD592R,0.00236X0.00472*%
%ADD593R,0.00236X0.04724*%
%ADD594R,0.15276X0.00157*%
%ADD595R,0.11024X0.00157*%
%ADD596R,0.00157X0.00315*%
%ADD597R,0.00157X0.00472*%
%ADD598R,0.00157X0.00945*%
%ADD599R,0.00157X0.00787*%
%ADD600R,0.00157X0.01102*%
%ADD601R,0.00157X0.01260*%
%ADD602R,0.00157X0.01417*%
%ADD603R,0.00157X0.02362*%
%ADD604R,0.00157X0.02205*%
%ADD605R,0.00157X0.02047*%
%ADD606R,0.00157X0.01890*%
%ADD607R,0.00157X0.02520*%
%ADD608R,0.00157X0.02677*%
%ADD609R,0.00157X0.02992*%
%ADD610R,0.00157X0.00630*%
%ADD611R,0.00157X0.02835*%
%ADD612R,0.00157X0.03150*%
%ADD613R,0.00157X0.01575*%
%ADD614R,0.00157X0.01732*%
%ADD615R,0.00157X0.03307*%
%ADD616R,0.00157X0.16850*%
%ADD617R,0.00157X0.17795*%
%ADD618R,0.00157X0.18425*%
%ADD619R,0.00157X0.19055*%
%ADD620R,0.00157X0.20945*%
%ADD621R,0.00157X0.21260*%
%ADD622R,0.00157X0.03465*%
%ADD623R,0.00157X0.04409*%
%ADD624R,0.00157X0.04567*%
%ADD625R,0.00157X0.03937*%
%ADD626R,0.00157X0.04252*%
%ADD627R,0.00157X0.04094*%
%ADD628R,0.00157X0.03780*%
%ADD629R,0.00157X0.03622*%
%ADD630R,0.00157X0.19370*%
%ADD631R,0.00157X0.05512*%
%ADD632R,0.00157X0.06142*%
%ADD633R,0.00157X0.06772*%
%ADD634R,0.00157X0.08661*%
%ADD635R,0.00157X0.08976*%
%ADD636R,0.00157X0.07087*%
%ADD637R,0.17165X0.00157*%
%ADD638R,0.17008X0.00157*%
%ADD639R,0.16850X0.00157*%
%ADD640R,0.16693X0.00157*%
%ADD641R,0.16535X0.00157*%
%ADD642R,0.16220X0.00157*%
%ADD643R,0.10709X0.00157*%
%ADD644R,0.03780X0.00157*%
%ADD645R,0.14331X0.00157*%
%ADD646R,0.14173X0.00157*%
%ADD647R,0.14016X0.00157*%
%ADD648R,0.13858X0.00157*%
%ADD649R,0.13701X0.00157*%
%ADD650R,0.13543X0.00157*%
%ADD651R,0.13386X0.00157*%
%ADD652R,0.04724X0.00157*%
%ADD653R,0.05039X0.00157*%
%ADD654R,0.05197X0.00157*%
%ADD655R,0.13228X0.00157*%
%ADD656R,0.13071X0.00157*%
%ADD657R,0.04567X0.00157*%
%ADD658R,0.04882X0.00157*%
%ADD659R,0.03937X0.00157*%
%ADD660R,0.12913X0.00157*%
%ADD661R,0.12756X0.00157*%
%ADD662R,0.12598X0.00157*%
%ADD663R,0.12441X0.00157*%
%ADD664R,0.12283X0.00157*%
%ADD665R,0.12126X0.00157*%
%ADD666R,0.11969X0.00157*%
%ADD667R,0.08504X0.00157*%
%ADD668R,0.04409X0.00157*%
%ADD669R,0.04252X0.00157*%
%ADD670R,0.04094X0.00157*%
%ADD671R,0.73465X0.00236*%
%ADD672R,0.73701X0.00236*%
%ADD673R,0.03543X0.00236*%
%ADD674R,0.23150X0.00236*%
%ADD675R,0.03780X0.00236*%
%ADD676R,0.06142X0.00236*%
%ADD677R,0.29291X0.00236*%
%ADD678R,0.03071X0.00236*%
%ADD679R,0.01654X0.00236*%
%ADD680R,0.02598X0.00236*%
%ADD681R,0.03307X0.00236*%
%ADD682R,0.04252X0.00236*%
%ADD683R,0.02362X0.00236*%
%ADD684R,0.01890X0.00236*%
%ADD685R,0.02126X0.00236*%
%ADD686R,0.04488X0.00236*%
%ADD687R,0.02835X0.00236*%
%ADD688R,0.01417X0.00236*%
%ADD689R,0.01181X0.00236*%
%ADD690R,0.00945X0.00236*%
%ADD691R,0.00709X0.00236*%
%ADD692R,0.04016X0.00236*%
%ADD693R,0.00472X0.00236*%
%ADD694R,0.04724X0.00236*%
%ADD695R,0.05669X0.00236*%
%ADD696R,0.06378X0.00236*%
%ADD697R,0.04961X0.00236*%
%ADD698R,0.05433X0.00236*%
D10*
X0653333Y0206400D03*
D11*
X0633333Y0036400D02*
X0633333Y0033800D01*
X0633333Y0029000D02*
X0633333Y0026400D01*
X0633333Y0021400D02*
X0633333Y0016400D01*
X0613333Y0016400D01*
X0613333Y0011400D01*
X0613333Y0021400D02*
X0613333Y0026500D01*
X0613333Y0031300D02*
X0613333Y0036400D01*
D12*
X0476129Y0043605D02*
X0467073Y0043605D01*
X0459593Y0043605D02*
X0450538Y0043605D01*
X0450538Y0062502D01*
X0457231Y0069195D01*
X0459593Y0069195D01*
X0467073Y0069195D02*
X0469436Y0069195D01*
X0476129Y0062502D01*
X0476129Y0043605D01*
X0469436Y0034195D02*
X0476129Y0027502D01*
X0476129Y0008605D01*
X0467073Y0008605D01*
X0459593Y0008605D02*
X0450538Y0008605D01*
X0450538Y0027502D01*
X0457231Y0034195D01*
X0459593Y0034195D01*
X0467073Y0034195D02*
X0469436Y0034195D01*
X0467073Y0033015D02*
X0467356Y0032920D01*
X0467637Y0032818D01*
X0467914Y0032709D01*
X0468190Y0032594D01*
X0468462Y0032472D01*
X0468731Y0032343D01*
X0468997Y0032208D01*
X0469259Y0032066D01*
X0469518Y0031918D01*
X0469774Y0031764D01*
X0470025Y0031603D01*
X0470273Y0031436D01*
X0470516Y0031264D01*
X0470755Y0031085D01*
X0470990Y0030901D01*
X0471220Y0030711D01*
X0471445Y0030515D01*
X0471665Y0030314D01*
X0471881Y0030108D01*
X0472091Y0029896D01*
X0472296Y0029680D01*
X0472496Y0029458D01*
X0472690Y0029231D01*
X0472879Y0029000D01*
X0473062Y0028765D01*
X0473239Y0028525D01*
X0473410Y0028280D01*
X0473575Y0028032D01*
X0473734Y0027779D01*
X0473887Y0027523D01*
X0474034Y0027263D01*
X0474174Y0027000D01*
X0474308Y0026733D01*
X0474435Y0026463D01*
X0474555Y0026190D01*
X0474669Y0025915D01*
X0474776Y0025636D01*
X0474876Y0025355D01*
X0474969Y0025072D01*
X0475056Y0024786D01*
X0475135Y0024498D01*
X0475207Y0024209D01*
X0475272Y0023918D01*
X0475330Y0023625D01*
X0475381Y0023331D01*
X0475425Y0023036D01*
X0475461Y0022740D01*
X0475490Y0022443D01*
X0475512Y0022145D01*
X0475527Y0021847D01*
X0475534Y0021549D01*
X0475534Y0021251D01*
X0475527Y0020953D01*
X0475512Y0020655D01*
X0475490Y0020357D01*
X0475461Y0020060D01*
X0475425Y0019764D01*
X0475381Y0019469D01*
X0475330Y0019175D01*
X0475272Y0018882D01*
X0475207Y0018591D01*
X0475135Y0018302D01*
X0475056Y0018014D01*
X0474969Y0017728D01*
X0474876Y0017445D01*
X0474776Y0017164D01*
X0474669Y0016885D01*
X0474555Y0016610D01*
X0474435Y0016337D01*
X0474308Y0016067D01*
X0474174Y0015800D01*
X0474034Y0015537D01*
X0473887Y0015277D01*
X0473734Y0015021D01*
X0473575Y0014768D01*
X0473410Y0014520D01*
X0473239Y0014275D01*
X0473062Y0014035D01*
X0472879Y0013800D01*
X0472690Y0013569D01*
X0472496Y0013342D01*
X0472296Y0013120D01*
X0472091Y0012904D01*
X0471881Y0012692D01*
X0471665Y0012486D01*
X0471445Y0012285D01*
X0471220Y0012089D01*
X0470990Y0011899D01*
X0470755Y0011715D01*
X0470516Y0011536D01*
X0470273Y0011364D01*
X0470025Y0011197D01*
X0469774Y0011036D01*
X0469518Y0010882D01*
X0469259Y0010734D01*
X0468997Y0010592D01*
X0468731Y0010457D01*
X0468462Y0010328D01*
X0468190Y0010206D01*
X0467914Y0010091D01*
X0467637Y0009982D01*
X0467356Y0009880D01*
X0467073Y0009785D01*
X0459593Y0009785D02*
X0459310Y0009880D01*
X0459029Y0009982D01*
X0458752Y0010091D01*
X0458476Y0010206D01*
X0458204Y0010328D01*
X0457935Y0010457D01*
X0457669Y0010592D01*
X0457407Y0010734D01*
X0457148Y0010882D01*
X0456892Y0011036D01*
X0456641Y0011197D01*
X0456393Y0011364D01*
X0456150Y0011536D01*
X0455911Y0011715D01*
X0455676Y0011899D01*
X0455446Y0012089D01*
X0455221Y0012285D01*
X0455001Y0012486D01*
X0454785Y0012692D01*
X0454575Y0012904D01*
X0454370Y0013120D01*
X0454170Y0013342D01*
X0453976Y0013569D01*
X0453787Y0013800D01*
X0453604Y0014035D01*
X0453427Y0014275D01*
X0453256Y0014520D01*
X0453091Y0014768D01*
X0452932Y0015021D01*
X0452779Y0015277D01*
X0452632Y0015537D01*
X0452492Y0015800D01*
X0452358Y0016067D01*
X0452231Y0016337D01*
X0452111Y0016610D01*
X0451997Y0016885D01*
X0451890Y0017164D01*
X0451790Y0017445D01*
X0451697Y0017728D01*
X0451610Y0018014D01*
X0451531Y0018302D01*
X0451459Y0018591D01*
X0451394Y0018882D01*
X0451336Y0019175D01*
X0451285Y0019469D01*
X0451241Y0019764D01*
X0451205Y0020060D01*
X0451176Y0020357D01*
X0451154Y0020655D01*
X0451139Y0020953D01*
X0451132Y0021251D01*
X0451132Y0021549D01*
X0451139Y0021847D01*
X0451154Y0022145D01*
X0451176Y0022443D01*
X0451205Y0022740D01*
X0451241Y0023036D01*
X0451285Y0023331D01*
X0451336Y0023625D01*
X0451394Y0023918D01*
X0451459Y0024209D01*
X0451531Y0024498D01*
X0451610Y0024786D01*
X0451697Y0025072D01*
X0451790Y0025355D01*
X0451890Y0025636D01*
X0451997Y0025915D01*
X0452111Y0026190D01*
X0452231Y0026463D01*
X0452358Y0026733D01*
X0452492Y0027000D01*
X0452632Y0027263D01*
X0452779Y0027523D01*
X0452932Y0027779D01*
X0453091Y0028032D01*
X0453256Y0028280D01*
X0453427Y0028525D01*
X0453604Y0028765D01*
X0453787Y0029000D01*
X0453976Y0029231D01*
X0454170Y0029458D01*
X0454370Y0029680D01*
X0454575Y0029896D01*
X0454785Y0030108D01*
X0455001Y0030314D01*
X0455221Y0030515D01*
X0455446Y0030711D01*
X0455676Y0030901D01*
X0455911Y0031085D01*
X0456150Y0031264D01*
X0456393Y0031436D01*
X0456641Y0031603D01*
X0456892Y0031764D01*
X0457148Y0031918D01*
X0457407Y0032066D01*
X0457669Y0032208D01*
X0457935Y0032343D01*
X0458204Y0032472D01*
X0458476Y0032594D01*
X0458752Y0032709D01*
X0459029Y0032818D01*
X0459310Y0032920D01*
X0459593Y0033015D01*
X0467073Y0044785D02*
X0467356Y0044880D01*
X0467637Y0044982D01*
X0467914Y0045091D01*
X0468190Y0045206D01*
X0468462Y0045328D01*
X0468731Y0045457D01*
X0468997Y0045592D01*
X0469259Y0045734D01*
X0469518Y0045882D01*
X0469774Y0046036D01*
X0470025Y0046197D01*
X0470273Y0046364D01*
X0470516Y0046536D01*
X0470755Y0046715D01*
X0470990Y0046899D01*
X0471220Y0047089D01*
X0471445Y0047285D01*
X0471665Y0047486D01*
X0471881Y0047692D01*
X0472091Y0047904D01*
X0472296Y0048120D01*
X0472496Y0048342D01*
X0472690Y0048569D01*
X0472879Y0048800D01*
X0473062Y0049035D01*
X0473239Y0049275D01*
X0473410Y0049520D01*
X0473575Y0049768D01*
X0473734Y0050021D01*
X0473887Y0050277D01*
X0474034Y0050537D01*
X0474174Y0050800D01*
X0474308Y0051067D01*
X0474435Y0051337D01*
X0474555Y0051610D01*
X0474669Y0051885D01*
X0474776Y0052164D01*
X0474876Y0052445D01*
X0474969Y0052728D01*
X0475056Y0053014D01*
X0475135Y0053302D01*
X0475207Y0053591D01*
X0475272Y0053882D01*
X0475330Y0054175D01*
X0475381Y0054469D01*
X0475425Y0054764D01*
X0475461Y0055060D01*
X0475490Y0055357D01*
X0475512Y0055655D01*
X0475527Y0055953D01*
X0475534Y0056251D01*
X0475534Y0056549D01*
X0475527Y0056847D01*
X0475512Y0057145D01*
X0475490Y0057443D01*
X0475461Y0057740D01*
X0475425Y0058036D01*
X0475381Y0058331D01*
X0475330Y0058625D01*
X0475272Y0058918D01*
X0475207Y0059209D01*
X0475135Y0059498D01*
X0475056Y0059786D01*
X0474969Y0060072D01*
X0474876Y0060355D01*
X0474776Y0060636D01*
X0474669Y0060915D01*
X0474555Y0061190D01*
X0474435Y0061463D01*
X0474308Y0061733D01*
X0474174Y0062000D01*
X0474034Y0062263D01*
X0473887Y0062523D01*
X0473734Y0062779D01*
X0473575Y0063032D01*
X0473410Y0063280D01*
X0473239Y0063525D01*
X0473062Y0063765D01*
X0472879Y0064000D01*
X0472690Y0064231D01*
X0472496Y0064458D01*
X0472296Y0064680D01*
X0472091Y0064896D01*
X0471881Y0065108D01*
X0471665Y0065314D01*
X0471445Y0065515D01*
X0471220Y0065711D01*
X0470990Y0065901D01*
X0470755Y0066085D01*
X0470516Y0066264D01*
X0470273Y0066436D01*
X0470025Y0066603D01*
X0469774Y0066764D01*
X0469518Y0066918D01*
X0469259Y0067066D01*
X0468997Y0067208D01*
X0468731Y0067343D01*
X0468462Y0067472D01*
X0468190Y0067594D01*
X0467914Y0067709D01*
X0467637Y0067818D01*
X0467356Y0067920D01*
X0467073Y0068015D01*
X0459593Y0068015D02*
X0459310Y0067920D01*
X0459029Y0067818D01*
X0458752Y0067709D01*
X0458476Y0067594D01*
X0458204Y0067472D01*
X0457935Y0067343D01*
X0457669Y0067208D01*
X0457407Y0067066D01*
X0457148Y0066918D01*
X0456892Y0066764D01*
X0456641Y0066603D01*
X0456393Y0066436D01*
X0456150Y0066264D01*
X0455911Y0066085D01*
X0455676Y0065901D01*
X0455446Y0065711D01*
X0455221Y0065515D01*
X0455001Y0065314D01*
X0454785Y0065108D01*
X0454575Y0064896D01*
X0454370Y0064680D01*
X0454170Y0064458D01*
X0453976Y0064231D01*
X0453787Y0064000D01*
X0453604Y0063765D01*
X0453427Y0063525D01*
X0453256Y0063280D01*
X0453091Y0063032D01*
X0452932Y0062779D01*
X0452779Y0062523D01*
X0452632Y0062263D01*
X0452492Y0062000D01*
X0452358Y0061733D01*
X0452231Y0061463D01*
X0452111Y0061190D01*
X0451997Y0060915D01*
X0451890Y0060636D01*
X0451790Y0060355D01*
X0451697Y0060072D01*
X0451610Y0059786D01*
X0451531Y0059498D01*
X0451459Y0059209D01*
X0451394Y0058918D01*
X0451336Y0058625D01*
X0451285Y0058331D01*
X0451241Y0058036D01*
X0451205Y0057740D01*
X0451176Y0057443D01*
X0451154Y0057145D01*
X0451139Y0056847D01*
X0451132Y0056549D01*
X0451132Y0056251D01*
X0451139Y0055953D01*
X0451154Y0055655D01*
X0451176Y0055357D01*
X0451205Y0055060D01*
X0451241Y0054764D01*
X0451285Y0054469D01*
X0451336Y0054175D01*
X0451394Y0053882D01*
X0451459Y0053591D01*
X0451531Y0053302D01*
X0451610Y0053014D01*
X0451697Y0052728D01*
X0451790Y0052445D01*
X0451890Y0052164D01*
X0451997Y0051885D01*
X0452111Y0051610D01*
X0452231Y0051337D01*
X0452358Y0051067D01*
X0452492Y0050800D01*
X0452632Y0050537D01*
X0452779Y0050277D01*
X0452932Y0050021D01*
X0453091Y0049768D01*
X0453256Y0049520D01*
X0453427Y0049275D01*
X0453604Y0049035D01*
X0453787Y0048800D01*
X0453976Y0048569D01*
X0454170Y0048342D01*
X0454370Y0048120D01*
X0454575Y0047904D01*
X0454785Y0047692D01*
X0455001Y0047486D01*
X0455221Y0047285D01*
X0455446Y0047089D01*
X0455676Y0046899D01*
X0455911Y0046715D01*
X0456150Y0046536D01*
X0456393Y0046364D01*
X0456641Y0046197D01*
X0456892Y0046036D01*
X0457148Y0045882D01*
X0457407Y0045734D01*
X0457669Y0045592D01*
X0457935Y0045457D01*
X0458204Y0045328D01*
X0458476Y0045206D01*
X0458752Y0045091D01*
X0459029Y0044982D01*
X0459310Y0044880D01*
X0459593Y0044785D01*
D13*
X0491458Y0055150D02*
X0495208Y0055150D01*
X0495208Y0010150D02*
X0491458Y0010150D01*
X0491458Y0157650D02*
X0495208Y0157650D01*
X0445208Y0157650D02*
X0441458Y0157650D01*
X0441458Y0180150D02*
X0445208Y0180150D01*
X0419583Y0224525D02*
X0419583Y0228275D01*
X0407083Y0239525D02*
X0407083Y0243275D01*
X0407083Y0254525D02*
X0407083Y0258275D01*
D14*
X0463083Y0122400D03*
D15*
X0464483Y0123450D02*
X0463933Y0123950D01*
X0463933Y0129350D01*
X0464483Y0129350D01*
X0472183Y0129350D02*
X0472733Y0129350D01*
X0472733Y0123450D01*
X0472183Y0123450D01*
X0445333Y0113400D02*
X0445333Y0108400D01*
X0445333Y0113400D02*
X0440333Y0113400D01*
X0412333Y0113400D02*
X0407333Y0113400D01*
X0407333Y0108400D01*
X0455333Y0096900D02*
X0461333Y0096900D01*
X0470577Y0091912D02*
X0473727Y0091912D01*
X0470577Y0091912D02*
X0470577Y0089550D01*
X0470577Y0083250D02*
X0470577Y0080888D01*
X0473727Y0080888D01*
X0461877Y0078939D02*
X0454790Y0078939D01*
X0451365Y0078939D02*
X0451365Y0083861D01*
X0454790Y0083861D02*
X0461877Y0083861D01*
X0504774Y0069739D02*
X0504774Y0064739D01*
X0504774Y0069739D02*
X0509774Y0069739D01*
X0534703Y0069817D02*
X0539703Y0069817D01*
X0539703Y0064817D01*
X0545333Y0065900D02*
X0551333Y0065900D01*
X0539625Y0028061D02*
X0539625Y0023061D01*
X0534625Y0023061D01*
X0545333Y0026900D02*
X0551333Y0026900D01*
X0509774Y0023061D02*
X0504774Y0023061D01*
X0504774Y0028061D01*
X0445333Y0014400D02*
X0445333Y0009400D01*
X0440333Y0009400D01*
X0412333Y0009400D02*
X0407333Y0009400D01*
X0407333Y0014400D01*
X0578097Y0124589D02*
X0586365Y0124589D01*
X0586364Y0124589D02*
X0586366Y0124676D01*
X0586372Y0124763D01*
X0586381Y0124850D01*
X0586395Y0124936D01*
X0586412Y0125021D01*
X0586433Y0125106D01*
X0586458Y0125189D01*
X0586486Y0125272D01*
X0586518Y0125353D01*
X0586554Y0125432D01*
X0586593Y0125510D01*
X0586635Y0125586D01*
X0586681Y0125660D01*
X0586730Y0125732D01*
X0586782Y0125802D01*
X0586837Y0125869D01*
X0586895Y0125934D01*
X0586956Y0125997D01*
X0587020Y0126056D01*
X0587086Y0126113D01*
X0587155Y0126166D01*
X0587226Y0126217D01*
X0587299Y0126264D01*
X0587374Y0126309D01*
X0587451Y0126349D01*
X0587529Y0126387D01*
X0587610Y0126420D01*
X0587691Y0126451D01*
X0587774Y0126477D01*
X0587859Y0126500D01*
X0587944Y0126519D01*
X0588029Y0126534D01*
X0588116Y0126546D01*
X0588202Y0126554D01*
X0588289Y0126558D01*
X0588377Y0126558D01*
X0588464Y0126554D01*
X0588550Y0126546D01*
X0588637Y0126534D01*
X0588722Y0126519D01*
X0588807Y0126500D01*
X0588892Y0126477D01*
X0588975Y0126451D01*
X0589056Y0126420D01*
X0589137Y0126387D01*
X0589215Y0126349D01*
X0589292Y0126309D01*
X0589367Y0126264D01*
X0589440Y0126217D01*
X0589511Y0126166D01*
X0589580Y0126113D01*
X0589646Y0126056D01*
X0589710Y0125997D01*
X0589771Y0125934D01*
X0589829Y0125869D01*
X0589884Y0125802D01*
X0589936Y0125732D01*
X0589985Y0125660D01*
X0590031Y0125586D01*
X0590073Y0125510D01*
X0590112Y0125432D01*
X0590148Y0125353D01*
X0590180Y0125272D01*
X0590208Y0125189D01*
X0590233Y0125106D01*
X0590254Y0125021D01*
X0590271Y0124936D01*
X0590285Y0124850D01*
X0590294Y0124763D01*
X0590300Y0124676D01*
X0590302Y0124589D01*
X0597782Y0124589D01*
X0597782Y0125376D01*
X0578097Y0125376D02*
X0578097Y0124589D01*
X0578097Y0147817D02*
X0578097Y0148605D01*
X0597782Y0148605D01*
X0597782Y0147817D01*
X0597833Y0163400D02*
X0597833Y0169400D01*
X0598833Y0169400D02*
X0598833Y0163400D01*
X0617833Y0173400D02*
X0617833Y0179400D01*
X0597782Y0184589D02*
X0597782Y0185376D01*
X0597782Y0184589D02*
X0590302Y0184589D01*
X0590300Y0184676D01*
X0590294Y0184763D01*
X0590285Y0184850D01*
X0590271Y0184936D01*
X0590254Y0185021D01*
X0590233Y0185106D01*
X0590208Y0185189D01*
X0590180Y0185272D01*
X0590148Y0185353D01*
X0590112Y0185432D01*
X0590073Y0185510D01*
X0590031Y0185586D01*
X0589985Y0185660D01*
X0589936Y0185732D01*
X0589884Y0185802D01*
X0589829Y0185869D01*
X0589771Y0185934D01*
X0589710Y0185997D01*
X0589646Y0186056D01*
X0589580Y0186113D01*
X0589511Y0186166D01*
X0589440Y0186217D01*
X0589367Y0186264D01*
X0589292Y0186309D01*
X0589215Y0186349D01*
X0589137Y0186387D01*
X0589056Y0186420D01*
X0588975Y0186451D01*
X0588892Y0186477D01*
X0588807Y0186500D01*
X0588722Y0186519D01*
X0588637Y0186534D01*
X0588550Y0186546D01*
X0588464Y0186554D01*
X0588377Y0186558D01*
X0588289Y0186558D01*
X0588202Y0186554D01*
X0588116Y0186546D01*
X0588029Y0186534D01*
X0587944Y0186519D01*
X0587859Y0186500D01*
X0587774Y0186477D01*
X0587691Y0186451D01*
X0587610Y0186420D01*
X0587529Y0186387D01*
X0587451Y0186349D01*
X0587374Y0186309D01*
X0587299Y0186264D01*
X0587226Y0186217D01*
X0587155Y0186166D01*
X0587086Y0186113D01*
X0587020Y0186056D01*
X0586956Y0185997D01*
X0586895Y0185934D01*
X0586837Y0185869D01*
X0586782Y0185802D01*
X0586730Y0185732D01*
X0586681Y0185660D01*
X0586635Y0185586D01*
X0586593Y0185510D01*
X0586554Y0185432D01*
X0586518Y0185353D01*
X0586486Y0185272D01*
X0586458Y0185189D01*
X0586433Y0185106D01*
X0586412Y0185021D01*
X0586395Y0184936D01*
X0586381Y0184850D01*
X0586372Y0184763D01*
X0586366Y0184676D01*
X0586364Y0184589D01*
X0586365Y0184589D02*
X0578097Y0184589D01*
X0578097Y0185376D01*
X0578833Y0179400D02*
X0578833Y0173400D01*
X0578097Y0207817D02*
X0578097Y0208605D01*
X0597782Y0208605D01*
X0597782Y0207817D01*
X0566333Y0236900D02*
X0560333Y0236900D01*
X0504266Y0204392D02*
X0504266Y0200349D01*
X0493333Y0200349D01*
X0443333Y0200349D02*
X0432400Y0200349D01*
X0432400Y0204392D01*
X0418333Y0204709D02*
X0418333Y0208091D01*
X0414390Y0209191D02*
X0412277Y0209191D01*
X0408333Y0208091D02*
X0408333Y0204709D01*
X0425873Y0193369D02*
X0430794Y0193369D01*
X0430873Y0193369D02*
X0435794Y0193369D01*
X0435794Y0189943D02*
X0435794Y0182857D01*
X0430873Y0182857D02*
X0430873Y0189943D01*
X0430794Y0189943D02*
X0430794Y0182857D01*
X0425873Y0182857D02*
X0425873Y0189943D01*
X0448740Y0159063D02*
X0487533Y0159063D01*
X0487534Y0159062D02*
X0487604Y0159071D01*
X0487676Y0159076D01*
X0487747Y0159077D01*
X0487818Y0159074D01*
X0487889Y0159067D01*
X0487960Y0159057D01*
X0488030Y0159043D01*
X0488099Y0159025D01*
X0488167Y0159003D01*
X0488234Y0158977D01*
X0488299Y0158948D01*
X0488362Y0158916D01*
X0488424Y0158880D01*
X0488484Y0158841D01*
X0488541Y0158798D01*
X0488596Y0158753D01*
X0488649Y0158705D01*
X0488699Y0158653D01*
X0488746Y0158600D01*
X0488790Y0158544D01*
X0488830Y0158485D01*
X0488868Y0158424D01*
X0488902Y0158362D01*
X0488933Y0158298D01*
X0488961Y0158232D01*
X0488984Y0158164D01*
X0489004Y0158096D01*
X0489021Y0158026D01*
X0489033Y0157956D01*
X0489033Y0154000D01*
X0488833Y0154000D02*
X0488735Y0153998D01*
X0488637Y0153992D01*
X0488539Y0153983D01*
X0488442Y0153969D01*
X0488345Y0153952D01*
X0488249Y0153931D01*
X0488154Y0153906D01*
X0488060Y0153878D01*
X0487968Y0153845D01*
X0487876Y0153810D01*
X0487786Y0153770D01*
X0487698Y0153728D01*
X0487611Y0153681D01*
X0487527Y0153632D01*
X0487444Y0153579D01*
X0487364Y0153523D01*
X0487285Y0153463D01*
X0487209Y0153401D01*
X0487136Y0153336D01*
X0487065Y0153268D01*
X0486997Y0153197D01*
X0486932Y0153124D01*
X0486870Y0153048D01*
X0486810Y0152969D01*
X0486754Y0152889D01*
X0486701Y0152806D01*
X0486652Y0152722D01*
X0486605Y0152635D01*
X0486563Y0152547D01*
X0486523Y0152457D01*
X0486488Y0152365D01*
X0486455Y0152273D01*
X0486427Y0152179D01*
X0486402Y0152084D01*
X0486381Y0151988D01*
X0486364Y0151891D01*
X0486350Y0151794D01*
X0486341Y0151696D01*
X0486335Y0151598D01*
X0486333Y0151500D01*
X0486335Y0151402D01*
X0486341Y0151304D01*
X0486350Y0151206D01*
X0486364Y0151109D01*
X0486381Y0151012D01*
X0486402Y0150916D01*
X0486427Y0150821D01*
X0486455Y0150727D01*
X0486488Y0150635D01*
X0486523Y0150543D01*
X0486563Y0150453D01*
X0486605Y0150365D01*
X0486652Y0150278D01*
X0486701Y0150194D01*
X0486754Y0150111D01*
X0486810Y0150031D01*
X0486870Y0149952D01*
X0486932Y0149876D01*
X0486997Y0149803D01*
X0487065Y0149732D01*
X0487136Y0149664D01*
X0487209Y0149599D01*
X0487285Y0149537D01*
X0487364Y0149477D01*
X0487444Y0149421D01*
X0487527Y0149368D01*
X0487611Y0149319D01*
X0487698Y0149272D01*
X0487786Y0149230D01*
X0487876Y0149190D01*
X0487968Y0149155D01*
X0488060Y0149122D01*
X0488154Y0149094D01*
X0488249Y0149069D01*
X0488345Y0149048D01*
X0488442Y0149031D01*
X0488539Y0149017D01*
X0488637Y0149008D01*
X0488735Y0149002D01*
X0488833Y0149000D01*
X0489033Y0149000D02*
X0489033Y0145681D01*
X0489034Y0145631D02*
X0489041Y0145550D01*
X0489045Y0145469D01*
X0489044Y0145388D01*
X0489040Y0145306D01*
X0489032Y0145226D01*
X0489020Y0145145D01*
X0489005Y0145065D01*
X0488985Y0144986D01*
X0488962Y0144908D01*
X0488935Y0144832D01*
X0488905Y0144756D01*
X0488871Y0144682D01*
X0488833Y0144610D01*
X0488792Y0144540D01*
X0488748Y0144472D01*
X0488701Y0144406D01*
X0488650Y0144342D01*
X0488597Y0144281D01*
X0488540Y0144222D01*
X0488481Y0144166D01*
X0488420Y0144113D01*
X0488356Y0144063D01*
X0488289Y0144016D01*
X0488221Y0143972D01*
X0488150Y0143932D01*
X0488078Y0143895D01*
X0488004Y0143861D01*
X0487928Y0143832D01*
X0487851Y0143805D01*
X0487773Y0143783D01*
X0487694Y0143764D01*
X0487614Y0143749D01*
X0487533Y0143737D01*
X0449133Y0143737D01*
X0449057Y0143739D01*
X0448982Y0143745D01*
X0448906Y0143754D01*
X0448831Y0143768D01*
X0448757Y0143785D01*
X0448684Y0143806D01*
X0448612Y0143830D01*
X0448542Y0143858D01*
X0448473Y0143890D01*
X0448405Y0143925D01*
X0448340Y0143964D01*
X0448276Y0144006D01*
X0448215Y0144051D01*
X0448156Y0144099D01*
X0448100Y0144150D01*
X0448046Y0144204D01*
X0447995Y0144260D01*
X0447947Y0144319D01*
X0447902Y0144380D01*
X0447860Y0144444D01*
X0447821Y0144509D01*
X0447786Y0144577D01*
X0447754Y0144646D01*
X0447726Y0144716D01*
X0447702Y0144788D01*
X0447681Y0144861D01*
X0447664Y0144935D01*
X0447650Y0145010D01*
X0447641Y0145086D01*
X0447635Y0145161D01*
X0447633Y0145237D01*
X0447633Y0157563D01*
X0447633Y0157562D02*
X0447624Y0157633D01*
X0447619Y0157704D01*
X0447618Y0157776D01*
X0447621Y0157847D01*
X0447628Y0157918D01*
X0447638Y0157989D01*
X0447652Y0158058D01*
X0447671Y0158128D01*
X0447692Y0158196D01*
X0447718Y0158262D01*
X0447747Y0158327D01*
X0447779Y0158391D01*
X0447815Y0158453D01*
X0447854Y0158512D01*
X0447897Y0158570D01*
X0447942Y0158625D01*
X0447991Y0158677D01*
X0448042Y0158727D01*
X0448095Y0158774D01*
X0448152Y0158818D01*
X0448210Y0158859D01*
X0448271Y0158897D01*
X0448333Y0158931D01*
X0448398Y0158962D01*
X0448464Y0158989D01*
X0448531Y0159013D01*
X0448599Y0159033D01*
X0448669Y0159050D01*
X0448739Y0159062D01*
X0637270Y0256400D02*
X0649396Y0256400D01*
X0653333Y0261518D02*
X0653333Y0271282D01*
X0649396Y0276400D02*
X0637270Y0276400D01*
X0633333Y0271400D02*
X0633333Y0261518D01*
X0638333Y0266400D02*
X0638335Y0266541D01*
X0638341Y0266682D01*
X0638351Y0266822D01*
X0638365Y0266962D01*
X0638383Y0267102D01*
X0638404Y0267241D01*
X0638430Y0267380D01*
X0638459Y0267518D01*
X0638493Y0267654D01*
X0638530Y0267790D01*
X0638571Y0267925D01*
X0638616Y0268059D01*
X0638665Y0268191D01*
X0638717Y0268322D01*
X0638773Y0268451D01*
X0638833Y0268578D01*
X0638896Y0268704D01*
X0638962Y0268828D01*
X0639033Y0268951D01*
X0639106Y0269071D01*
X0639183Y0269189D01*
X0639263Y0269305D01*
X0639347Y0269418D01*
X0639433Y0269529D01*
X0639523Y0269638D01*
X0639616Y0269744D01*
X0639711Y0269847D01*
X0639810Y0269948D01*
X0639911Y0270046D01*
X0640015Y0270141D01*
X0640122Y0270233D01*
X0640231Y0270322D01*
X0640343Y0270407D01*
X0640457Y0270490D01*
X0640573Y0270570D01*
X0640692Y0270646D01*
X0640813Y0270718D01*
X0640935Y0270788D01*
X0641060Y0270853D01*
X0641186Y0270916D01*
X0641314Y0270974D01*
X0641444Y0271029D01*
X0641575Y0271081D01*
X0641708Y0271128D01*
X0641842Y0271172D01*
X0641977Y0271213D01*
X0642113Y0271249D01*
X0642250Y0271281D01*
X0642388Y0271310D01*
X0642526Y0271335D01*
X0642666Y0271355D01*
X0642806Y0271372D01*
X0642946Y0271385D01*
X0643087Y0271394D01*
X0643227Y0271399D01*
X0643368Y0271400D01*
X0643509Y0271397D01*
X0643650Y0271390D01*
X0643790Y0271379D01*
X0643930Y0271364D01*
X0644070Y0271345D01*
X0644209Y0271323D01*
X0644347Y0271296D01*
X0644485Y0271266D01*
X0644621Y0271231D01*
X0644757Y0271193D01*
X0644891Y0271151D01*
X0645025Y0271105D01*
X0645157Y0271056D01*
X0645287Y0271002D01*
X0645416Y0270945D01*
X0645543Y0270885D01*
X0645669Y0270821D01*
X0645792Y0270753D01*
X0645914Y0270682D01*
X0646034Y0270608D01*
X0646151Y0270530D01*
X0646266Y0270449D01*
X0646379Y0270365D01*
X0646490Y0270278D01*
X0646598Y0270187D01*
X0646703Y0270094D01*
X0646806Y0269997D01*
X0646906Y0269898D01*
X0647003Y0269796D01*
X0647097Y0269691D01*
X0647188Y0269584D01*
X0647276Y0269474D01*
X0647361Y0269362D01*
X0647443Y0269247D01*
X0647522Y0269130D01*
X0647597Y0269011D01*
X0647669Y0268890D01*
X0647737Y0268767D01*
X0647802Y0268642D01*
X0647864Y0268515D01*
X0647921Y0268386D01*
X0647976Y0268256D01*
X0648026Y0268125D01*
X0648073Y0267992D01*
X0648116Y0267858D01*
X0648155Y0267722D01*
X0648190Y0267586D01*
X0648222Y0267449D01*
X0648249Y0267311D01*
X0648273Y0267172D01*
X0648293Y0267032D01*
X0648309Y0266892D01*
X0648321Y0266752D01*
X0648329Y0266611D01*
X0648333Y0266470D01*
X0648333Y0266330D01*
X0648329Y0266189D01*
X0648321Y0266048D01*
X0648309Y0265908D01*
X0648293Y0265768D01*
X0648273Y0265628D01*
X0648249Y0265489D01*
X0648222Y0265351D01*
X0648190Y0265214D01*
X0648155Y0265078D01*
X0648116Y0264942D01*
X0648073Y0264808D01*
X0648026Y0264675D01*
X0647976Y0264544D01*
X0647921Y0264414D01*
X0647864Y0264285D01*
X0647802Y0264158D01*
X0647737Y0264033D01*
X0647669Y0263910D01*
X0647597Y0263789D01*
X0647522Y0263670D01*
X0647443Y0263553D01*
X0647361Y0263438D01*
X0647276Y0263326D01*
X0647188Y0263216D01*
X0647097Y0263109D01*
X0647003Y0263004D01*
X0646906Y0262902D01*
X0646806Y0262803D01*
X0646703Y0262706D01*
X0646598Y0262613D01*
X0646490Y0262522D01*
X0646379Y0262435D01*
X0646266Y0262351D01*
X0646151Y0262270D01*
X0646034Y0262192D01*
X0645914Y0262118D01*
X0645792Y0262047D01*
X0645669Y0261979D01*
X0645543Y0261915D01*
X0645416Y0261855D01*
X0645287Y0261798D01*
X0645157Y0261744D01*
X0645025Y0261695D01*
X0644891Y0261649D01*
X0644757Y0261607D01*
X0644621Y0261569D01*
X0644485Y0261534D01*
X0644347Y0261504D01*
X0644209Y0261477D01*
X0644070Y0261455D01*
X0643930Y0261436D01*
X0643790Y0261421D01*
X0643650Y0261410D01*
X0643509Y0261403D01*
X0643368Y0261400D01*
X0643227Y0261401D01*
X0643087Y0261406D01*
X0642946Y0261415D01*
X0642806Y0261428D01*
X0642666Y0261445D01*
X0642526Y0261465D01*
X0642388Y0261490D01*
X0642250Y0261519D01*
X0642113Y0261551D01*
X0641977Y0261587D01*
X0641842Y0261628D01*
X0641708Y0261672D01*
X0641575Y0261719D01*
X0641444Y0261771D01*
X0641314Y0261826D01*
X0641186Y0261884D01*
X0641060Y0261947D01*
X0640935Y0262012D01*
X0640813Y0262082D01*
X0640692Y0262154D01*
X0640573Y0262230D01*
X0640457Y0262310D01*
X0640343Y0262393D01*
X0640231Y0262478D01*
X0640122Y0262567D01*
X0640015Y0262659D01*
X0639911Y0262754D01*
X0639810Y0262852D01*
X0639711Y0262953D01*
X0639616Y0263056D01*
X0639523Y0263162D01*
X0639433Y0263271D01*
X0639347Y0263382D01*
X0639263Y0263495D01*
X0639183Y0263611D01*
X0639106Y0263729D01*
X0639033Y0263849D01*
X0638962Y0263972D01*
X0638896Y0264096D01*
X0638833Y0264222D01*
X0638773Y0264349D01*
X0638717Y0264478D01*
X0638665Y0264609D01*
X0638616Y0264741D01*
X0638571Y0264875D01*
X0638530Y0265010D01*
X0638493Y0265146D01*
X0638459Y0265282D01*
X0638430Y0265420D01*
X0638404Y0265559D01*
X0638383Y0265698D01*
X0638365Y0265838D01*
X0638351Y0265978D01*
X0638341Y0266118D01*
X0638335Y0266259D01*
X0638333Y0266400D01*
X0637270Y0281400D02*
X0649396Y0281400D01*
X0653333Y0286518D02*
X0653333Y0296282D01*
X0649396Y0301400D02*
X0637270Y0301400D01*
X0633333Y0296400D02*
X0633333Y0286518D01*
X0638333Y0291400D02*
X0638335Y0291541D01*
X0638341Y0291682D01*
X0638351Y0291822D01*
X0638365Y0291962D01*
X0638383Y0292102D01*
X0638404Y0292241D01*
X0638430Y0292380D01*
X0638459Y0292518D01*
X0638493Y0292654D01*
X0638530Y0292790D01*
X0638571Y0292925D01*
X0638616Y0293059D01*
X0638665Y0293191D01*
X0638717Y0293322D01*
X0638773Y0293451D01*
X0638833Y0293578D01*
X0638896Y0293704D01*
X0638962Y0293828D01*
X0639033Y0293951D01*
X0639106Y0294071D01*
X0639183Y0294189D01*
X0639263Y0294305D01*
X0639347Y0294418D01*
X0639433Y0294529D01*
X0639523Y0294638D01*
X0639616Y0294744D01*
X0639711Y0294847D01*
X0639810Y0294948D01*
X0639911Y0295046D01*
X0640015Y0295141D01*
X0640122Y0295233D01*
X0640231Y0295322D01*
X0640343Y0295407D01*
X0640457Y0295490D01*
X0640573Y0295570D01*
X0640692Y0295646D01*
X0640813Y0295718D01*
X0640935Y0295788D01*
X0641060Y0295853D01*
X0641186Y0295916D01*
X0641314Y0295974D01*
X0641444Y0296029D01*
X0641575Y0296081D01*
X0641708Y0296128D01*
X0641842Y0296172D01*
X0641977Y0296213D01*
X0642113Y0296249D01*
X0642250Y0296281D01*
X0642388Y0296310D01*
X0642526Y0296335D01*
X0642666Y0296355D01*
X0642806Y0296372D01*
X0642946Y0296385D01*
X0643087Y0296394D01*
X0643227Y0296399D01*
X0643368Y0296400D01*
X0643509Y0296397D01*
X0643650Y0296390D01*
X0643790Y0296379D01*
X0643930Y0296364D01*
X0644070Y0296345D01*
X0644209Y0296323D01*
X0644347Y0296296D01*
X0644485Y0296266D01*
X0644621Y0296231D01*
X0644757Y0296193D01*
X0644891Y0296151D01*
X0645025Y0296105D01*
X0645157Y0296056D01*
X0645287Y0296002D01*
X0645416Y0295945D01*
X0645543Y0295885D01*
X0645669Y0295821D01*
X0645792Y0295753D01*
X0645914Y0295682D01*
X0646034Y0295608D01*
X0646151Y0295530D01*
X0646266Y0295449D01*
X0646379Y0295365D01*
X0646490Y0295278D01*
X0646598Y0295187D01*
X0646703Y0295094D01*
X0646806Y0294997D01*
X0646906Y0294898D01*
X0647003Y0294796D01*
X0647097Y0294691D01*
X0647188Y0294584D01*
X0647276Y0294474D01*
X0647361Y0294362D01*
X0647443Y0294247D01*
X0647522Y0294130D01*
X0647597Y0294011D01*
X0647669Y0293890D01*
X0647737Y0293767D01*
X0647802Y0293642D01*
X0647864Y0293515D01*
X0647921Y0293386D01*
X0647976Y0293256D01*
X0648026Y0293125D01*
X0648073Y0292992D01*
X0648116Y0292858D01*
X0648155Y0292722D01*
X0648190Y0292586D01*
X0648222Y0292449D01*
X0648249Y0292311D01*
X0648273Y0292172D01*
X0648293Y0292032D01*
X0648309Y0291892D01*
X0648321Y0291752D01*
X0648329Y0291611D01*
X0648333Y0291470D01*
X0648333Y0291330D01*
X0648329Y0291189D01*
X0648321Y0291048D01*
X0648309Y0290908D01*
X0648293Y0290768D01*
X0648273Y0290628D01*
X0648249Y0290489D01*
X0648222Y0290351D01*
X0648190Y0290214D01*
X0648155Y0290078D01*
X0648116Y0289942D01*
X0648073Y0289808D01*
X0648026Y0289675D01*
X0647976Y0289544D01*
X0647921Y0289414D01*
X0647864Y0289285D01*
X0647802Y0289158D01*
X0647737Y0289033D01*
X0647669Y0288910D01*
X0647597Y0288789D01*
X0647522Y0288670D01*
X0647443Y0288553D01*
X0647361Y0288438D01*
X0647276Y0288326D01*
X0647188Y0288216D01*
X0647097Y0288109D01*
X0647003Y0288004D01*
X0646906Y0287902D01*
X0646806Y0287803D01*
X0646703Y0287706D01*
X0646598Y0287613D01*
X0646490Y0287522D01*
X0646379Y0287435D01*
X0646266Y0287351D01*
X0646151Y0287270D01*
X0646034Y0287192D01*
X0645914Y0287118D01*
X0645792Y0287047D01*
X0645669Y0286979D01*
X0645543Y0286915D01*
X0645416Y0286855D01*
X0645287Y0286798D01*
X0645157Y0286744D01*
X0645025Y0286695D01*
X0644891Y0286649D01*
X0644757Y0286607D01*
X0644621Y0286569D01*
X0644485Y0286534D01*
X0644347Y0286504D01*
X0644209Y0286477D01*
X0644070Y0286455D01*
X0643930Y0286436D01*
X0643790Y0286421D01*
X0643650Y0286410D01*
X0643509Y0286403D01*
X0643368Y0286400D01*
X0643227Y0286401D01*
X0643087Y0286406D01*
X0642946Y0286415D01*
X0642806Y0286428D01*
X0642666Y0286445D01*
X0642526Y0286465D01*
X0642388Y0286490D01*
X0642250Y0286519D01*
X0642113Y0286551D01*
X0641977Y0286587D01*
X0641842Y0286628D01*
X0641708Y0286672D01*
X0641575Y0286719D01*
X0641444Y0286771D01*
X0641314Y0286826D01*
X0641186Y0286884D01*
X0641060Y0286947D01*
X0640935Y0287012D01*
X0640813Y0287082D01*
X0640692Y0287154D01*
X0640573Y0287230D01*
X0640457Y0287310D01*
X0640343Y0287393D01*
X0640231Y0287478D01*
X0640122Y0287567D01*
X0640015Y0287659D01*
X0639911Y0287754D01*
X0639810Y0287852D01*
X0639711Y0287953D01*
X0639616Y0288056D01*
X0639523Y0288162D01*
X0639433Y0288271D01*
X0639347Y0288382D01*
X0639263Y0288495D01*
X0639183Y0288611D01*
X0639106Y0288729D01*
X0639033Y0288849D01*
X0638962Y0288972D01*
X0638896Y0289096D01*
X0638833Y0289222D01*
X0638773Y0289349D01*
X0638717Y0289478D01*
X0638665Y0289609D01*
X0638616Y0289741D01*
X0638571Y0289875D01*
X0638530Y0290010D01*
X0638493Y0290146D01*
X0638459Y0290282D01*
X0638430Y0290420D01*
X0638404Y0290559D01*
X0638383Y0290698D01*
X0638365Y0290838D01*
X0638351Y0290978D01*
X0638341Y0291118D01*
X0638335Y0291259D01*
X0638333Y0291400D01*
X0504266Y0301743D02*
X0504266Y0274120D01*
X0504266Y0301743D02*
X0432400Y0301743D01*
X0432400Y0274120D01*
D16*
X0598457Y0183817D02*
X0598365Y0183553D01*
X0598333Y0183275D01*
X0598365Y0182997D01*
X0598457Y0182733D01*
X0598606Y0182496D01*
X0598804Y0182298D01*
X0599041Y0182149D01*
X0599305Y0182056D01*
X0599583Y0182025D01*
X0599861Y0182056D01*
X0600126Y0182149D01*
X0600363Y0182298D01*
X0600561Y0182496D01*
X0600710Y0182733D01*
X0600802Y0182997D01*
X0600833Y0183275D01*
X0600802Y0183553D01*
X0600710Y0183817D01*
X0600561Y0184054D01*
X0600363Y0184252D01*
X0600126Y0184401D01*
X0599861Y0184494D01*
X0599583Y0184525D01*
X0599305Y0184494D01*
X0599041Y0184401D01*
X0598804Y0184252D01*
X0598606Y0184054D01*
X0598457Y0183817D01*
X0598457Y0183816D02*
X0600710Y0183816D01*
X0600713Y0183808D02*
X0598454Y0183808D01*
X0598451Y0183799D02*
X0600716Y0183799D01*
X0600719Y0183791D02*
X0598448Y0183791D01*
X0598445Y0183782D02*
X0600722Y0183782D01*
X0600725Y0183774D02*
X0598442Y0183774D01*
X0598439Y0183765D02*
X0600728Y0183765D01*
X0600731Y0183757D02*
X0598436Y0183757D01*
X0598433Y0183748D02*
X0600734Y0183748D01*
X0600737Y0183740D02*
X0598430Y0183740D01*
X0598427Y0183731D02*
X0600740Y0183731D01*
X0600743Y0183723D02*
X0598424Y0183723D01*
X0598421Y0183714D02*
X0600746Y0183714D01*
X0600749Y0183706D02*
X0598418Y0183706D01*
X0598415Y0183697D02*
X0600752Y0183697D01*
X0600755Y0183689D02*
X0598412Y0183689D01*
X0598409Y0183680D02*
X0600758Y0183680D01*
X0600761Y0183672D02*
X0598406Y0183672D01*
X0598403Y0183663D02*
X0600764Y0183663D01*
X0600767Y0183654D02*
X0598400Y0183654D01*
X0598397Y0183646D02*
X0600770Y0183646D01*
X0600773Y0183637D02*
X0598394Y0183637D01*
X0598391Y0183629D02*
X0600775Y0183629D01*
X0600778Y0183620D02*
X0598388Y0183620D01*
X0598385Y0183612D02*
X0600781Y0183612D01*
X0600784Y0183603D02*
X0598382Y0183603D01*
X0598379Y0183595D02*
X0600787Y0183595D01*
X0600790Y0183586D02*
X0598376Y0183586D01*
X0598373Y0183578D02*
X0600793Y0183578D01*
X0600796Y0183569D02*
X0598370Y0183569D01*
X0598367Y0183561D02*
X0600799Y0183561D01*
X0600802Y0183552D02*
X0598365Y0183552D01*
X0598364Y0183544D02*
X0600803Y0183544D01*
X0600804Y0183535D02*
X0598363Y0183535D01*
X0598362Y0183527D02*
X0600805Y0183527D01*
X0600806Y0183518D02*
X0598361Y0183518D01*
X0598360Y0183510D02*
X0600807Y0183510D01*
X0600808Y0183501D02*
X0598359Y0183501D01*
X0598358Y0183493D02*
X0600809Y0183493D01*
X0600810Y0183484D02*
X0598357Y0183484D01*
X0598356Y0183476D02*
X0600811Y0183476D01*
X0600812Y0183467D02*
X0598355Y0183467D01*
X0598354Y0183459D02*
X0600813Y0183459D01*
X0600814Y0183450D02*
X0598353Y0183450D01*
X0598352Y0183442D02*
X0600815Y0183442D01*
X0600816Y0183433D02*
X0598351Y0183433D01*
X0598350Y0183425D02*
X0600816Y0183425D01*
X0600817Y0183416D02*
X0598349Y0183416D01*
X0598348Y0183408D02*
X0600818Y0183408D01*
X0600819Y0183399D02*
X0598347Y0183399D01*
X0598346Y0183391D02*
X0600820Y0183391D01*
X0600821Y0183382D02*
X0598345Y0183382D01*
X0598344Y0183374D02*
X0600822Y0183374D01*
X0600823Y0183365D02*
X0598343Y0183365D01*
X0598343Y0183356D02*
X0600824Y0183356D01*
X0600825Y0183348D02*
X0598342Y0183348D01*
X0598341Y0183339D02*
X0600826Y0183339D01*
X0600827Y0183331D02*
X0598340Y0183331D01*
X0598339Y0183322D02*
X0600828Y0183322D01*
X0600829Y0183314D02*
X0598338Y0183314D01*
X0598337Y0183305D02*
X0600830Y0183305D01*
X0600831Y0183297D02*
X0598336Y0183297D01*
X0598335Y0183288D02*
X0600832Y0183288D01*
X0600833Y0183280D02*
X0598334Y0183280D01*
X0598334Y0183271D02*
X0600833Y0183271D01*
X0600832Y0183263D02*
X0598335Y0183263D01*
X0598336Y0183254D02*
X0600831Y0183254D01*
X0600830Y0183246D02*
X0598337Y0183246D01*
X0598338Y0183237D02*
X0600829Y0183237D01*
X0600828Y0183229D02*
X0598339Y0183229D01*
X0598339Y0183220D02*
X0600827Y0183220D01*
X0600826Y0183212D02*
X0598340Y0183212D01*
X0598341Y0183203D02*
X0600825Y0183203D01*
X0600824Y0183195D02*
X0598342Y0183195D01*
X0598343Y0183186D02*
X0600823Y0183186D01*
X0600822Y0183178D02*
X0598344Y0183178D01*
X0598345Y0183169D02*
X0600821Y0183169D01*
X0600820Y0183161D02*
X0598346Y0183161D01*
X0598347Y0183152D02*
X0600819Y0183152D01*
X0600819Y0183144D02*
X0598348Y0183144D01*
X0598349Y0183135D02*
X0600818Y0183135D01*
X0600817Y0183127D02*
X0598350Y0183127D01*
X0598351Y0183118D02*
X0600816Y0183118D01*
X0600815Y0183110D02*
X0598352Y0183110D01*
X0598353Y0183101D02*
X0600814Y0183101D01*
X0600813Y0183093D02*
X0598354Y0183093D01*
X0598355Y0183084D02*
X0600812Y0183084D01*
X0600811Y0183076D02*
X0598356Y0183076D01*
X0598357Y0183067D02*
X0600810Y0183067D01*
X0600809Y0183059D02*
X0598358Y0183059D01*
X0598359Y0183050D02*
X0600808Y0183050D01*
X0600807Y0183041D02*
X0598360Y0183041D01*
X0598361Y0183033D02*
X0600806Y0183033D01*
X0600805Y0183024D02*
X0598362Y0183024D01*
X0598363Y0183016D02*
X0600804Y0183016D01*
X0600803Y0183007D02*
X0598363Y0183007D01*
X0598364Y0182999D02*
X0600802Y0182999D01*
X0600800Y0182990D02*
X0598367Y0182990D01*
X0598370Y0182982D02*
X0600797Y0182982D01*
X0600794Y0182973D02*
X0598373Y0182973D01*
X0598376Y0182965D02*
X0600791Y0182965D01*
X0600788Y0182956D02*
X0598379Y0182956D01*
X0598382Y0182948D02*
X0600785Y0182948D01*
X0600782Y0182939D02*
X0598385Y0182939D01*
X0598388Y0182931D02*
X0600779Y0182931D01*
X0600776Y0182922D02*
X0598391Y0182922D01*
X0598394Y0182914D02*
X0600773Y0182914D01*
X0600770Y0182905D02*
X0598397Y0182905D01*
X0598400Y0182897D02*
X0600767Y0182897D01*
X0600764Y0182888D02*
X0598403Y0182888D01*
X0598406Y0182880D02*
X0600761Y0182880D01*
X0600758Y0182871D02*
X0598409Y0182871D01*
X0598412Y0182863D02*
X0600755Y0182863D01*
X0600752Y0182854D02*
X0598415Y0182854D01*
X0598418Y0182846D02*
X0600749Y0182846D01*
X0600746Y0182837D02*
X0598421Y0182837D01*
X0598424Y0182829D02*
X0600743Y0182829D01*
X0600740Y0182820D02*
X0598427Y0182820D01*
X0598429Y0182812D02*
X0600737Y0182812D01*
X0600734Y0182803D02*
X0598432Y0182803D01*
X0598435Y0182795D02*
X0600731Y0182795D01*
X0600728Y0182786D02*
X0598438Y0182786D01*
X0598441Y0182778D02*
X0600725Y0182778D01*
X0600722Y0182769D02*
X0598444Y0182769D01*
X0598447Y0182761D02*
X0600719Y0182761D01*
X0600716Y0182752D02*
X0598450Y0182752D01*
X0598453Y0182744D02*
X0600713Y0182744D01*
X0600710Y0182735D02*
X0598456Y0182735D01*
X0598461Y0182726D02*
X0600706Y0182726D01*
X0600700Y0182718D02*
X0598466Y0182718D01*
X0598472Y0182709D02*
X0600695Y0182709D01*
X0600690Y0182701D02*
X0598477Y0182701D01*
X0598482Y0182692D02*
X0600684Y0182692D01*
X0600679Y0182684D02*
X0598488Y0182684D01*
X0598493Y0182675D02*
X0600674Y0182675D01*
X0600668Y0182667D02*
X0598498Y0182667D01*
X0598504Y0182658D02*
X0600663Y0182658D01*
X0600658Y0182650D02*
X0598509Y0182650D01*
X0598514Y0182641D02*
X0600652Y0182641D01*
X0600647Y0182633D02*
X0598520Y0182633D01*
X0598525Y0182624D02*
X0600641Y0182624D01*
X0600636Y0182616D02*
X0598531Y0182616D01*
X0598536Y0182607D02*
X0600631Y0182607D01*
X0600625Y0182599D02*
X0598541Y0182599D01*
X0598547Y0182590D02*
X0600620Y0182590D01*
X0600615Y0182582D02*
X0598552Y0182582D01*
X0598557Y0182573D02*
X0600609Y0182573D01*
X0600604Y0182565D02*
X0598563Y0182565D01*
X0598568Y0182556D02*
X0600599Y0182556D01*
X0600593Y0182548D02*
X0598573Y0182548D01*
X0598579Y0182539D02*
X0600588Y0182539D01*
X0600583Y0182531D02*
X0598584Y0182531D01*
X0598589Y0182522D02*
X0600577Y0182522D01*
X0600572Y0182514D02*
X0598595Y0182514D01*
X0598600Y0182505D02*
X0600567Y0182505D01*
X0600561Y0182497D02*
X0598605Y0182497D01*
X0598614Y0182488D02*
X0600553Y0182488D01*
X0600545Y0182480D02*
X0598622Y0182480D01*
X0598631Y0182471D02*
X0600536Y0182471D01*
X0600528Y0182463D02*
X0598639Y0182463D01*
X0598648Y0182454D02*
X0600519Y0182454D01*
X0600511Y0182446D02*
X0598656Y0182446D01*
X0598665Y0182437D02*
X0600502Y0182437D01*
X0600493Y0182428D02*
X0598673Y0182428D01*
X0598682Y0182420D02*
X0600485Y0182420D01*
X0600476Y0182411D02*
X0598690Y0182411D01*
X0598699Y0182403D02*
X0600468Y0182403D01*
X0600459Y0182394D02*
X0598707Y0182394D01*
X0598716Y0182386D02*
X0600451Y0182386D01*
X0600442Y0182377D02*
X0598724Y0182377D01*
X0598733Y0182369D02*
X0600434Y0182369D01*
X0600425Y0182360D02*
X0598741Y0182360D01*
X0598750Y0182352D02*
X0600417Y0182352D01*
X0600408Y0182343D02*
X0598758Y0182343D01*
X0598767Y0182335D02*
X0600400Y0182335D01*
X0600391Y0182326D02*
X0598775Y0182326D01*
X0598784Y0182318D02*
X0600383Y0182318D01*
X0600374Y0182309D02*
X0598792Y0182309D01*
X0598801Y0182301D02*
X0600366Y0182301D01*
X0600354Y0182292D02*
X0598813Y0182292D01*
X0598826Y0182284D02*
X0600340Y0182284D01*
X0600327Y0182275D02*
X0598840Y0182275D01*
X0598853Y0182267D02*
X0600313Y0182267D01*
X0600300Y0182258D02*
X0598867Y0182258D01*
X0598880Y0182250D02*
X0600286Y0182250D01*
X0600273Y0182241D02*
X0598894Y0182241D01*
X0598907Y0182233D02*
X0600259Y0182233D01*
X0600246Y0182224D02*
X0598921Y0182224D01*
X0598935Y0182216D02*
X0600232Y0182216D01*
X0600219Y0182207D02*
X0598948Y0182207D01*
X0598962Y0182199D02*
X0600205Y0182199D01*
X0600191Y0182190D02*
X0598975Y0182190D01*
X0598989Y0182182D02*
X0600178Y0182182D01*
X0600164Y0182173D02*
X0599002Y0182173D01*
X0599016Y0182165D02*
X0600151Y0182165D01*
X0600137Y0182156D02*
X0599029Y0182156D01*
X0599045Y0182148D02*
X0600122Y0182148D01*
X0600098Y0182139D02*
X0599069Y0182139D01*
X0599093Y0182131D02*
X0600073Y0182131D01*
X0600049Y0182122D02*
X0599118Y0182122D01*
X0599142Y0182113D02*
X0600025Y0182113D01*
X0600000Y0182105D02*
X0599166Y0182105D01*
X0599191Y0182096D02*
X0599976Y0182096D01*
X0599952Y0182088D02*
X0599215Y0182088D01*
X0599239Y0182079D02*
X0599927Y0182079D01*
X0599903Y0182071D02*
X0599264Y0182071D01*
X0599288Y0182062D02*
X0599879Y0182062D01*
X0599840Y0182054D02*
X0599327Y0182054D01*
X0599402Y0182045D02*
X0599764Y0182045D01*
X0599689Y0182037D02*
X0599478Y0182037D01*
X0599554Y0182028D02*
X0599613Y0182028D01*
X0600705Y0183825D02*
X0598462Y0183825D01*
X0598467Y0183833D02*
X0600700Y0183833D01*
X0600694Y0183842D02*
X0598472Y0183842D01*
X0598478Y0183850D02*
X0600689Y0183850D01*
X0600684Y0183859D02*
X0598483Y0183859D01*
X0598489Y0183867D02*
X0600678Y0183867D01*
X0600673Y0183876D02*
X0598494Y0183876D01*
X0598499Y0183884D02*
X0600667Y0183884D01*
X0600662Y0183893D02*
X0598505Y0183893D01*
X0598510Y0183901D02*
X0600657Y0183901D01*
X0600651Y0183910D02*
X0598515Y0183910D01*
X0598521Y0183918D02*
X0600646Y0183918D01*
X0600641Y0183927D02*
X0598526Y0183927D01*
X0598531Y0183935D02*
X0600635Y0183935D01*
X0600630Y0183944D02*
X0598537Y0183944D01*
X0598542Y0183952D02*
X0600625Y0183952D01*
X0600619Y0183961D02*
X0598547Y0183961D01*
X0598553Y0183969D02*
X0600614Y0183969D01*
X0600609Y0183978D02*
X0598558Y0183978D01*
X0598563Y0183987D02*
X0600603Y0183987D01*
X0600598Y0183995D02*
X0598569Y0183995D01*
X0598574Y0184004D02*
X0600593Y0184004D01*
X0600587Y0184012D02*
X0598579Y0184012D01*
X0598585Y0184021D02*
X0600582Y0184021D01*
X0600577Y0184029D02*
X0598590Y0184029D01*
X0598596Y0184038D02*
X0600571Y0184038D01*
X0600566Y0184046D02*
X0598601Y0184046D01*
X0598606Y0184055D02*
X0600560Y0184055D01*
X0600552Y0184063D02*
X0598615Y0184063D01*
X0598623Y0184072D02*
X0600543Y0184072D01*
X0600535Y0184080D02*
X0598632Y0184080D01*
X0598640Y0184089D02*
X0600526Y0184089D01*
X0600518Y0184097D02*
X0598649Y0184097D01*
X0598657Y0184106D02*
X0600509Y0184106D01*
X0600501Y0184114D02*
X0598666Y0184114D01*
X0598674Y0184123D02*
X0600492Y0184123D01*
X0600484Y0184131D02*
X0598683Y0184131D01*
X0598691Y0184140D02*
X0600475Y0184140D01*
X0600467Y0184148D02*
X0598700Y0184148D01*
X0598708Y0184157D02*
X0600458Y0184157D01*
X0600450Y0184165D02*
X0598717Y0184165D01*
X0598725Y0184174D02*
X0600441Y0184174D01*
X0600433Y0184182D02*
X0598734Y0184182D01*
X0598743Y0184191D02*
X0600424Y0184191D01*
X0600416Y0184199D02*
X0598751Y0184199D01*
X0598760Y0184208D02*
X0600407Y0184208D01*
X0600399Y0184216D02*
X0598768Y0184216D01*
X0598777Y0184225D02*
X0600390Y0184225D01*
X0600382Y0184233D02*
X0598785Y0184233D01*
X0598794Y0184242D02*
X0600373Y0184242D01*
X0600365Y0184250D02*
X0598802Y0184250D01*
X0598815Y0184259D02*
X0600352Y0184259D01*
X0600339Y0184267D02*
X0598828Y0184267D01*
X0598842Y0184276D02*
X0600325Y0184276D01*
X0600311Y0184284D02*
X0598855Y0184284D01*
X0598869Y0184293D02*
X0600298Y0184293D01*
X0600284Y0184302D02*
X0598882Y0184302D01*
X0598896Y0184310D02*
X0600271Y0184310D01*
X0600257Y0184319D02*
X0598909Y0184319D01*
X0598923Y0184327D02*
X0600244Y0184327D01*
X0600230Y0184336D02*
X0598937Y0184336D01*
X0598950Y0184344D02*
X0600217Y0184344D01*
X0600203Y0184353D02*
X0598964Y0184353D01*
X0598977Y0184361D02*
X0600189Y0184361D01*
X0600176Y0184370D02*
X0598991Y0184370D01*
X0599004Y0184378D02*
X0600162Y0184378D01*
X0600149Y0184387D02*
X0599018Y0184387D01*
X0599031Y0184395D02*
X0600135Y0184395D01*
X0600119Y0184404D02*
X0599048Y0184404D01*
X0599072Y0184412D02*
X0600094Y0184412D01*
X0600070Y0184421D02*
X0599097Y0184421D01*
X0599121Y0184429D02*
X0600046Y0184429D01*
X0600021Y0184438D02*
X0599145Y0184438D01*
X0599170Y0184446D02*
X0599997Y0184446D01*
X0599973Y0184455D02*
X0599194Y0184455D01*
X0599218Y0184463D02*
X0599948Y0184463D01*
X0599924Y0184472D02*
X0599243Y0184472D01*
X0599267Y0184480D02*
X0599900Y0184480D01*
X0599875Y0184489D02*
X0599291Y0184489D01*
X0599338Y0184497D02*
X0599829Y0184497D01*
X0599753Y0184506D02*
X0599413Y0184506D01*
X0599489Y0184514D02*
X0599678Y0184514D01*
X0599602Y0184523D02*
X0599565Y0184523D01*
X0599583Y0124525D02*
X0599861Y0124494D01*
X0600126Y0124401D01*
X0600363Y0124252D01*
X0600561Y0124054D01*
X0600710Y0123817D01*
X0600802Y0123553D01*
X0600833Y0123275D01*
X0600802Y0122997D01*
X0600710Y0122733D01*
X0600561Y0122496D01*
X0600363Y0122298D01*
X0600126Y0122149D01*
X0599861Y0122056D01*
X0599583Y0122025D01*
X0599305Y0122056D01*
X0599041Y0122149D01*
X0598804Y0122298D01*
X0598606Y0122496D01*
X0598457Y0122733D01*
X0598365Y0122997D01*
X0598333Y0123275D01*
X0598365Y0123553D01*
X0598457Y0123817D01*
X0598606Y0124054D01*
X0598804Y0124252D01*
X0599041Y0124401D01*
X0599305Y0124494D01*
X0599583Y0124525D01*
X0599519Y0124518D02*
X0599648Y0124518D01*
X0599723Y0124509D02*
X0599444Y0124509D01*
X0599368Y0124501D02*
X0599799Y0124501D01*
X0599866Y0124492D02*
X0599301Y0124492D01*
X0599277Y0124484D02*
X0599890Y0124484D01*
X0599914Y0124475D02*
X0599252Y0124475D01*
X0599228Y0124467D02*
X0599939Y0124467D01*
X0599963Y0124458D02*
X0599204Y0124458D01*
X0599179Y0124450D02*
X0599987Y0124450D01*
X0600012Y0124441D02*
X0599155Y0124441D01*
X0599131Y0124433D02*
X0600036Y0124433D01*
X0600060Y0124424D02*
X0599106Y0124424D01*
X0599082Y0124416D02*
X0600085Y0124416D01*
X0600109Y0124407D02*
X0599058Y0124407D01*
X0599037Y0124399D02*
X0600130Y0124399D01*
X0600143Y0124390D02*
X0599023Y0124390D01*
X0599010Y0124382D02*
X0600157Y0124382D01*
X0600171Y0124373D02*
X0598996Y0124373D01*
X0598983Y0124365D02*
X0600184Y0124365D01*
X0600198Y0124356D02*
X0598969Y0124356D01*
X0598955Y0124347D02*
X0600211Y0124347D01*
X0600225Y0124339D02*
X0598942Y0124339D01*
X0598928Y0124330D02*
X0600238Y0124330D01*
X0600252Y0124322D02*
X0598915Y0124322D01*
X0598901Y0124313D02*
X0600265Y0124313D01*
X0600279Y0124305D02*
X0598888Y0124305D01*
X0598874Y0124296D02*
X0600292Y0124296D01*
X0600306Y0124288D02*
X0598861Y0124288D01*
X0598847Y0124279D02*
X0600320Y0124279D01*
X0600333Y0124271D02*
X0598834Y0124271D01*
X0598820Y0124262D02*
X0600347Y0124262D01*
X0600360Y0124254D02*
X0598806Y0124254D01*
X0598797Y0124245D02*
X0600370Y0124245D01*
X0600378Y0124237D02*
X0598788Y0124237D01*
X0598780Y0124228D02*
X0600387Y0124228D01*
X0600395Y0124220D02*
X0598771Y0124220D01*
X0598763Y0124211D02*
X0600404Y0124211D01*
X0600412Y0124203D02*
X0598754Y0124203D01*
X0598746Y0124194D02*
X0600421Y0124194D01*
X0600429Y0124186D02*
X0598737Y0124186D01*
X0598729Y0124177D02*
X0600438Y0124177D01*
X0600446Y0124169D02*
X0598720Y0124169D01*
X0598712Y0124160D02*
X0600455Y0124160D01*
X0600463Y0124152D02*
X0598703Y0124152D01*
X0598695Y0124143D02*
X0600472Y0124143D01*
X0600480Y0124135D02*
X0598686Y0124135D01*
X0598678Y0124126D02*
X0600489Y0124126D01*
X0600497Y0124118D02*
X0598669Y0124118D01*
X0598661Y0124109D02*
X0600506Y0124109D01*
X0600514Y0124101D02*
X0598652Y0124101D01*
X0598644Y0124092D02*
X0600523Y0124092D01*
X0600531Y0124084D02*
X0598635Y0124084D01*
X0598627Y0124075D02*
X0600540Y0124075D01*
X0600548Y0124067D02*
X0598618Y0124067D01*
X0598610Y0124058D02*
X0600557Y0124058D01*
X0600564Y0124050D02*
X0598603Y0124050D01*
X0598598Y0124041D02*
X0600569Y0124041D01*
X0600574Y0124032D02*
X0598592Y0124032D01*
X0598587Y0124024D02*
X0600580Y0124024D01*
X0600585Y0124015D02*
X0598582Y0124015D01*
X0598576Y0124007D02*
X0600590Y0124007D01*
X0600596Y0123998D02*
X0598571Y0123998D01*
X0598566Y0123990D02*
X0600601Y0123990D01*
X0600606Y0123981D02*
X0598560Y0123981D01*
X0598555Y0123973D02*
X0600612Y0123973D01*
X0600617Y0123964D02*
X0598549Y0123964D01*
X0598544Y0123956D02*
X0600623Y0123956D01*
X0600628Y0123947D02*
X0598539Y0123947D01*
X0598533Y0123939D02*
X0600633Y0123939D01*
X0600639Y0123930D02*
X0598528Y0123930D01*
X0598523Y0123922D02*
X0600644Y0123922D01*
X0600649Y0123913D02*
X0598517Y0123913D01*
X0598512Y0123905D02*
X0600655Y0123905D01*
X0600660Y0123896D02*
X0598507Y0123896D01*
X0598501Y0123888D02*
X0600665Y0123888D01*
X0600671Y0123879D02*
X0598496Y0123879D01*
X0598491Y0123871D02*
X0600676Y0123871D01*
X0600681Y0123862D02*
X0598485Y0123862D01*
X0598480Y0123854D02*
X0600687Y0123854D01*
X0600692Y0123845D02*
X0598475Y0123845D01*
X0598469Y0123837D02*
X0600697Y0123837D01*
X0600703Y0123828D02*
X0598464Y0123828D01*
X0598459Y0123820D02*
X0600708Y0123820D01*
X0600712Y0123811D02*
X0598455Y0123811D01*
X0598452Y0123803D02*
X0600715Y0123803D01*
X0600718Y0123794D02*
X0598449Y0123794D01*
X0598446Y0123786D02*
X0600721Y0123786D01*
X0600724Y0123777D02*
X0598443Y0123777D01*
X0598440Y0123769D02*
X0600727Y0123769D01*
X0600730Y0123760D02*
X0598437Y0123760D01*
X0598434Y0123752D02*
X0600733Y0123752D01*
X0600736Y0123743D02*
X0598431Y0123743D01*
X0598428Y0123734D02*
X0600739Y0123734D01*
X0600742Y0123726D02*
X0598425Y0123726D01*
X0598422Y0123717D02*
X0600745Y0123717D01*
X0600747Y0123709D02*
X0598419Y0123709D01*
X0598416Y0123700D02*
X0600750Y0123700D01*
X0600753Y0123692D02*
X0598413Y0123692D01*
X0598410Y0123683D02*
X0600756Y0123683D01*
X0600759Y0123675D02*
X0598407Y0123675D01*
X0598404Y0123666D02*
X0600762Y0123666D01*
X0600765Y0123658D02*
X0598401Y0123658D01*
X0598398Y0123649D02*
X0600768Y0123649D01*
X0600771Y0123641D02*
X0598395Y0123641D01*
X0598392Y0123632D02*
X0600774Y0123632D01*
X0600777Y0123624D02*
X0598389Y0123624D01*
X0598386Y0123615D02*
X0600780Y0123615D01*
X0600783Y0123607D02*
X0598383Y0123607D01*
X0598380Y0123598D02*
X0600786Y0123598D01*
X0600789Y0123590D02*
X0598377Y0123590D01*
X0598375Y0123581D02*
X0600792Y0123581D01*
X0600795Y0123573D02*
X0598372Y0123573D01*
X0598369Y0123564D02*
X0600798Y0123564D01*
X0600801Y0123556D02*
X0598366Y0123556D01*
X0598364Y0123547D02*
X0600803Y0123547D01*
X0600804Y0123539D02*
X0598363Y0123539D01*
X0598362Y0123530D02*
X0600805Y0123530D01*
X0600806Y0123522D02*
X0598361Y0123522D01*
X0598360Y0123513D02*
X0600807Y0123513D01*
X0600807Y0123505D02*
X0598359Y0123505D01*
X0598358Y0123496D02*
X0600808Y0123496D01*
X0600809Y0123488D02*
X0598357Y0123488D01*
X0598356Y0123479D02*
X0600810Y0123479D01*
X0600811Y0123471D02*
X0598355Y0123471D01*
X0598354Y0123462D02*
X0600812Y0123462D01*
X0600813Y0123454D02*
X0598353Y0123454D01*
X0598352Y0123445D02*
X0600814Y0123445D01*
X0600815Y0123437D02*
X0598352Y0123437D01*
X0598351Y0123428D02*
X0600816Y0123428D01*
X0600817Y0123419D02*
X0598350Y0123419D01*
X0598349Y0123411D02*
X0600818Y0123411D01*
X0600819Y0123402D02*
X0598348Y0123402D01*
X0598347Y0123394D02*
X0600820Y0123394D01*
X0600821Y0123385D02*
X0598346Y0123385D01*
X0598345Y0123377D02*
X0600822Y0123377D01*
X0600823Y0123368D02*
X0598344Y0123368D01*
X0598343Y0123360D02*
X0600824Y0123360D01*
X0600825Y0123351D02*
X0598342Y0123351D01*
X0598341Y0123343D02*
X0600826Y0123343D01*
X0600827Y0123334D02*
X0598340Y0123334D01*
X0598339Y0123326D02*
X0600828Y0123326D01*
X0600829Y0123317D02*
X0598338Y0123317D01*
X0598337Y0123309D02*
X0600830Y0123309D01*
X0600830Y0123300D02*
X0598336Y0123300D01*
X0598335Y0123292D02*
X0600831Y0123292D01*
X0600832Y0123283D02*
X0598334Y0123283D01*
X0598333Y0123275D02*
X0600833Y0123275D01*
X0600832Y0123266D02*
X0598334Y0123266D01*
X0598335Y0123258D02*
X0600831Y0123258D01*
X0600830Y0123249D02*
X0598336Y0123249D01*
X0598337Y0123241D02*
X0600829Y0123241D01*
X0600828Y0123232D02*
X0598338Y0123232D01*
X0598339Y0123224D02*
X0600828Y0123224D01*
X0600827Y0123215D02*
X0598340Y0123215D01*
X0598341Y0123207D02*
X0600826Y0123207D01*
X0600825Y0123198D02*
X0598342Y0123198D01*
X0598343Y0123190D02*
X0600824Y0123190D01*
X0600823Y0123181D02*
X0598344Y0123181D01*
X0598345Y0123173D02*
X0600822Y0123173D01*
X0600821Y0123164D02*
X0598346Y0123164D01*
X0598347Y0123156D02*
X0600820Y0123156D01*
X0600819Y0123147D02*
X0598348Y0123147D01*
X0598349Y0123139D02*
X0600818Y0123139D01*
X0600817Y0123130D02*
X0598350Y0123130D01*
X0598351Y0123122D02*
X0600816Y0123122D01*
X0600815Y0123113D02*
X0598352Y0123113D01*
X0598353Y0123104D02*
X0600814Y0123104D01*
X0600813Y0123096D02*
X0598353Y0123096D01*
X0598354Y0123087D02*
X0600812Y0123087D01*
X0600811Y0123079D02*
X0598355Y0123079D01*
X0598356Y0123070D02*
X0600810Y0123070D01*
X0600809Y0123062D02*
X0598357Y0123062D01*
X0598358Y0123053D02*
X0600808Y0123053D01*
X0600807Y0123045D02*
X0598359Y0123045D01*
X0598360Y0123036D02*
X0600806Y0123036D01*
X0600805Y0123028D02*
X0598361Y0123028D01*
X0598362Y0123019D02*
X0600805Y0123019D01*
X0600804Y0123011D02*
X0598363Y0123011D01*
X0598364Y0123002D02*
X0600803Y0123002D01*
X0600801Y0122994D02*
X0598366Y0122994D01*
X0598369Y0122985D02*
X0600798Y0122985D01*
X0600795Y0122977D02*
X0598372Y0122977D01*
X0598375Y0122968D02*
X0600792Y0122968D01*
X0600789Y0122960D02*
X0598378Y0122960D01*
X0598381Y0122951D02*
X0600786Y0122951D01*
X0600783Y0122943D02*
X0598384Y0122943D01*
X0598387Y0122934D02*
X0600780Y0122934D01*
X0600777Y0122926D02*
X0598390Y0122926D01*
X0598393Y0122917D02*
X0600774Y0122917D01*
X0600771Y0122909D02*
X0598396Y0122909D01*
X0598398Y0122900D02*
X0600768Y0122900D01*
X0600765Y0122892D02*
X0598401Y0122892D01*
X0598404Y0122883D02*
X0600762Y0122883D01*
X0600759Y0122875D02*
X0598407Y0122875D01*
X0598410Y0122866D02*
X0600756Y0122866D01*
X0600753Y0122858D02*
X0598413Y0122858D01*
X0598416Y0122849D02*
X0600750Y0122849D01*
X0600747Y0122841D02*
X0598419Y0122841D01*
X0598422Y0122832D02*
X0600744Y0122832D01*
X0600741Y0122824D02*
X0598425Y0122824D01*
X0598428Y0122815D02*
X0600738Y0122815D01*
X0600735Y0122806D02*
X0598431Y0122806D01*
X0598434Y0122798D02*
X0600732Y0122798D01*
X0600729Y0122789D02*
X0598437Y0122789D01*
X0598440Y0122781D02*
X0600726Y0122781D01*
X0600723Y0122772D02*
X0598443Y0122772D01*
X0598446Y0122764D02*
X0600720Y0122764D01*
X0600717Y0122755D02*
X0598449Y0122755D01*
X0598452Y0122747D02*
X0600715Y0122747D01*
X0600712Y0122738D02*
X0598455Y0122738D01*
X0598459Y0122730D02*
X0600708Y0122730D01*
X0600702Y0122721D02*
X0598464Y0122721D01*
X0598470Y0122713D02*
X0600697Y0122713D01*
X0600692Y0122704D02*
X0598475Y0122704D01*
X0598480Y0122696D02*
X0600686Y0122696D01*
X0600681Y0122687D02*
X0598486Y0122687D01*
X0598491Y0122679D02*
X0600676Y0122679D01*
X0600670Y0122670D02*
X0598496Y0122670D01*
X0598502Y0122662D02*
X0600665Y0122662D01*
X0600660Y0122653D02*
X0598507Y0122653D01*
X0598512Y0122645D02*
X0600654Y0122645D01*
X0600649Y0122636D02*
X0598518Y0122636D01*
X0598523Y0122628D02*
X0600644Y0122628D01*
X0600638Y0122619D02*
X0598528Y0122619D01*
X0598534Y0122611D02*
X0600633Y0122611D01*
X0600628Y0122602D02*
X0598539Y0122602D01*
X0598544Y0122594D02*
X0600622Y0122594D01*
X0600617Y0122585D02*
X0598550Y0122585D01*
X0598555Y0122577D02*
X0600612Y0122577D01*
X0600606Y0122568D02*
X0598560Y0122568D01*
X0598566Y0122560D02*
X0600601Y0122560D01*
X0600595Y0122551D02*
X0598571Y0122551D01*
X0598577Y0122543D02*
X0600590Y0122543D01*
X0600585Y0122534D02*
X0598582Y0122534D01*
X0598587Y0122526D02*
X0600579Y0122526D01*
X0600574Y0122517D02*
X0598593Y0122517D01*
X0598598Y0122509D02*
X0600569Y0122509D01*
X0600563Y0122500D02*
X0598603Y0122500D01*
X0598610Y0122491D02*
X0600556Y0122491D01*
X0600548Y0122483D02*
X0598619Y0122483D01*
X0598627Y0122474D02*
X0600539Y0122474D01*
X0600531Y0122466D02*
X0598636Y0122466D01*
X0598644Y0122457D02*
X0600522Y0122457D01*
X0600514Y0122449D02*
X0598653Y0122449D01*
X0598661Y0122440D02*
X0600505Y0122440D01*
X0600497Y0122432D02*
X0598670Y0122432D01*
X0598678Y0122423D02*
X0600488Y0122423D01*
X0600480Y0122415D02*
X0598687Y0122415D01*
X0598695Y0122406D02*
X0600471Y0122406D01*
X0600463Y0122398D02*
X0598704Y0122398D01*
X0598712Y0122389D02*
X0600454Y0122389D01*
X0600446Y0122381D02*
X0598721Y0122381D01*
X0598729Y0122372D02*
X0600437Y0122372D01*
X0600429Y0122364D02*
X0598738Y0122364D01*
X0598746Y0122355D02*
X0600420Y0122355D01*
X0600412Y0122347D02*
X0598755Y0122347D01*
X0598763Y0122338D02*
X0600403Y0122338D01*
X0600395Y0122330D02*
X0598772Y0122330D01*
X0598780Y0122321D02*
X0600386Y0122321D01*
X0600378Y0122313D02*
X0598789Y0122313D01*
X0598797Y0122304D02*
X0600369Y0122304D01*
X0600359Y0122296D02*
X0598807Y0122296D01*
X0598821Y0122287D02*
X0600346Y0122287D01*
X0600332Y0122279D02*
X0598834Y0122279D01*
X0598848Y0122270D02*
X0600319Y0122270D01*
X0600305Y0122262D02*
X0598861Y0122262D01*
X0598875Y0122253D02*
X0600292Y0122253D01*
X0600278Y0122245D02*
X0598889Y0122245D01*
X0598902Y0122236D02*
X0600265Y0122236D01*
X0600251Y0122228D02*
X0598916Y0122228D01*
X0598929Y0122219D02*
X0600237Y0122219D01*
X0600224Y0122211D02*
X0598943Y0122211D01*
X0598956Y0122202D02*
X0600210Y0122202D01*
X0600197Y0122194D02*
X0598970Y0122194D01*
X0598983Y0122185D02*
X0600183Y0122185D01*
X0600170Y0122176D02*
X0598997Y0122176D01*
X0599010Y0122168D02*
X0600156Y0122168D01*
X0600143Y0122159D02*
X0599024Y0122159D01*
X0599038Y0122151D02*
X0600129Y0122151D01*
X0600107Y0122142D02*
X0599059Y0122142D01*
X0599084Y0122134D02*
X0600083Y0122134D01*
X0600059Y0122125D02*
X0599108Y0122125D01*
X0599132Y0122117D02*
X0600034Y0122117D01*
X0600010Y0122108D02*
X0599156Y0122108D01*
X0599181Y0122100D02*
X0599986Y0122100D01*
X0599961Y0122091D02*
X0599205Y0122091D01*
X0599229Y0122083D02*
X0599937Y0122083D01*
X0599913Y0122074D02*
X0599254Y0122074D01*
X0599278Y0122066D02*
X0599889Y0122066D01*
X0599864Y0122057D02*
X0599302Y0122057D01*
X0599372Y0122049D02*
X0599794Y0122049D01*
X0599719Y0122040D02*
X0599448Y0122040D01*
X0599523Y0122032D02*
X0599643Y0122032D01*
D17*
X0598233Y0237413D02*
X0598233Y0255387D01*
X0578433Y0255387D02*
X0578433Y0237413D01*
X0580133Y0241600D02*
X0580135Y0241684D01*
X0580141Y0241769D01*
X0580151Y0241852D01*
X0580165Y0241936D01*
X0580182Y0242018D01*
X0580204Y0242100D01*
X0580229Y0242180D01*
X0580258Y0242259D01*
X0580291Y0242337D01*
X0580327Y0242413D01*
X0580367Y0242488D01*
X0580411Y0242560D01*
X0580457Y0242631D01*
X0580507Y0242699D01*
X0580560Y0242764D01*
X0580616Y0242827D01*
X0580675Y0242888D01*
X0580737Y0242945D01*
X0580801Y0243000D01*
X0580868Y0243051D01*
X0580937Y0243100D01*
X0581009Y0243145D01*
X0581082Y0243186D01*
X0581157Y0243224D01*
X0581234Y0243259D01*
X0581313Y0243290D01*
X0581393Y0243317D01*
X0581474Y0243340D01*
X0581556Y0243360D01*
X0581639Y0243376D01*
X0581722Y0243388D01*
X0581807Y0243396D01*
X0581891Y0243400D01*
X0581975Y0243400D01*
X0582059Y0243396D01*
X0582144Y0243388D01*
X0582227Y0243376D01*
X0582310Y0243360D01*
X0582392Y0243340D01*
X0582473Y0243317D01*
X0582553Y0243290D01*
X0582632Y0243259D01*
X0582709Y0243224D01*
X0582784Y0243186D01*
X0582857Y0243145D01*
X0582929Y0243100D01*
X0582998Y0243051D01*
X0583065Y0243000D01*
X0583129Y0242945D01*
X0583191Y0242888D01*
X0583250Y0242827D01*
X0583306Y0242764D01*
X0583359Y0242699D01*
X0583409Y0242631D01*
X0583455Y0242560D01*
X0583499Y0242488D01*
X0583539Y0242413D01*
X0583575Y0242337D01*
X0583608Y0242259D01*
X0583637Y0242180D01*
X0583662Y0242100D01*
X0583684Y0242018D01*
X0583701Y0241936D01*
X0583715Y0241852D01*
X0583725Y0241769D01*
X0583731Y0241684D01*
X0583733Y0241600D01*
X0583731Y0241516D01*
X0583725Y0241431D01*
X0583715Y0241348D01*
X0583701Y0241264D01*
X0583684Y0241182D01*
X0583662Y0241100D01*
X0583637Y0241020D01*
X0583608Y0240941D01*
X0583575Y0240863D01*
X0583539Y0240787D01*
X0583499Y0240712D01*
X0583455Y0240640D01*
X0583409Y0240569D01*
X0583359Y0240501D01*
X0583306Y0240436D01*
X0583250Y0240373D01*
X0583191Y0240312D01*
X0583129Y0240255D01*
X0583065Y0240200D01*
X0582998Y0240149D01*
X0582929Y0240100D01*
X0582857Y0240055D01*
X0582784Y0240014D01*
X0582709Y0239976D01*
X0582632Y0239941D01*
X0582553Y0239910D01*
X0582473Y0239883D01*
X0582392Y0239860D01*
X0582310Y0239840D01*
X0582227Y0239824D01*
X0582144Y0239812D01*
X0582059Y0239804D01*
X0581975Y0239800D01*
X0581891Y0239800D01*
X0581807Y0239804D01*
X0581722Y0239812D01*
X0581639Y0239824D01*
X0581556Y0239840D01*
X0581474Y0239860D01*
X0581393Y0239883D01*
X0581313Y0239910D01*
X0581234Y0239941D01*
X0581157Y0239976D01*
X0581082Y0240014D01*
X0581009Y0240055D01*
X0580937Y0240100D01*
X0580868Y0240149D01*
X0580801Y0240200D01*
X0580737Y0240255D01*
X0580675Y0240312D01*
X0580616Y0240373D01*
X0580560Y0240436D01*
X0580507Y0240501D01*
X0580457Y0240569D01*
X0580411Y0240640D01*
X0580367Y0240712D01*
X0580327Y0240787D01*
X0580291Y0240863D01*
X0580258Y0240941D01*
X0580229Y0241020D01*
X0580204Y0241100D01*
X0580182Y0241182D01*
X0580165Y0241264D01*
X0580151Y0241348D01*
X0580141Y0241431D01*
X0580135Y0241516D01*
X0580133Y0241600D01*
D18*
X0402333Y0107400D02*
X0402335Y0107463D01*
X0402341Y0107525D01*
X0402351Y0107587D01*
X0402364Y0107649D01*
X0402382Y0107709D01*
X0402403Y0107768D01*
X0402428Y0107826D01*
X0402457Y0107882D01*
X0402489Y0107936D01*
X0402524Y0107988D01*
X0402562Y0108037D01*
X0402604Y0108085D01*
X0402648Y0108129D01*
X0402696Y0108171D01*
X0402745Y0108209D01*
X0402797Y0108244D01*
X0402851Y0108276D01*
X0402907Y0108305D01*
X0402965Y0108330D01*
X0403024Y0108351D01*
X0403084Y0108369D01*
X0403146Y0108382D01*
X0403208Y0108392D01*
X0403270Y0108398D01*
X0403333Y0108400D01*
X0403396Y0108398D01*
X0403458Y0108392D01*
X0403520Y0108382D01*
X0403582Y0108369D01*
X0403642Y0108351D01*
X0403701Y0108330D01*
X0403759Y0108305D01*
X0403815Y0108276D01*
X0403869Y0108244D01*
X0403921Y0108209D01*
X0403970Y0108171D01*
X0404018Y0108129D01*
X0404062Y0108085D01*
X0404104Y0108037D01*
X0404142Y0107988D01*
X0404177Y0107936D01*
X0404209Y0107882D01*
X0404238Y0107826D01*
X0404263Y0107768D01*
X0404284Y0107709D01*
X0404302Y0107649D01*
X0404315Y0107587D01*
X0404325Y0107525D01*
X0404331Y0107463D01*
X0404333Y0107400D01*
X0404331Y0107337D01*
X0404325Y0107275D01*
X0404315Y0107213D01*
X0404302Y0107151D01*
X0404284Y0107091D01*
X0404263Y0107032D01*
X0404238Y0106974D01*
X0404209Y0106918D01*
X0404177Y0106864D01*
X0404142Y0106812D01*
X0404104Y0106763D01*
X0404062Y0106715D01*
X0404018Y0106671D01*
X0403970Y0106629D01*
X0403921Y0106591D01*
X0403869Y0106556D01*
X0403815Y0106524D01*
X0403759Y0106495D01*
X0403701Y0106470D01*
X0403642Y0106449D01*
X0403582Y0106431D01*
X0403520Y0106418D01*
X0403458Y0106408D01*
X0403396Y0106402D01*
X0403333Y0106400D01*
X0403270Y0106402D01*
X0403208Y0106408D01*
X0403146Y0106418D01*
X0403084Y0106431D01*
X0403024Y0106449D01*
X0402965Y0106470D01*
X0402907Y0106495D01*
X0402851Y0106524D01*
X0402797Y0106556D01*
X0402745Y0106591D01*
X0402696Y0106629D01*
X0402648Y0106671D01*
X0402604Y0106715D01*
X0402562Y0106763D01*
X0402524Y0106812D01*
X0402489Y0106864D01*
X0402457Y0106918D01*
X0402428Y0106974D01*
X0402403Y0107032D01*
X0402382Y0107091D01*
X0402364Y0107151D01*
X0402351Y0107213D01*
X0402341Y0107275D01*
X0402335Y0107337D01*
X0402333Y0107400D01*
X0500719Y0060825D02*
X0500721Y0060888D01*
X0500727Y0060950D01*
X0500737Y0061012D01*
X0500750Y0061074D01*
X0500768Y0061134D01*
X0500789Y0061193D01*
X0500814Y0061251D01*
X0500843Y0061307D01*
X0500875Y0061361D01*
X0500910Y0061413D01*
X0500948Y0061462D01*
X0500990Y0061510D01*
X0501034Y0061554D01*
X0501082Y0061596D01*
X0501131Y0061634D01*
X0501183Y0061669D01*
X0501237Y0061701D01*
X0501293Y0061730D01*
X0501351Y0061755D01*
X0501410Y0061776D01*
X0501470Y0061794D01*
X0501532Y0061807D01*
X0501594Y0061817D01*
X0501656Y0061823D01*
X0501719Y0061825D01*
X0501782Y0061823D01*
X0501844Y0061817D01*
X0501906Y0061807D01*
X0501968Y0061794D01*
X0502028Y0061776D01*
X0502087Y0061755D01*
X0502145Y0061730D01*
X0502201Y0061701D01*
X0502255Y0061669D01*
X0502307Y0061634D01*
X0502356Y0061596D01*
X0502404Y0061554D01*
X0502448Y0061510D01*
X0502490Y0061462D01*
X0502528Y0061413D01*
X0502563Y0061361D01*
X0502595Y0061307D01*
X0502624Y0061251D01*
X0502649Y0061193D01*
X0502670Y0061134D01*
X0502688Y0061074D01*
X0502701Y0061012D01*
X0502711Y0060950D01*
X0502717Y0060888D01*
X0502719Y0060825D01*
X0502717Y0060762D01*
X0502711Y0060700D01*
X0502701Y0060638D01*
X0502688Y0060576D01*
X0502670Y0060516D01*
X0502649Y0060457D01*
X0502624Y0060399D01*
X0502595Y0060343D01*
X0502563Y0060289D01*
X0502528Y0060237D01*
X0502490Y0060188D01*
X0502448Y0060140D01*
X0502404Y0060096D01*
X0502356Y0060054D01*
X0502307Y0060016D01*
X0502255Y0059981D01*
X0502201Y0059949D01*
X0502145Y0059920D01*
X0502087Y0059895D01*
X0502028Y0059874D01*
X0501968Y0059856D01*
X0501906Y0059843D01*
X0501844Y0059833D01*
X0501782Y0059827D01*
X0501719Y0059825D01*
X0501656Y0059827D01*
X0501594Y0059833D01*
X0501532Y0059843D01*
X0501470Y0059856D01*
X0501410Y0059874D01*
X0501351Y0059895D01*
X0501293Y0059920D01*
X0501237Y0059949D01*
X0501183Y0059981D01*
X0501131Y0060016D01*
X0501082Y0060054D01*
X0501034Y0060096D01*
X0500990Y0060140D01*
X0500948Y0060188D01*
X0500910Y0060237D01*
X0500875Y0060289D01*
X0500843Y0060343D01*
X0500814Y0060399D01*
X0500789Y0060457D01*
X0500768Y0060516D01*
X0500750Y0060576D01*
X0500737Y0060638D01*
X0500727Y0060700D01*
X0500721Y0060762D01*
X0500719Y0060825D01*
D19*
X0407033Y0202400D03*
D20*
X0621719Y0108191D03*
X0621916Y0108191D03*
X0606562Y0097010D03*
D21*
X0606660Y0097050D03*
X0608983Y0104254D03*
X0620951Y0107758D03*
X0626778Y0093270D03*
X0615007Y0088900D03*
D22*
X0606759Y0094274D03*
X0609278Y0098762D03*
X0608018Y0101085D03*
X0609869Y0101872D03*
X0611719Y0105849D03*
X0611129Y0107306D03*
X0627546Y0093605D03*
X0636010Y0094471D03*
D23*
X0632900Y0090987D03*
X0606759Y0097010D03*
D24*
X0606955Y0097837D03*
X0606759Y0098900D03*
X0608215Y0097640D03*
X0609672Y0100357D03*
X0622979Y0102207D03*
X0636404Y0099491D03*
X0636601Y0100750D03*
X0638451Y0099884D03*
X0638727Y0094924D03*
X0637270Y0095002D03*
X0615302Y0091420D03*
X0611522Y0088703D03*
X0610538Y0088900D03*
X0609081Y0089963D03*
X0608885Y0089963D03*
X0608688Y0089963D03*
X0609672Y0090829D03*
X0610144Y0091026D03*
D25*
X0606857Y0093998D03*
X0636109Y0094865D03*
X0635912Y0100022D03*
D26*
X0636975Y0092778D03*
X0611896Y0105613D03*
X0606857Y0096282D03*
X0608983Y0088211D03*
D27*
X0609967Y0086754D03*
X0610243Y0086361D03*
X0611621Y0087227D03*
X0611896Y0087424D03*
X0611896Y0088211D03*
X0611621Y0088605D03*
X0609967Y0092109D03*
X0608983Y0091715D03*
X0607920Y0091321D03*
X0607920Y0090061D03*
X0608786Y0094825D03*
X0608983Y0095022D03*
X0609180Y0095101D03*
X0608314Y0095888D03*
X0608117Y0095888D03*
X0607526Y0095888D03*
X0607329Y0095888D03*
X0606857Y0097739D03*
X0607526Y0098802D03*
X0607920Y0098802D03*
X0608786Y0098605D03*
X0609180Y0098605D03*
X0608314Y0099668D03*
X0608117Y0101321D03*
X0608510Y0101439D03*
X0608786Y0101518D03*
X0608983Y0101518D03*
X0609377Y0101636D03*
X0609770Y0103093D03*
X0609967Y0103093D03*
X0609967Y0106085D03*
X0610243Y0106085D03*
X0610833Y0106006D03*
X0611030Y0106006D03*
X0636109Y0100652D03*
X0637369Y0099786D03*
X0638156Y0099865D03*
X0638353Y0096872D03*
X0637959Y0096676D03*
X0636503Y0096951D03*
D28*
X0635715Y0100180D03*
X0611424Y0103959D03*
X0609770Y0101912D03*
X0609573Y0099471D03*
X0607133Y0099983D03*
X0606857Y0099195D03*
X0607329Y0091912D03*
X0612093Y0087817D03*
D29*
X0606955Y0094038D03*
X0609081Y0096951D03*
X0607034Y0099471D03*
D30*
X0607428Y0101105D03*
X0610066Y0101853D03*
X0610144Y0101853D03*
X0610932Y0103231D03*
X0611522Y0104018D03*
X0612192Y0105357D03*
X0611995Y0105554D03*
X0611798Y0105672D03*
X0609278Y0103428D03*
X0608885Y0096223D03*
X0606955Y0096144D03*
X0609869Y0089215D03*
X0612192Y0087758D03*
X0636010Y0092522D03*
X0637270Y0093034D03*
X0636404Y0095160D03*
X0636404Y0098270D03*
D31*
X0638255Y0092601D03*
X0627073Y0093349D03*
X0614829Y0091617D03*
X0614436Y0089176D03*
X0609672Y0092483D03*
X0606955Y0099372D03*
X0622113Y0108152D03*
D32*
X0638451Y0096912D03*
X0636010Y0093408D03*
X0638058Y0091951D03*
X0609672Y0089038D03*
X0609475Y0088841D03*
X0608215Y0090101D03*
X0607034Y0093408D03*
D33*
X0607034Y0094628D03*
X0610341Y0089865D03*
X0615105Y0091518D03*
X0609081Y0103565D03*
D34*
X0609672Y0103172D03*
X0609869Y0103093D03*
X0610735Y0103093D03*
X0609475Y0101636D03*
X0609278Y0101636D03*
X0608885Y0101518D03*
X0608412Y0101439D03*
X0608885Y0102502D03*
X0608215Y0102778D03*
X0609081Y0105022D03*
X0609278Y0105219D03*
X0609475Y0105416D03*
X0610066Y0106085D03*
X0610144Y0106085D03*
X0610735Y0106006D03*
X0610932Y0106006D03*
X0609672Y0099589D03*
X0608885Y0098605D03*
X0607625Y0098802D03*
X0607034Y0096085D03*
X0607428Y0095888D03*
X0608215Y0095888D03*
X0609081Y0095101D03*
X0609278Y0095219D03*
X0608885Y0094904D03*
X0608609Y0094628D03*
X0607822Y0094628D03*
X0608412Y0093644D03*
X0607428Y0093447D03*
X0609475Y0092975D03*
X0608412Y0091518D03*
X0608018Y0090061D03*
X0608885Y0088211D03*
X0609475Y0088211D03*
X0610735Y0087620D03*
X0610932Y0087345D03*
X0611522Y0087148D03*
X0611719Y0087345D03*
X0611798Y0087424D03*
X0610538Y0086361D03*
X0610066Y0089471D03*
X0617152Y0096872D03*
X0627743Y0093644D03*
X0636798Y0092581D03*
X0637467Y0093172D03*
X0638058Y0093172D03*
X0638451Y0094904D03*
X0638530Y0094904D03*
X0638255Y0096754D03*
X0638530Y0098329D03*
X0638255Y0098605D03*
X0638255Y0099865D03*
X0638058Y0099865D03*
X0637664Y0099786D03*
X0636877Y0100652D03*
X0636798Y0100652D03*
X0636877Y0098605D03*
X0636601Y0098408D03*
D35*
X0636975Y0100514D03*
X0637369Y0093113D03*
X0637172Y0092916D03*
X0638156Y0093113D03*
X0611424Y0087089D03*
X0611227Y0086892D03*
X0610833Y0086617D03*
X0610636Y0086420D03*
X0609573Y0088939D03*
X0609770Y0089136D03*
X0609967Y0089333D03*
X0607133Y0092325D03*
X0608314Y0093703D03*
X0608314Y0094372D03*
X0608786Y0096144D03*
X0608983Y0096341D03*
X0609377Y0097010D03*
X0607526Y0101105D03*
X0609377Y0103309D03*
X0609573Y0103231D03*
X0611030Y0103309D03*
X0612093Y0105475D03*
X0611227Y0105947D03*
X0609377Y0105357D03*
X0609180Y0105081D03*
D36*
X0609573Y0105455D03*
X0610440Y0106046D03*
X0610636Y0106046D03*
X0608983Y0102463D03*
X0608786Y0102542D03*
X0608510Y0102660D03*
X0608314Y0102739D03*
X0609180Y0102345D03*
X0609377Y0102266D03*
X0608983Y0100613D03*
X0608786Y0100613D03*
X0609180Y0100494D03*
X0609377Y0100494D03*
X0609573Y0100416D03*
X0608314Y0100809D03*
X0608117Y0100809D03*
X0607723Y0098762D03*
X0607329Y0098841D03*
X0608510Y0098644D03*
X0608983Y0098565D03*
X0608983Y0097581D03*
X0608786Y0097581D03*
X0608510Y0097581D03*
X0608314Y0097699D03*
X0608510Y0095928D03*
X0607920Y0095849D03*
X0607723Y0095849D03*
X0607526Y0094786D03*
X0607329Y0094786D03*
X0607723Y0094668D03*
X0608510Y0094589D03*
X0609180Y0093802D03*
X0609377Y0093802D03*
X0609573Y0091951D03*
X0609180Y0091754D03*
X0608314Y0091479D03*
X0607723Y0091282D03*
X0608786Y0090494D03*
X0608983Y0090494D03*
X0609180Y0090573D03*
X0609377Y0090691D03*
X0609573Y0090770D03*
X0609770Y0090888D03*
X0609967Y0090967D03*
X0610243Y0091085D03*
X0611030Y0089235D03*
X0610833Y0089038D03*
X0610440Y0088841D03*
X0609967Y0088565D03*
X0609573Y0088250D03*
X0609573Y0087187D03*
X0609770Y0086991D03*
X0610636Y0087660D03*
X0610833Y0087463D03*
X0612290Y0087778D03*
X0607329Y0093408D03*
X0607133Y0093408D03*
X0635046Y0096715D03*
X0636975Y0096715D03*
X0638156Y0096715D03*
X0638353Y0098565D03*
X0638156Y0098644D03*
X0637959Y0098762D03*
X0637762Y0098762D03*
X0637566Y0098762D03*
X0637369Y0098762D03*
X0637172Y0098762D03*
X0636975Y0098644D03*
X0636699Y0099550D03*
X0636503Y0099550D03*
X0636109Y0099431D03*
X0636975Y0099628D03*
X0637762Y0099825D03*
X0637959Y0099825D03*
X0636699Y0100691D03*
X0636503Y0100809D03*
X0636306Y0100691D03*
X0636503Y0095061D03*
X0636699Y0095061D03*
X0636975Y0095061D03*
X0638629Y0094865D03*
X0637762Y0093329D03*
X0636503Y0092424D03*
X0636109Y0092424D03*
D37*
X0636699Y0092483D03*
X0637566Y0093270D03*
X0637959Y0093270D03*
X0636699Y0098506D03*
X0615203Y0091420D03*
X0610440Y0089963D03*
X0608786Y0091617D03*
X0608117Y0091420D03*
X0608314Y0092483D03*
X0607920Y0094530D03*
X0607133Y0094727D03*
X0607133Y0095987D03*
X0607133Y0098900D03*
X0608314Y0098703D03*
X0607329Y0101144D03*
X0610243Y0101813D03*
X0612290Y0105317D03*
X0610440Y0086262D03*
D38*
X0608609Y0090199D03*
X0607231Y0092246D03*
X0637270Y0099924D03*
D39*
X0636877Y0099628D03*
X0636601Y0099550D03*
X0636207Y0099431D03*
X0636798Y0098565D03*
X0637270Y0098762D03*
X0637467Y0098762D03*
X0637664Y0098762D03*
X0637861Y0098762D03*
X0638451Y0098447D03*
X0637861Y0099825D03*
X0636404Y0100809D03*
X0636207Y0100691D03*
X0636798Y0096715D03*
X0636877Y0096715D03*
X0636404Y0095928D03*
X0636601Y0095061D03*
X0636798Y0095061D03*
X0636877Y0095061D03*
X0637073Y0095061D03*
X0637861Y0093329D03*
X0636601Y0092424D03*
X0636207Y0092424D03*
X0638058Y0096715D03*
X0612388Y0105258D03*
X0610538Y0106046D03*
X0610341Y0106046D03*
X0609869Y0106046D03*
X0608412Y0102739D03*
X0608688Y0102542D03*
X0609278Y0102345D03*
X0609475Y0102266D03*
X0610341Y0101872D03*
X0608688Y0101479D03*
X0608609Y0101479D03*
X0608412Y0100809D03*
X0608215Y0100809D03*
X0608609Y0100691D03*
X0608688Y0100691D03*
X0608885Y0100613D03*
X0609081Y0100494D03*
X0609278Y0100494D03*
X0609081Y0098565D03*
X0608688Y0098644D03*
X0608609Y0098644D03*
X0608412Y0098644D03*
X0607822Y0098762D03*
X0607428Y0098841D03*
X0607231Y0098841D03*
X0608412Y0097581D03*
X0608609Y0097581D03*
X0608688Y0097581D03*
X0608885Y0097581D03*
X0608688Y0096046D03*
X0608412Y0095928D03*
X0608018Y0095849D03*
X0607822Y0095849D03*
X0607625Y0095849D03*
X0607625Y0094786D03*
X0607428Y0094786D03*
X0608018Y0093605D03*
X0607231Y0093408D03*
X0609081Y0093802D03*
X0609278Y0093802D03*
X0609278Y0091754D03*
X0609081Y0091754D03*
X0608885Y0091676D03*
X0608215Y0091479D03*
X0608018Y0091361D03*
X0607822Y0091282D03*
X0608885Y0090494D03*
X0609081Y0090573D03*
X0609278Y0090691D03*
X0609475Y0090770D03*
X0610066Y0090967D03*
X0610538Y0090022D03*
X0611129Y0089235D03*
X0610932Y0089117D03*
X0610735Y0089038D03*
X0610144Y0088644D03*
X0610066Y0088565D03*
X0609869Y0088447D03*
X0609672Y0088369D03*
X0609278Y0090022D03*
X0611798Y0088369D03*
X0611325Y0086991D03*
X0610066Y0086518D03*
D40*
X0610144Y0086459D03*
X0610341Y0086262D03*
X0610735Y0086459D03*
X0610932Y0086656D03*
X0609869Y0086853D03*
X0611719Y0088506D03*
X0607625Y0091223D03*
X0608412Y0094530D03*
X0608688Y0094727D03*
X0608609Y0095987D03*
X0607231Y0095987D03*
X0607231Y0094727D03*
X0607231Y0100160D03*
X0608609Y0102601D03*
X0609081Y0102404D03*
X0609475Y0103270D03*
X0636010Y0100554D03*
X0637073Y0098703D03*
X0638058Y0098703D03*
X0636404Y0097050D03*
X0637664Y0093270D03*
X0636877Y0092680D03*
D41*
X0627940Y0093782D03*
X0610341Y0091065D03*
X0610538Y0087680D03*
X0609869Y0100317D03*
X0607231Y0101105D03*
D42*
X0607428Y0091617D03*
D43*
X0607526Y0091361D03*
X0609573Y0092935D03*
X0610243Y0089825D03*
X0607920Y0101085D03*
X0609967Y0101872D03*
X0611227Y0103605D03*
X0636109Y0097581D03*
X0635715Y0092935D03*
D44*
X0637369Y0094963D03*
X0637566Y0094963D03*
X0637762Y0094963D03*
X0637959Y0094963D03*
X0638156Y0094963D03*
X0638353Y0094963D03*
X0637762Y0096617D03*
X0637566Y0096617D03*
X0637369Y0096617D03*
X0637172Y0096617D03*
X0636699Y0096813D03*
X0637566Y0099727D03*
X0638353Y0099924D03*
X0610636Y0103034D03*
X0610440Y0103034D03*
X0610243Y0103034D03*
X0609180Y0101577D03*
X0608314Y0101380D03*
X0608117Y0102837D03*
X0608510Y0093703D03*
X0608786Y0093703D03*
X0607920Y0093506D03*
X0607723Y0093506D03*
X0607526Y0093506D03*
X0609377Y0091853D03*
X0610636Y0088939D03*
D45*
X0610341Y0088743D03*
X0609672Y0087089D03*
X0608688Y0090396D03*
X0609475Y0091853D03*
X0608885Y0093703D03*
X0608688Y0093703D03*
X0608609Y0093703D03*
X0607822Y0093506D03*
X0607625Y0093506D03*
X0608215Y0101380D03*
X0609081Y0101577D03*
X0608018Y0102837D03*
X0610066Y0103034D03*
X0610144Y0103034D03*
X0610341Y0103034D03*
X0610538Y0103034D03*
X0611129Y0105947D03*
X0636601Y0096813D03*
X0637073Y0096617D03*
X0637270Y0096617D03*
X0637467Y0096617D03*
X0637664Y0096617D03*
X0637861Y0096617D03*
X0637861Y0094963D03*
X0638058Y0094963D03*
X0638255Y0094963D03*
X0637664Y0094963D03*
X0637467Y0094963D03*
X0637467Y0099727D03*
D46*
X0636010Y0099569D03*
X0638530Y0097050D03*
X0638451Y0092680D03*
X0637073Y0092876D03*
X0611129Y0086931D03*
X0608412Y0090160D03*
X0608688Y0091695D03*
X0608018Y0094333D03*
X0607822Y0101144D03*
X0607625Y0101144D03*
X0611129Y0103467D03*
D47*
X0609180Y0103467D03*
X0607723Y0101144D03*
X0623077Y0102010D03*
X0627644Y0093664D03*
X0638156Y0092010D03*
X0608510Y0090160D03*
X0608314Y0090160D03*
D48*
X0608786Y0089963D03*
X0608983Y0089963D03*
X0609180Y0089963D03*
X0610243Y0088703D03*
X0608983Y0093743D03*
X0609770Y0100357D03*
X0608510Y0100750D03*
X0607920Y0102876D03*
X0609770Y0105987D03*
X0627841Y0093743D03*
X0636109Y0093546D03*
X0637172Y0095002D03*
X0637959Y0091813D03*
X0636306Y0099491D03*
D49*
X0627467Y0093506D03*
X0609278Y0088349D03*
X0608018Y0099057D03*
X0611325Y0103821D03*
D50*
X0610833Y0103132D03*
X0608117Y0090101D03*
X0636503Y0098369D03*
D51*
X0638353Y0092620D03*
X0611227Y0107109D03*
X0608117Y0093998D03*
X0609770Y0092345D03*
D52*
X0608117Y0099195D03*
X0608786Y0104156D03*
X0621621Y0108132D03*
X0623274Y0101715D03*
D53*
X0608215Y0092483D03*
X0612388Y0087719D03*
X0637861Y0091813D03*
D54*
X0614908Y0091557D03*
X0608215Y0093998D03*
D55*
X0608215Y0099235D03*
X0621522Y0108093D03*
X0635814Y0100022D03*
D56*
X0609672Y0101912D03*
X0608688Y0104156D03*
X0608412Y0092306D03*
X0608609Y0091794D03*
X0609869Y0092187D03*
X0609081Y0088211D03*
D57*
X0608412Y0099786D03*
X0609672Y0106006D03*
X0612585Y0105219D03*
X0641759Y0079235D03*
X0641444Y0078132D03*
X0624829Y0073683D03*
X0625499Y0068408D03*
D58*
X0614337Y0089235D03*
X0614140Y0089431D03*
X0608510Y0091951D03*
X0627172Y0093408D03*
X0635912Y0093014D03*
D59*
X0608786Y0088211D03*
D60*
X0614633Y0089038D03*
X0608885Y0104195D03*
D61*
X0609573Y0101971D03*
X0609180Y0088270D03*
X0638825Y0097680D03*
D62*
X0626975Y0093309D03*
X0614534Y0089136D03*
X0609180Y0097010D03*
D63*
X0609278Y0097069D03*
X0611522Y0106282D03*
X0636207Y0097620D03*
X0637073Y0100061D03*
X0627270Y0093447D03*
D64*
X0627369Y0093467D03*
X0609377Y0088506D03*
D65*
X0609770Y0088408D03*
X0609770Y0090061D03*
X0609573Y0090061D03*
X0609377Y0090061D03*
X0609967Y0090061D03*
X0611227Y0089274D03*
X0636306Y0092384D03*
X0611621Y0104156D03*
X0612487Y0105219D03*
X0611030Y0107463D03*
D66*
X0609377Y0099057D03*
D67*
X0609475Y0087187D03*
D68*
X0609475Y0090061D03*
X0609672Y0090061D03*
X0609869Y0090061D03*
X0610066Y0090061D03*
X0609869Y0090928D03*
X0609475Y0093841D03*
X0609475Y0100455D03*
X0609672Y0105416D03*
X0636798Y0099589D03*
X0636404Y0092384D03*
D69*
X0638727Y0097680D03*
X0614239Y0089333D03*
X0609475Y0099136D03*
D70*
X0609770Y0105514D03*
D71*
X0610144Y0089766D03*
D72*
X0610636Y0090002D03*
X0611424Y0088664D03*
X0638825Y0094963D03*
X0610440Y0101853D03*
D73*
X0611621Y0106046D03*
X0637172Y0100022D03*
X0615007Y0091557D03*
X0611030Y0086991D03*
D74*
X0623668Y0086164D03*
X0624534Y0086164D03*
X0625322Y0086361D03*
X0625518Y0086361D03*
X0611030Y0096951D03*
D75*
X0611129Y0096872D03*
X0618215Y0105809D03*
X0630381Y0099392D03*
X0631050Y0089943D03*
D76*
X0611227Y0096872D03*
X0614534Y0103093D03*
D77*
X0611325Y0096872D03*
X0613845Y0091991D03*
D78*
X0614908Y0088900D03*
X0633097Y0091223D03*
X0611325Y0106695D03*
D79*
X0611424Y0096813D03*
D80*
X0617251Y0096872D03*
X0614731Y0091715D03*
X0614731Y0088998D03*
X0636306Y0097620D03*
X0638629Y0097620D03*
X0621227Y0107935D03*
X0611424Y0106479D03*
D81*
X0616759Y0103506D03*
X0611522Y0096813D03*
D82*
X0611621Y0096813D03*
X0619101Y0098664D03*
D83*
X0611719Y0096813D03*
X0630853Y0101774D03*
D84*
X0618412Y0098467D03*
X0611798Y0096813D03*
D85*
X0611896Y0096853D03*
D86*
X0611995Y0087817D03*
X0635814Y0092975D03*
D87*
X0611995Y0096853D03*
D88*
X0612093Y0096853D03*
D89*
X0612192Y0096872D03*
D90*
X0612290Y0096912D03*
D91*
X0612388Y0096912D03*
D92*
X0612487Y0096912D03*
D93*
X0612585Y0096853D03*
D94*
X0612684Y0096892D03*
D95*
X0612782Y0096912D03*
D96*
X0612881Y0096912D03*
D97*
X0612979Y0096912D03*
D98*
X0613077Y0096912D03*
D99*
X0613176Y0096912D03*
D100*
X0613255Y0096912D03*
D101*
X0613353Y0096872D03*
D102*
X0613451Y0096853D03*
D103*
X0613550Y0096872D03*
D104*
X0613648Y0092680D03*
X0613648Y0101144D03*
D105*
X0613747Y0092286D03*
D106*
X0613747Y0101459D03*
X0615991Y0103428D03*
D107*
X0613845Y0101813D03*
D108*
X0613944Y0091656D03*
D109*
X0613944Y0102148D03*
D110*
X0614042Y0091518D03*
X0623176Y0087542D03*
D111*
X0614042Y0102345D03*
D112*
X0619101Y0106420D03*
X0628629Y0105750D03*
X0617448Y0096892D03*
X0614140Y0092050D03*
X0618117Y0087561D03*
X0618314Y0087483D03*
X0618510Y0087483D03*
X0629692Y0088546D03*
X0629888Y0088743D03*
D113*
X0614140Y0102542D03*
D114*
X0619593Y0106813D03*
X0626089Y0106931D03*
X0626286Y0106813D03*
X0626483Y0106735D03*
X0626680Y0106735D03*
X0632231Y0090672D03*
X0628727Y0087758D03*
X0628530Y0087680D03*
X0617349Y0087876D03*
X0614239Y0092050D03*
D115*
X0634751Y0096853D03*
X0614829Y0103191D03*
X0614239Y0102680D03*
D116*
X0619967Y0107069D03*
X0614337Y0091912D03*
X0627172Y0086951D03*
X0632408Y0090731D03*
D117*
X0614337Y0102837D03*
D118*
X0614436Y0091853D03*
D119*
X0614436Y0102975D03*
X0614633Y0103093D03*
D120*
X0620558Y0107561D03*
X0614534Y0091813D03*
D121*
X0614633Y0091754D03*
X0626680Y0093211D03*
X0620853Y0107699D03*
D122*
X0614731Y0103132D03*
D123*
X0621050Y0107798D03*
X0626877Y0093309D03*
X0614829Y0088939D03*
D124*
X0627270Y0097876D03*
X0614908Y0103231D03*
D125*
X0615007Y0103172D03*
X0627172Y0097935D03*
D126*
X0615105Y0088802D03*
D127*
X0615105Y0103231D03*
D128*
X0620755Y0107660D03*
X0632802Y0090928D03*
X0615203Y0088683D03*
D129*
X0615203Y0103309D03*
D130*
X0626483Y0093211D03*
X0615302Y0088644D03*
D131*
X0626877Y0097975D03*
X0615302Y0103329D03*
D132*
X0626581Y0093211D03*
X0615400Y0088644D03*
D133*
X0615400Y0103329D03*
D134*
X0632703Y0090829D03*
X0615499Y0088585D03*
D135*
X0615499Y0103309D03*
D136*
X0615597Y0088546D03*
D137*
X0615597Y0103369D03*
D138*
X0620459Y0107463D03*
X0615696Y0088487D03*
X0615892Y0088408D03*
D139*
X0615696Y0103408D03*
D140*
X0620361Y0107345D03*
X0615794Y0088408D03*
D141*
X0615794Y0103369D03*
D142*
X0615892Y0103428D03*
X0626483Y0097994D03*
D143*
X0632605Y0090770D03*
X0624731Y0086203D03*
X0624259Y0086124D03*
X0624062Y0086124D03*
X0623865Y0086124D03*
X0615991Y0088369D03*
D144*
X0616089Y0088309D03*
X0625026Y0086262D03*
X0625223Y0086262D03*
X0625814Y0086459D03*
X0625892Y0086459D03*
D145*
X0616089Y0103408D03*
D146*
X0616188Y0088309D03*
X0624928Y0086262D03*
X0625125Y0086262D03*
D147*
X0616188Y0103467D03*
D148*
X0620262Y0107266D03*
X0632507Y0090731D03*
X0626089Y0086557D03*
X0625420Y0086361D03*
X0624436Y0086164D03*
X0624357Y0086164D03*
X0616286Y0088211D03*
D149*
X0634554Y0096813D03*
X0616286Y0103428D03*
D150*
X0620164Y0107207D03*
X0616385Y0088152D03*
X0625715Y0086420D03*
X0625991Y0086498D03*
X0626188Y0086617D03*
X0626385Y0086617D03*
X0626581Y0086695D03*
X0626778Y0086813D03*
D151*
X0616385Y0103467D03*
D152*
X0616483Y0088152D03*
X0623570Y0086223D03*
X0625617Y0086420D03*
X0626286Y0086617D03*
X0626483Y0086695D03*
X0626680Y0086695D03*
D153*
X0616483Y0103526D03*
D154*
X0620066Y0107168D03*
X0616562Y0088113D03*
X0626877Y0086853D03*
X0627073Y0086853D03*
X0627270Y0087050D03*
D155*
X0616562Y0103467D03*
D156*
X0623077Y0107424D03*
X0623274Y0107424D03*
X0623865Y0107306D03*
X0624062Y0107306D03*
X0628038Y0087384D03*
X0627644Y0087187D03*
X0616660Y0088054D03*
D157*
X0616660Y0103506D03*
D158*
X0619869Y0107030D03*
X0622310Y0107424D03*
X0622979Y0107424D03*
X0623176Y0107424D03*
X0623373Y0107424D03*
X0623766Y0107306D03*
X0623963Y0107306D03*
X0624160Y0107306D03*
X0632310Y0090691D03*
X0627743Y0087187D03*
X0627467Y0087109D03*
X0616759Y0088054D03*
D159*
X0616857Y0088014D03*
X0628432Y0087620D03*
X0625518Y0107069D03*
X0624731Y0107266D03*
X0624534Y0107266D03*
X0624259Y0107266D03*
D160*
X0616857Y0103526D03*
D161*
X0619672Y0106872D03*
X0624357Y0107266D03*
X0624436Y0107266D03*
X0624633Y0107266D03*
X0624829Y0107266D03*
X0625420Y0107069D03*
X0625617Y0107069D03*
X0628136Y0087424D03*
X0616955Y0088014D03*
D162*
X0619593Y0098526D03*
X0619396Y0098605D03*
X0616955Y0103565D03*
D163*
X0619770Y0106971D03*
X0622408Y0107365D03*
X0622605Y0107365D03*
X0622881Y0107365D03*
X0623471Y0107365D03*
X0623668Y0107365D03*
X0625125Y0107168D03*
X0625322Y0107168D03*
X0628235Y0087522D03*
X0617054Y0087916D03*
D164*
X0617054Y0103526D03*
D165*
X0622507Y0107365D03*
X0622703Y0107365D03*
X0622782Y0107365D03*
X0623570Y0107365D03*
X0625026Y0107168D03*
X0625223Y0107168D03*
X0625814Y0106971D03*
X0625892Y0106971D03*
X0617349Y0096853D03*
X0617152Y0087916D03*
X0627940Y0087325D03*
X0628333Y0087522D03*
D166*
X0617152Y0103585D03*
D167*
X0624928Y0107207D03*
X0625715Y0107010D03*
X0625991Y0106931D03*
X0626385Y0106813D03*
X0626581Y0106735D03*
X0628825Y0087876D03*
X0628629Y0087680D03*
X0623471Y0086420D03*
X0617251Y0087876D03*
D168*
X0617251Y0103585D03*
D169*
X0617349Y0103565D03*
X0631247Y0101636D03*
D170*
X0627644Y0106282D03*
X0627172Y0106479D03*
X0626778Y0106676D03*
X0626188Y0106872D03*
X0629298Y0088211D03*
X0617448Y0087817D03*
D171*
X0631345Y0101518D03*
X0617448Y0103565D03*
D172*
X0626877Y0106577D03*
X0627073Y0106577D03*
X0627467Y0106380D03*
X0629199Y0088113D03*
X0628924Y0087916D03*
X0617546Y0087719D03*
D173*
X0630853Y0089707D03*
X0631640Y0090494D03*
X0627940Y0097778D03*
X0629199Y0098565D03*
X0629396Y0098762D03*
X0629593Y0098841D03*
X0629790Y0098959D03*
X0630184Y0099235D03*
X0617546Y0096912D03*
D174*
X0619672Y0098231D03*
X0617546Y0103585D03*
X0631050Y0101735D03*
X0631444Y0101341D03*
D175*
X0627369Y0106380D03*
X0626975Y0106577D03*
X0619495Y0106774D03*
X0617644Y0087719D03*
D176*
X0617644Y0101144D03*
D177*
X0619396Y0106636D03*
X0627546Y0106321D03*
X0627743Y0106243D03*
X0634948Y0096794D03*
X0617743Y0087660D03*
D178*
X0617743Y0101046D03*
D179*
X0632133Y0090573D03*
X0629495Y0088369D03*
X0629101Y0088054D03*
X0617841Y0087660D03*
D180*
X0617841Y0100987D03*
D181*
X0628136Y0106006D03*
X0628530Y0105809D03*
X0629790Y0088605D03*
X0618018Y0087620D03*
X0617940Y0087620D03*
D182*
X0617940Y0100888D03*
D183*
X0618018Y0098546D03*
D184*
X0618018Y0105554D03*
D185*
X0618117Y0098408D03*
D186*
X0631345Y0090357D03*
X0618117Y0105711D03*
D187*
X0628333Y0105908D03*
X0629593Y0088506D03*
X0629396Y0088309D03*
X0618215Y0087522D03*
D188*
X0618215Y0098408D03*
X0632034Y0100258D03*
X0634160Y0096754D03*
D189*
X0631936Y0100396D03*
X0618314Y0098467D03*
D190*
X0627841Y0097739D03*
X0630085Y0099195D03*
X0630479Y0099471D03*
X0618314Y0105888D03*
X0631542Y0090455D03*
D191*
X0632034Y0090593D03*
X0629987Y0088743D03*
X0618412Y0087483D03*
X0619199Y0106538D03*
X0628727Y0105672D03*
X0629003Y0105475D03*
D192*
X0630381Y0104294D03*
X0618412Y0105947D03*
D193*
X0618510Y0098526D03*
D194*
X0628038Y0097837D03*
X0628629Y0098113D03*
X0629101Y0098506D03*
X0630282Y0104333D03*
X0618510Y0105987D03*
X0630755Y0089569D03*
D195*
X0630184Y0088979D03*
X0619396Y0087246D03*
X0619003Y0087325D03*
X0618806Y0087443D03*
X0618609Y0087443D03*
X0619003Y0106380D03*
X0628924Y0105514D03*
X0629199Y0105317D03*
D196*
X0631640Y0100947D03*
X0618609Y0098506D03*
D197*
X0628530Y0098073D03*
X0629987Y0104687D03*
X0618609Y0106144D03*
D198*
X0631936Y0090554D03*
X0619298Y0087246D03*
X0618904Y0087325D03*
X0618707Y0087443D03*
D199*
X0618707Y0098565D03*
D200*
X0618707Y0106203D03*
X0630479Y0089274D03*
X0619770Y0087148D03*
D201*
X0618806Y0098565D03*
D202*
X0618806Y0106203D03*
X0629593Y0105022D03*
X0629790Y0104825D03*
X0631837Y0090534D03*
X0619869Y0087148D03*
D203*
X0618904Y0098664D03*
D204*
X0618904Y0106341D03*
X0619101Y0087286D03*
D205*
X0619003Y0098664D03*
D206*
X0619199Y0087286D03*
D207*
X0619199Y0098664D03*
D208*
X0619298Y0098664D03*
X0634455Y0096813D03*
D209*
X0628432Y0105908D03*
X0619298Y0106577D03*
D210*
X0629298Y0105258D03*
X0630282Y0089038D03*
X0619495Y0087187D03*
D211*
X0619495Y0098605D03*
D212*
X0629396Y0105180D03*
X0619672Y0087187D03*
X0619593Y0087187D03*
D213*
X0619770Y0097640D03*
D214*
X0619869Y0096872D03*
X0625420Y0096676D03*
X0632703Y0098802D03*
D215*
X0628432Y0097975D03*
X0630085Y0104589D03*
X0629888Y0104786D03*
X0631739Y0090494D03*
X0619967Y0087187D03*
D216*
X0619967Y0096420D03*
X0623865Y0096617D03*
X0624062Y0096617D03*
X0624259Y0096617D03*
D217*
X0620459Y0093467D03*
X0620262Y0093546D03*
X0620066Y0093664D03*
D218*
X0620164Y0093546D03*
D219*
X0620361Y0093506D03*
D220*
X0620558Y0093408D03*
D221*
X0620656Y0093408D03*
D222*
X0636207Y0095160D03*
X0620656Y0107601D03*
D223*
X0620755Y0093369D03*
X0620951Y0093250D03*
D224*
X0620853Y0093250D03*
X0621050Y0093250D03*
D225*
X0621129Y0093211D03*
D226*
X0621129Y0107896D03*
D227*
X0621227Y0093172D03*
D228*
X0621325Y0093172D03*
D229*
X0621325Y0107994D03*
D230*
X0621424Y0093113D03*
D231*
X0621424Y0108034D03*
D232*
X0621522Y0093113D03*
X0621719Y0093034D03*
D233*
X0621621Y0093073D03*
D234*
X0621818Y0092975D03*
D235*
X0621818Y0108191D03*
X0622014Y0108191D03*
D236*
X0621916Y0092975D03*
D237*
X0622014Y0092935D03*
D238*
X0622113Y0092935D03*
D239*
X0622211Y0092876D03*
D240*
X0622211Y0107601D03*
D241*
X0622310Y0092876D03*
D242*
X0622408Y0092837D03*
D243*
X0622507Y0092837D03*
D244*
X0622605Y0092778D03*
D245*
X0622703Y0092739D03*
X0622782Y0092739D03*
X0622979Y0092739D03*
D246*
X0623077Y0092739D03*
X0622881Y0092739D03*
D247*
X0623176Y0095691D03*
X0625814Y0096676D03*
D248*
X0623176Y0101872D03*
D249*
X0623274Y0087246D03*
D250*
X0623274Y0095790D03*
D251*
X0628136Y0097837D03*
X0628333Y0097916D03*
X0628727Y0098231D03*
X0628924Y0098309D03*
X0629003Y0098428D03*
X0630184Y0104451D03*
X0623373Y0086853D03*
D252*
X0623373Y0096617D03*
X0623570Y0096617D03*
D253*
X0623471Y0096617D03*
X0633589Y0096813D03*
D254*
X0623668Y0096656D03*
D255*
X0624633Y0086203D03*
X0624829Y0086203D03*
X0624160Y0086124D03*
X0623963Y0086124D03*
X0623766Y0086124D03*
D256*
X0623766Y0096656D03*
D257*
X0623963Y0096617D03*
X0624160Y0096617D03*
X0624357Y0096617D03*
X0633688Y0096813D03*
D258*
X0624436Y0096676D03*
D259*
X0624534Y0096617D03*
D260*
X0624633Y0096656D03*
D261*
X0624731Y0096617D03*
X0624928Y0096617D03*
D262*
X0624829Y0096617D03*
D263*
X0625026Y0096617D03*
X0633766Y0096813D03*
D264*
X0625125Y0096617D03*
D265*
X0625223Y0096656D03*
X0632900Y0098428D03*
D266*
X0625322Y0096617D03*
D267*
X0625518Y0096617D03*
X0633865Y0096813D03*
D268*
X0625617Y0096656D03*
D269*
X0625715Y0096617D03*
X0632605Y0099057D03*
D270*
X0633963Y0096813D03*
X0625892Y0096617D03*
D271*
X0625991Y0096656D03*
D272*
X0626089Y0096676D03*
D273*
X0626188Y0096636D03*
X0634062Y0096794D03*
D274*
X0632231Y0099865D03*
X0626286Y0096676D03*
D275*
X0626385Y0096617D03*
X0632133Y0100002D03*
D276*
X0626581Y0097975D03*
D277*
X0626680Y0098034D03*
D278*
X0626778Y0097994D03*
X0634652Y0096813D03*
D279*
X0627369Y0087050D03*
X0626975Y0086853D03*
D280*
X0626975Y0097975D03*
D281*
X0627073Y0097916D03*
D282*
X0627270Y0106479D03*
X0629003Y0088014D03*
D283*
X0627369Y0097916D03*
D284*
X0627467Y0097876D03*
D285*
X0627546Y0087148D03*
D286*
X0627546Y0097778D03*
D287*
X0627644Y0097778D03*
D288*
X0627743Y0097778D03*
D289*
X0627841Y0087286D03*
D290*
X0627841Y0106144D03*
D291*
X0627940Y0106144D03*
D292*
X0628038Y0106085D03*
X0628235Y0106006D03*
D293*
X0628235Y0097876D03*
D294*
X0628825Y0098270D03*
X0629298Y0098664D03*
D295*
X0629101Y0105416D03*
X0628825Y0105613D03*
D296*
X0630479Y0104195D03*
X0629888Y0099038D03*
X0629692Y0098959D03*
X0629495Y0098762D03*
X0630951Y0089825D03*
D297*
X0629692Y0104924D03*
X0629495Y0105120D03*
D298*
X0629987Y0099097D03*
D299*
X0630085Y0088841D03*
D300*
X0630282Y0099294D03*
D301*
X0630577Y0089372D03*
X0630381Y0089176D03*
D302*
X0631444Y0090396D03*
X0630577Y0099530D03*
X0630577Y0104097D03*
D303*
X0630656Y0089471D03*
D304*
X0630656Y0101813D03*
D305*
X0630755Y0101813D03*
D306*
X0630951Y0101774D03*
X0631542Y0101183D03*
D307*
X0631148Y0090101D03*
D308*
X0631148Y0101676D03*
D309*
X0631247Y0090239D03*
D310*
X0634259Y0096813D03*
X0631739Y0100790D03*
D311*
X0631837Y0100613D03*
D312*
X0632310Y0099687D03*
D313*
X0632408Y0099392D03*
D314*
X0632507Y0099235D03*
D315*
X0632802Y0098605D03*
D316*
X0632999Y0091065D03*
D317*
X0632999Y0098172D03*
D318*
X0633097Y0097975D03*
D319*
X0633196Y0096794D03*
D320*
X0633294Y0096754D03*
D321*
X0633392Y0096813D03*
D322*
X0633491Y0096813D03*
D323*
X0634357Y0096813D03*
D324*
X0634849Y0096813D03*
D325*
X0636306Y0095357D03*
D326*
X0640322Y0080455D03*
X0640400Y0076951D03*
X0628117Y0068723D03*
D327*
X0625046Y0072148D03*
X0632054Y0071124D03*
X0640203Y0080376D03*
D328*
X0640243Y0080298D03*
X0638786Y0075494D03*
X0635361Y0072384D03*
X0612881Y0063369D03*
X0612881Y0063290D03*
X0613825Y0060691D03*
D329*
X0612959Y0063644D03*
X0627329Y0068250D03*
X0631621Y0070573D03*
X0640243Y0080219D03*
D330*
X0640243Y0080140D03*
X0635676Y0073211D03*
X0631385Y0070337D03*
X0627251Y0068172D03*
X0618865Y0072306D03*
X0613038Y0063880D03*
D331*
X0613117Y0064038D03*
X0640243Y0080061D03*
D332*
X0640164Y0079983D03*
X0640085Y0079904D03*
X0627093Y0068093D03*
X0613196Y0064195D03*
D333*
X0613274Y0064274D03*
X0631070Y0069943D03*
X0635361Y0072857D03*
X0640007Y0079825D03*
D334*
X0639967Y0079746D03*
X0635243Y0072778D03*
D335*
X0635007Y0072542D03*
X0637251Y0077896D03*
X0637487Y0078054D03*
X0637723Y0078211D03*
X0637959Y0078369D03*
X0638196Y0078526D03*
X0638432Y0078683D03*
X0638668Y0078841D03*
X0639810Y0079589D03*
X0639888Y0079668D03*
X0619770Y0056361D03*
D336*
X0632546Y0074786D03*
X0632782Y0074943D03*
X0632940Y0075022D03*
X0633018Y0075101D03*
X0633255Y0075258D03*
X0633412Y0075337D03*
X0635735Y0076872D03*
X0635814Y0076951D03*
X0635971Y0077030D03*
X0636050Y0077109D03*
X0636207Y0077187D03*
X0636286Y0077266D03*
X0636444Y0077345D03*
X0636522Y0077424D03*
X0639003Y0079077D03*
X0639239Y0079235D03*
X0639711Y0079510D03*
D337*
X0639593Y0079431D03*
X0639357Y0079313D03*
X0639121Y0079156D03*
X0638885Y0078998D03*
D338*
X0639475Y0079372D03*
D339*
X0641640Y0079156D03*
X0641325Y0078054D03*
X0636129Y0071991D03*
X0625696Y0068487D03*
D340*
X0641483Y0078998D03*
X0641562Y0079077D03*
D341*
X0638786Y0078920D03*
X0638550Y0078762D03*
X0638314Y0078605D03*
X0638077Y0078447D03*
X0637841Y0078290D03*
X0637605Y0078132D03*
X0637369Y0077975D03*
X0637133Y0077817D03*
X0636896Y0077660D03*
X0636739Y0077581D03*
X0636660Y0077502D03*
X0635597Y0076794D03*
X0635518Y0076715D03*
X0635361Y0076636D03*
X0635282Y0076557D03*
X0635125Y0076479D03*
X0635046Y0076400D03*
X0634888Y0076321D03*
X0634810Y0076243D03*
X0634573Y0076124D03*
X0634416Y0076046D03*
X0634337Y0075967D03*
X0634180Y0075888D03*
X0634101Y0075809D03*
X0633944Y0075731D03*
X0633865Y0075652D03*
X0633707Y0075573D03*
X0633629Y0075494D03*
X0633471Y0075416D03*
X0635125Y0072620D03*
X0634888Y0072463D03*
X0613432Y0064431D03*
D342*
X0625892Y0068565D03*
X0641129Y0077817D03*
X0641207Y0077896D03*
X0641444Y0078920D03*
D343*
X0641325Y0078841D03*
X0641168Y0078762D03*
X0641089Y0078683D03*
X0640577Y0078290D03*
X0640420Y0078211D03*
X0640341Y0078132D03*
X0640184Y0078054D03*
X0640105Y0077975D03*
X0639948Y0077896D03*
X0639869Y0077817D03*
X0639711Y0077739D03*
X0639633Y0077660D03*
X0639475Y0077581D03*
X0639396Y0077502D03*
X0639239Y0077424D03*
X0639160Y0077345D03*
X0639003Y0077266D03*
X0638924Y0077187D03*
X0638766Y0077109D03*
X0638688Y0077030D03*
X0638530Y0076951D03*
X0638451Y0076872D03*
X0638294Y0076794D03*
X0638215Y0076715D03*
X0638058Y0076636D03*
X0637979Y0076557D03*
X0637310Y0076124D03*
X0637073Y0075967D03*
X0636837Y0075809D03*
X0636601Y0075652D03*
X0636365Y0075494D03*
X0636129Y0075337D03*
X0635892Y0075180D03*
X0635656Y0075022D03*
X0635420Y0074865D03*
X0635184Y0074707D03*
X0634948Y0074550D03*
X0634278Y0074077D03*
X0626089Y0068644D03*
D344*
X0640755Y0078447D03*
X0640991Y0078605D03*
D345*
X0640873Y0078526D03*
X0640636Y0078369D03*
X0637841Y0076479D03*
X0637762Y0076400D03*
X0637605Y0076321D03*
X0637526Y0076243D03*
X0634731Y0074392D03*
X0634495Y0074235D03*
D346*
X0639593Y0075180D03*
X0641286Y0077975D03*
X0632743Y0069668D03*
D347*
X0630479Y0073369D03*
X0630558Y0073447D03*
X0630715Y0073526D03*
X0630794Y0073605D03*
X0630951Y0073683D03*
X0631030Y0073762D03*
X0631188Y0073841D03*
X0631266Y0073920D03*
X0631424Y0073998D03*
X0631503Y0074077D03*
X0631660Y0074156D03*
X0631739Y0074235D03*
X0631896Y0074313D03*
X0631975Y0074392D03*
X0632133Y0074471D03*
X0632211Y0074550D03*
X0632369Y0074628D03*
X0632448Y0074707D03*
X0630322Y0073290D03*
X0629337Y0072620D03*
X0629180Y0072542D03*
X0629101Y0072463D03*
X0628944Y0072384D03*
X0628865Y0072306D03*
X0628707Y0072227D03*
X0628629Y0072148D03*
X0628471Y0072069D03*
X0637014Y0077739D03*
D348*
X0641070Y0077739D03*
X0634613Y0074313D03*
X0634377Y0074156D03*
X0631581Y0072306D03*
X0631503Y0072227D03*
X0631345Y0072148D03*
X0631266Y0072069D03*
X0628471Y0070180D03*
X0628235Y0070022D03*
D349*
X0628353Y0070101D03*
X0628117Y0069943D03*
X0631148Y0071991D03*
X0637526Y0075337D03*
X0641030Y0077660D03*
D350*
X0640951Y0077581D03*
X0624770Y0073526D03*
D351*
X0624810Y0073447D03*
X0640912Y0077502D03*
D352*
X0640833Y0077424D03*
X0640755Y0077345D03*
D353*
X0640676Y0077266D03*
X0624810Y0073211D03*
X0624810Y0073132D03*
D354*
X0640636Y0077187D03*
D355*
X0640518Y0077109D03*
D356*
X0640479Y0077030D03*
X0624849Y0073014D03*
D357*
X0624928Y0072699D03*
X0627881Y0068565D03*
X0640322Y0076872D03*
D358*
X0640282Y0076794D03*
X0640203Y0076715D03*
X0624967Y0072620D03*
D359*
X0624967Y0072463D03*
X0627762Y0068487D03*
X0632290Y0071361D03*
X0640125Y0076636D03*
D360*
X0640046Y0076557D03*
X0639967Y0076479D03*
X0632211Y0071282D03*
D361*
X0632172Y0071203D03*
X0625007Y0072227D03*
X0625007Y0072306D03*
X0639928Y0076400D03*
D362*
X0639849Y0076321D03*
X0635518Y0072306D03*
X0632014Y0071046D03*
X0627566Y0068408D03*
X0618865Y0072384D03*
X0612959Y0062266D03*
X0612959Y0062187D03*
X0613038Y0062030D03*
X0613038Y0061951D03*
X0613038Y0061872D03*
X0613117Y0061794D03*
X0613117Y0061715D03*
X0613196Y0061557D03*
X0613274Y0061400D03*
D363*
X0613432Y0061164D03*
X0613432Y0061085D03*
X0613510Y0061006D03*
X0612881Y0062581D03*
X0612881Y0062660D03*
X0612881Y0062739D03*
X0612881Y0062817D03*
X0625085Y0072069D03*
X0631936Y0070967D03*
X0639770Y0076243D03*
D364*
X0634652Y0076183D03*
D365*
X0637428Y0076183D03*
X0632743Y0073073D03*
D366*
X0639692Y0076183D03*
D367*
X0639652Y0076124D03*
X0631896Y0070888D03*
X0627448Y0068329D03*
X0612841Y0062896D03*
X0613550Y0060928D03*
D368*
X0626995Y0069195D03*
X0627546Y0069589D03*
X0628688Y0070337D03*
X0628924Y0070494D03*
X0629081Y0070573D03*
X0629160Y0070652D03*
X0629396Y0070809D03*
X0629633Y0070967D03*
X0629869Y0071124D03*
X0630105Y0071282D03*
X0630341Y0071439D03*
X0630577Y0071597D03*
X0630814Y0071754D03*
X0631050Y0071912D03*
X0631719Y0072384D03*
X0631798Y0072463D03*
X0631955Y0072542D03*
X0632034Y0072620D03*
X0632192Y0072699D03*
X0632270Y0072778D03*
X0632428Y0072857D03*
X0632507Y0072935D03*
X0632664Y0073014D03*
X0632900Y0073132D03*
X0632979Y0073211D03*
X0633136Y0073290D03*
X0633215Y0073369D03*
X0633373Y0073447D03*
X0633451Y0073526D03*
X0633609Y0073605D03*
X0633688Y0073683D03*
X0633845Y0073762D03*
X0633924Y0073841D03*
X0634081Y0073920D03*
X0634160Y0073998D03*
X0634829Y0074471D03*
X0635066Y0074628D03*
X0635302Y0074786D03*
X0635538Y0074943D03*
X0635774Y0075101D03*
X0636010Y0075258D03*
X0636247Y0075416D03*
X0636483Y0075573D03*
X0636719Y0075731D03*
X0636955Y0075888D03*
X0637192Y0076046D03*
X0636010Y0072069D03*
X0624829Y0073605D03*
D369*
X0631778Y0070809D03*
X0639022Y0075652D03*
X0639534Y0076046D03*
X0612881Y0063211D03*
X0612881Y0063132D03*
X0612881Y0063054D03*
X0612881Y0062975D03*
X0613668Y0060849D03*
D370*
X0636050Y0073683D03*
X0639318Y0075888D03*
X0639475Y0075967D03*
D371*
X0639199Y0075809D03*
X0639121Y0075731D03*
X0636010Y0073605D03*
D372*
X0638668Y0075416D03*
X0638904Y0075573D03*
X0631739Y0070731D03*
X0613707Y0060770D03*
D373*
X0639042Y0075337D03*
D374*
X0637408Y0075258D03*
D375*
X0637310Y0075180D03*
X0639396Y0075258D03*
X0633176Y0072384D03*
D376*
X0632664Y0074865D03*
X0633136Y0075180D03*
X0630262Y0073211D03*
X0630105Y0073132D03*
X0629869Y0073014D03*
X0629790Y0072935D03*
X0629633Y0072857D03*
X0629554Y0072778D03*
X0629396Y0072699D03*
D377*
X0632979Y0072227D03*
X0633058Y0072306D03*
X0632507Y0069746D03*
X0637270Y0075101D03*
D378*
X0637231Y0075022D03*
D379*
X0637113Y0074943D03*
X0632900Y0072148D03*
D380*
X0632861Y0072069D03*
X0637073Y0074865D03*
D381*
X0636995Y0074786D03*
X0635814Y0072148D03*
X0632703Y0071912D03*
X0632310Y0069825D03*
D382*
X0636955Y0074707D03*
D383*
X0636877Y0074628D03*
X0632585Y0071754D03*
D384*
X0632546Y0071676D03*
X0636837Y0074550D03*
D385*
X0636719Y0074471D03*
X0632428Y0071597D03*
X0629318Y0069510D03*
X0629081Y0069353D03*
D386*
X0629199Y0069431D03*
X0629436Y0069589D03*
X0629593Y0069668D03*
X0629672Y0069746D03*
X0629829Y0069825D03*
X0632388Y0071518D03*
X0635656Y0072227D03*
X0636680Y0074392D03*
D387*
X0636601Y0074313D03*
X0636522Y0074235D03*
D388*
X0636444Y0074156D03*
D389*
X0636404Y0074077D03*
D390*
X0636325Y0073998D03*
D391*
X0636286Y0073920D03*
D392*
X0636207Y0073841D03*
X0636129Y0073762D03*
D393*
X0635951Y0073526D03*
X0635873Y0073447D03*
X0631660Y0070652D03*
X0612920Y0063526D03*
X0612920Y0063447D03*
X0613944Y0060613D03*
D394*
X0624770Y0073369D03*
D395*
X0635794Y0073369D03*
X0614022Y0060534D03*
X0619770Y0056282D03*
D396*
X0618865Y0072463D03*
X0624770Y0073290D03*
D397*
X0631542Y0070494D03*
X0635755Y0073290D03*
X0612959Y0063723D03*
D398*
X0613077Y0063959D03*
X0631345Y0070258D03*
X0635636Y0073132D03*
D399*
X0624849Y0073073D03*
D400*
X0630026Y0073073D03*
D401*
X0635558Y0073073D03*
D402*
X0635479Y0073014D03*
X0631266Y0070180D03*
X0631188Y0070101D03*
X0613156Y0064117D03*
D403*
X0624888Y0072857D03*
X0624888Y0072935D03*
D404*
X0631109Y0070022D03*
X0635400Y0072935D03*
D405*
X0628944Y0069274D03*
X0628865Y0069195D03*
X0628707Y0069117D03*
X0628629Y0069038D03*
X0628471Y0068959D03*
X0628392Y0068880D03*
X0628235Y0068802D03*
X0627999Y0068644D03*
X0624888Y0072778D03*
D406*
X0618865Y0072227D03*
X0635203Y0072699D03*
X0613353Y0064353D03*
D407*
X0624928Y0072542D03*
X0632329Y0071439D03*
D408*
X0625007Y0072384D03*
D409*
X0618865Y0072148D03*
D410*
X0618904Y0072069D03*
D411*
X0618904Y0071991D03*
D412*
X0627152Y0071991D03*
X0619751Y0056833D03*
D413*
X0632822Y0071991D03*
D414*
X0618904Y0071912D03*
D415*
X0618885Y0071754D03*
X0626995Y0071833D03*
X0627073Y0071912D03*
D416*
X0626759Y0071597D03*
X0618885Y0071833D03*
X0619751Y0056754D03*
D417*
X0626247Y0068723D03*
X0626404Y0068802D03*
X0626483Y0068880D03*
X0626640Y0068959D03*
X0626719Y0069038D03*
X0626877Y0069117D03*
X0627113Y0069274D03*
X0627192Y0069353D03*
X0627349Y0069431D03*
X0627428Y0069510D03*
X0627664Y0069668D03*
X0627822Y0069746D03*
X0627900Y0069825D03*
X0628570Y0070258D03*
X0628806Y0070416D03*
X0629278Y0070731D03*
X0629514Y0070888D03*
X0629751Y0071046D03*
X0629987Y0071203D03*
X0630223Y0071361D03*
X0630459Y0071518D03*
X0630696Y0071676D03*
X0630932Y0071833D03*
D418*
X0632625Y0071833D03*
D419*
X0626916Y0071754D03*
D420*
X0618944Y0071676D03*
D421*
X0626877Y0071676D03*
D422*
X0618944Y0071597D03*
D423*
X0618944Y0071518D03*
D424*
X0626719Y0071518D03*
D425*
X0618944Y0071439D03*
D426*
X0626562Y0071361D03*
X0626640Y0071439D03*
D427*
X0618944Y0071361D03*
D428*
X0618944Y0071282D03*
D429*
X0626483Y0071282D03*
D430*
X0618983Y0071203D03*
X0619770Y0057345D03*
D431*
X0626286Y0071124D03*
X0626444Y0071203D03*
D432*
X0618983Y0071124D03*
D433*
X0621542Y0070888D03*
X0621778Y0071046D03*
D434*
X0621660Y0070967D03*
X0621424Y0070809D03*
X0621345Y0070731D03*
D435*
X0621227Y0070652D03*
X0621148Y0070573D03*
D436*
X0621010Y0070494D03*
X0620932Y0070416D03*
D437*
X0612999Y0063802D03*
X0631503Y0070416D03*
D438*
X0620814Y0070337D03*
X0620735Y0070258D03*
D439*
X0620617Y0070180D03*
D440*
X0620577Y0070101D03*
D441*
X0620459Y0070022D03*
X0620381Y0069943D03*
D442*
X0620262Y0069884D03*
D443*
X0627999Y0069884D03*
D444*
X0629908Y0069884D03*
D445*
X0632093Y0069884D03*
D446*
X0620184Y0069825D03*
X0619554Y0060416D03*
D447*
X0619987Y0069668D03*
X0620066Y0069746D03*
D448*
X0619908Y0069589D03*
X0619829Y0069510D03*
X0619593Y0060180D03*
D449*
X0619633Y0069353D03*
X0619711Y0069431D03*
D450*
X0619554Y0069274D03*
X0619475Y0069195D03*
X0619554Y0060022D03*
D451*
X0619593Y0059943D03*
X0619357Y0069117D03*
D452*
X0619318Y0069038D03*
D453*
X0619199Y0068959D03*
X0619593Y0059865D03*
X0619593Y0059786D03*
D454*
X0619140Y0068880D03*
D455*
X0619062Y0068802D03*
X0618983Y0068723D03*
D456*
X0618904Y0068644D03*
X0618825Y0068565D03*
D457*
X0618747Y0068487D03*
D458*
X0618688Y0068408D03*
X0619593Y0059471D03*
D459*
X0619633Y0059392D03*
X0618570Y0068329D03*
D460*
X0618530Y0068250D03*
D461*
X0618491Y0068172D03*
X0618412Y0068093D03*
X0618412Y0068014D03*
X0619633Y0059313D03*
D462*
X0627034Y0068014D03*
D463*
X0620538Y0067935D03*
X0620538Y0067857D03*
D464*
X0620538Y0067778D03*
D465*
X0620577Y0067699D03*
D466*
X0620538Y0067620D03*
D467*
X0620577Y0067542D03*
D468*
X0620617Y0067463D03*
D469*
X0620577Y0067384D03*
D470*
X0620617Y0067306D03*
D471*
X0620656Y0067227D03*
D472*
X0620617Y0067148D03*
D473*
X0620656Y0067069D03*
D474*
X0620696Y0066991D03*
X0620696Y0066912D03*
D475*
X0620696Y0066833D03*
D476*
X0620735Y0066774D03*
D477*
X0620735Y0066715D03*
D478*
X0620774Y0066636D03*
D479*
X0620774Y0066557D03*
X0620774Y0066479D03*
D480*
X0620814Y0066400D03*
X0620814Y0066321D03*
X0620814Y0066243D03*
X0620735Y0065928D03*
D481*
X0620814Y0066085D03*
X0620814Y0066164D03*
D482*
X0620774Y0066006D03*
D483*
X0620499Y0065849D03*
D484*
X0619692Y0065770D03*
D485*
X0619337Y0065691D03*
X0619337Y0065061D03*
X0619337Y0064983D03*
X0619337Y0064904D03*
X0619337Y0064825D03*
X0619337Y0064746D03*
X0619337Y0064668D03*
X0619337Y0064589D03*
D486*
X0619298Y0065140D03*
X0619298Y0065219D03*
X0619298Y0065298D03*
X0619298Y0065376D03*
X0619298Y0065455D03*
X0619298Y0065534D03*
X0619298Y0065613D03*
D487*
X0613530Y0064510D03*
D488*
X0621936Y0064510D03*
X0619692Y0058211D03*
D489*
X0619692Y0058054D03*
X0622093Y0064431D03*
D490*
X0622172Y0064353D03*
X0619692Y0057975D03*
D491*
X0622251Y0064274D03*
D492*
X0622290Y0064195D03*
X0619731Y0057896D03*
D493*
X0619731Y0057817D03*
X0621739Y0060534D03*
X0622369Y0064117D03*
D494*
X0622408Y0064038D03*
D495*
X0622448Y0063959D03*
D496*
X0622487Y0063880D03*
X0621857Y0060613D03*
X0619692Y0057739D03*
D497*
X0621975Y0060691D03*
X0622526Y0063802D03*
D498*
X0622566Y0063723D03*
X0622566Y0063644D03*
X0622014Y0060770D03*
D499*
X0612959Y0063585D03*
D500*
X0622605Y0063585D03*
D501*
X0622644Y0063526D03*
X0622644Y0063447D03*
X0622172Y0060928D03*
D502*
X0622211Y0061006D03*
X0622684Y0063211D03*
X0622684Y0063290D03*
X0622684Y0063369D03*
X0619731Y0057581D03*
D503*
X0622251Y0061085D03*
X0622329Y0061164D03*
X0622408Y0061321D03*
X0622723Y0062896D03*
X0622723Y0062975D03*
X0622723Y0063054D03*
X0622723Y0063132D03*
D504*
X0622762Y0062817D03*
X0622762Y0062739D03*
X0622762Y0062660D03*
X0622448Y0061400D03*
X0622369Y0061243D03*
D505*
X0622487Y0061479D03*
X0622487Y0061557D03*
X0622566Y0061636D03*
X0622566Y0061715D03*
X0622566Y0061794D03*
X0622644Y0061872D03*
X0622644Y0061951D03*
X0622644Y0062030D03*
X0622644Y0062109D03*
X0622723Y0062345D03*
X0622723Y0062424D03*
X0622723Y0062502D03*
X0622723Y0062581D03*
X0619770Y0057502D03*
D506*
X0619770Y0056203D03*
X0613392Y0061243D03*
X0613314Y0061321D03*
X0613235Y0061479D03*
X0613156Y0061636D03*
X0612999Y0062109D03*
X0612920Y0062345D03*
X0612920Y0062424D03*
X0612920Y0062502D03*
D507*
X0622684Y0062266D03*
X0622684Y0062187D03*
D508*
X0622133Y0060849D03*
X0619731Y0057660D03*
D509*
X0614180Y0060475D03*
D510*
X0621621Y0060475D03*
D511*
X0619554Y0060337D03*
X0619554Y0060258D03*
D512*
X0619593Y0060101D03*
D513*
X0619593Y0059707D03*
D514*
X0619633Y0059628D03*
D515*
X0619593Y0059550D03*
D516*
X0619672Y0059235D03*
D517*
X0619633Y0059156D03*
D518*
X0619633Y0059077D03*
D519*
X0619633Y0058998D03*
D520*
X0619633Y0058920D03*
D521*
X0619672Y0058841D03*
D522*
X0619672Y0058762D03*
D523*
X0619672Y0058683D03*
D524*
X0619672Y0058605D03*
D525*
X0619672Y0058526D03*
D526*
X0619711Y0058447D03*
D527*
X0619672Y0058369D03*
D528*
X0619711Y0058290D03*
D529*
X0619692Y0058132D03*
D530*
X0619731Y0057424D03*
D531*
X0619731Y0057286D03*
D532*
X0619711Y0057227D03*
D533*
X0619751Y0057148D03*
D534*
X0619751Y0057069D03*
D535*
X0619751Y0056991D03*
D536*
X0619711Y0056912D03*
D537*
X0619751Y0056676D03*
D538*
X0619751Y0056597D03*
D539*
X0619751Y0056518D03*
D540*
X0619731Y0056439D03*
D541*
X0636818Y0118250D03*
X0636818Y0118408D03*
X0636818Y0118565D03*
X0636818Y0118723D03*
X0636818Y0118880D03*
X0636818Y0119038D03*
X0636818Y0119195D03*
X0636818Y0123605D03*
X0636818Y0123762D03*
X0636818Y0123920D03*
X0636818Y0124077D03*
X0636818Y0124235D03*
X0636818Y0124392D03*
X0636818Y0124550D03*
D542*
X0639554Y0131872D03*
X0639554Y0132030D03*
X0636719Y0133290D03*
X0649003Y0133290D03*
X0649416Y0120455D03*
X0649416Y0120298D03*
X0645322Y0119353D03*
X0624219Y0121085D03*
X0624219Y0123447D03*
X0629062Y0179510D03*
X0634731Y0181243D03*
X0634731Y0181400D03*
X0634731Y0181557D03*
X0634573Y0181715D03*
X0639140Y0181400D03*
X0639325Y0189510D03*
X0639325Y0189668D03*
X0639325Y0189825D03*
X0639325Y0189983D03*
X0639325Y0190140D03*
X0639325Y0190298D03*
X0639325Y0190455D03*
X0639325Y0190613D03*
X0639325Y0190770D03*
X0639325Y0190928D03*
X0635231Y0190928D03*
X0635231Y0191085D03*
X0629562Y0189510D03*
X0639318Y0231243D03*
X0639318Y0231400D03*
X0626877Y0232817D03*
D543*
X0632625Y0233762D03*
X0632625Y0229038D03*
X0634534Y0123447D03*
D544*
X0647211Y0123447D03*
D545*
X0649652Y0121400D03*
X0649652Y0121243D03*
X0649239Y0129668D03*
X0649239Y0132975D03*
X0636483Y0132975D03*
X0636483Y0129668D03*
X0623983Y0123290D03*
X0623983Y0120770D03*
X0628865Y0119353D03*
X0634495Y0180770D03*
X0634180Y0182345D03*
X0633865Y0183290D03*
X0637014Y0183447D03*
X0639377Y0181872D03*
X0639377Y0180928D03*
X0639562Y0191557D03*
X0634365Y0193290D03*
X0639617Y0199353D03*
X0639617Y0203290D03*
X0639459Y0213290D03*
X0639432Y0219353D03*
X0634865Y0219668D03*
X0629003Y0229353D03*
X0626010Y0229353D03*
X0626955Y0232502D03*
X0639554Y0232030D03*
X0639554Y0230770D03*
D546*
X0639948Y0229983D03*
X0639948Y0229825D03*
X0639948Y0229668D03*
X0637113Y0229668D03*
X0634593Y0229353D03*
X0630341Y0232975D03*
X0630341Y0233132D03*
X0626247Y0229983D03*
X0626089Y0229825D03*
X0629747Y0222975D03*
X0629747Y0219825D03*
X0630247Y0212817D03*
X0630247Y0209983D03*
X0639853Y0209983D03*
X0639853Y0209825D03*
X0639853Y0209668D03*
X0639853Y0209510D03*
X0639853Y0211400D03*
X0639853Y0211557D03*
X0639853Y0211715D03*
X0639853Y0211872D03*
X0639853Y0212030D03*
X0639853Y0212187D03*
X0639853Y0212345D03*
X0639825Y0219825D03*
X0639825Y0219983D03*
X0639825Y0220140D03*
X0639825Y0220298D03*
X0639825Y0220455D03*
X0639825Y0220613D03*
X0639825Y0220770D03*
X0639825Y0220928D03*
X0639825Y0221085D03*
X0639825Y0221243D03*
X0639825Y0221400D03*
X0639825Y0221557D03*
X0639948Y0232817D03*
X0639948Y0232975D03*
X0639948Y0233132D03*
X0640010Y0202187D03*
X0640010Y0201085D03*
X0640010Y0200928D03*
X0640010Y0200770D03*
X0640010Y0200613D03*
X0640010Y0200455D03*
X0640010Y0200298D03*
X0640010Y0200140D03*
X0630247Y0199825D03*
X0630247Y0202975D03*
X0629562Y0192660D03*
X0629562Y0190140D03*
X0629062Y0182660D03*
X0629062Y0180140D03*
X0634101Y0179825D03*
X0639770Y0179668D03*
X0639770Y0179510D03*
X0639770Y0179983D03*
X0639770Y0182817D03*
X0639770Y0183132D03*
X0639955Y0192660D03*
X0639955Y0192817D03*
X0639955Y0193132D03*
X0636089Y0131872D03*
X0636089Y0131715D03*
X0636089Y0131557D03*
X0636089Y0131400D03*
X0636089Y0131243D03*
X0636089Y0131085D03*
X0636089Y0130928D03*
X0642861Y0129510D03*
X0649633Y0130770D03*
X0649633Y0130928D03*
X0649633Y0131085D03*
X0649633Y0131243D03*
X0649633Y0131400D03*
X0649633Y0131557D03*
X0649633Y0131715D03*
X0649633Y0131872D03*
X0649633Y0132030D03*
X0650046Y0123132D03*
X0650046Y0122975D03*
X0650046Y0122817D03*
X0647054Y0122502D03*
X0645322Y0120298D03*
X0633353Y0122502D03*
X0631778Y0120140D03*
X0631778Y0119983D03*
X0627684Y0123290D03*
X0623589Y0122187D03*
X0623589Y0122030D03*
X0623589Y0121872D03*
X0623589Y0121715D03*
X0623589Y0119983D03*
X0623589Y0119825D03*
X0623589Y0119668D03*
D547*
X0626030Y0122345D03*
X0627762Y0121715D03*
X0627762Y0121557D03*
X0627605Y0121243D03*
X0627605Y0121085D03*
X0629652Y0122502D03*
X0629652Y0122660D03*
X0629652Y0122817D03*
X0629652Y0122975D03*
X0629652Y0123132D03*
X0629652Y0123290D03*
X0631227Y0122345D03*
X0631227Y0122187D03*
X0639888Y0122502D03*
X0639888Y0122660D03*
X0639888Y0122817D03*
X0639888Y0122975D03*
X0639888Y0123132D03*
X0639888Y0123290D03*
X0641463Y0122660D03*
X0641463Y0122502D03*
X0641463Y0120140D03*
X0641463Y0119983D03*
X0644928Y0122187D03*
X0644770Y0122502D03*
X0644770Y0122660D03*
X0644613Y0122817D03*
X0644613Y0122975D03*
X0644987Y0129510D03*
X0646562Y0130298D03*
X0644987Y0133290D03*
X0643412Y0131872D03*
X0642467Y0130770D03*
X0640735Y0131715D03*
X0640735Y0132502D03*
X0640735Y0132660D03*
X0640735Y0132817D03*
X0640735Y0132975D03*
X0640735Y0129668D03*
X0637014Y0180298D03*
X0629298Y0180928D03*
X0629298Y0181085D03*
X0629298Y0181243D03*
X0629298Y0181400D03*
X0629298Y0181557D03*
X0629298Y0181715D03*
X0629298Y0181872D03*
X0629798Y0190928D03*
X0629798Y0191085D03*
X0629798Y0191243D03*
X0629798Y0191400D03*
X0629798Y0191557D03*
X0629798Y0191715D03*
X0629798Y0191872D03*
X0637357Y0192345D03*
X0637255Y0201085D03*
X0630798Y0201085D03*
X0630798Y0200928D03*
X0630798Y0201243D03*
X0630798Y0201400D03*
X0630798Y0201557D03*
X0630798Y0201715D03*
X0630798Y0201872D03*
X0630298Y0220928D03*
X0630298Y0221085D03*
X0630298Y0221243D03*
X0630298Y0221400D03*
X0630298Y0221557D03*
X0630298Y0221715D03*
X0630298Y0221872D03*
X0631365Y0229825D03*
X0630892Y0230770D03*
X0630892Y0230928D03*
X0629003Y0231085D03*
X0629003Y0231243D03*
X0635144Y0232502D03*
X0634987Y0233290D03*
D548*
X0635066Y0232660D03*
X0637113Y0232345D03*
X0637113Y0230455D03*
X0631286Y0229983D03*
X0631129Y0230140D03*
X0631129Y0230298D03*
X0630971Y0230455D03*
X0630971Y0230613D03*
X0637176Y0201715D03*
X0637176Y0201557D03*
X0637176Y0201400D03*
X0637176Y0201243D03*
X0637278Y0192187D03*
X0636936Y0182345D03*
X0644908Y0133132D03*
X0644908Y0132975D03*
X0644908Y0132817D03*
X0644908Y0132660D03*
X0644908Y0132502D03*
X0644908Y0132345D03*
X0644908Y0132187D03*
X0644908Y0132030D03*
X0644908Y0131872D03*
X0644908Y0131715D03*
X0644908Y0131557D03*
X0644908Y0131400D03*
X0644908Y0131243D03*
X0644908Y0131085D03*
X0644908Y0130928D03*
X0644908Y0130770D03*
X0644908Y0130613D03*
X0644908Y0130455D03*
X0644908Y0130298D03*
X0644908Y0130140D03*
X0644908Y0129983D03*
X0644908Y0129825D03*
X0644908Y0129668D03*
X0643491Y0131557D03*
X0643491Y0131715D03*
X0642388Y0130928D03*
X0640814Y0130928D03*
X0640814Y0131085D03*
X0640814Y0131243D03*
X0640814Y0131400D03*
X0640814Y0131557D03*
X0640814Y0130770D03*
X0640814Y0130613D03*
X0640814Y0130455D03*
X0640814Y0130298D03*
X0640814Y0130140D03*
X0640814Y0129983D03*
X0640814Y0129825D03*
X0631148Y0123290D03*
X0631148Y0122660D03*
X0631148Y0122502D03*
X0633353Y0121243D03*
X0633353Y0121085D03*
X0637920Y0120928D03*
X0641385Y0120928D03*
X0641385Y0121085D03*
X0641385Y0120770D03*
X0641385Y0120613D03*
X0641385Y0120455D03*
X0641385Y0120298D03*
X0641385Y0121557D03*
X0641385Y0121715D03*
X0641385Y0121872D03*
X0641385Y0122030D03*
X0641385Y0122187D03*
X0641385Y0122345D03*
X0643117Y0120298D03*
X0647054Y0121085D03*
X0647054Y0121243D03*
X0627841Y0121872D03*
X0627841Y0122030D03*
X0627684Y0121400D03*
D549*
X0628786Y0120140D03*
X0628786Y0119510D03*
X0631936Y0119353D03*
X0639022Y0120140D03*
X0639022Y0120298D03*
X0639022Y0120455D03*
X0633353Y0123132D03*
X0633353Y0123290D03*
X0636404Y0129825D03*
X0647054Y0123290D03*
X0647054Y0123132D03*
X0649731Y0121715D03*
X0649731Y0121557D03*
X0645322Y0119668D03*
X0649318Y0129825D03*
X0649318Y0132817D03*
X0623904Y0123132D03*
X0629062Y0179825D03*
X0629062Y0182975D03*
X0634101Y0182502D03*
X0634416Y0180613D03*
X0633944Y0179510D03*
X0636936Y0179353D03*
X0639455Y0180770D03*
X0639455Y0182030D03*
X0629562Y0189825D03*
X0629562Y0192975D03*
X0634601Y0192502D03*
X0634601Y0192345D03*
X0639640Y0191872D03*
X0639640Y0191715D03*
X0630089Y0199353D03*
X0629932Y0209353D03*
X0639538Y0213132D03*
X0634786Y0219825D03*
X0634629Y0219983D03*
X0629589Y0219353D03*
X0639510Y0223290D03*
X0637113Y0229353D03*
X0639633Y0230613D03*
X0639633Y0232187D03*
X0637113Y0233447D03*
X0627034Y0232345D03*
D550*
X0626798Y0233132D03*
X0629640Y0189353D03*
X0629140Y0179353D03*
X0637054Y0123290D03*
X0636581Y0121715D03*
X0636581Y0121557D03*
X0636424Y0121400D03*
X0636424Y0121243D03*
X0628235Y0120455D03*
X0624455Y0121400D03*
X0649180Y0119510D03*
D551*
X0647133Y0122030D03*
X0645243Y0121085D03*
X0645243Y0120928D03*
X0644455Y0123290D03*
X0641778Y0123290D03*
X0633432Y0122030D03*
X0631542Y0121085D03*
X0631542Y0120928D03*
X0627762Y0122975D03*
X0639003Y0130455D03*
X0640577Y0129353D03*
X0642782Y0129825D03*
X0642782Y0129983D03*
X0643097Y0132660D03*
X0640577Y0133290D03*
X0646877Y0132030D03*
X0646877Y0130613D03*
X0637014Y0179983D03*
X0637014Y0182817D03*
X0631660Y0182345D03*
X0631660Y0180455D03*
X0629140Y0180455D03*
X0629140Y0182345D03*
X0629640Y0190455D03*
X0629640Y0192345D03*
X0632160Y0192345D03*
X0632160Y0190455D03*
X0637357Y0192817D03*
X0637570Y0200455D03*
X0637570Y0200613D03*
X0637570Y0200770D03*
X0637570Y0200928D03*
X0630483Y0200298D03*
X0630483Y0202502D03*
X0630483Y0210455D03*
X0630483Y0212345D03*
X0637412Y0212187D03*
X0637412Y0212030D03*
X0637412Y0211872D03*
X0637412Y0211715D03*
X0637412Y0209825D03*
X0637412Y0209668D03*
X0637412Y0209510D03*
X0637385Y0220455D03*
X0637385Y0222345D03*
X0629983Y0222502D03*
X0629983Y0220298D03*
X0634514Y0229510D03*
X0635302Y0230770D03*
X0635459Y0230928D03*
X0635459Y0231085D03*
X0635459Y0231715D03*
X0637034Y0229983D03*
X0632940Y0230455D03*
X0632940Y0230613D03*
X0630577Y0232030D03*
X0630577Y0232187D03*
X0626955Y0231243D03*
X0626955Y0231085D03*
X0626955Y0230928D03*
X0626798Y0230770D03*
D552*
X0627113Y0232030D03*
X0626010Y0229668D03*
X0629003Y0229825D03*
X0629003Y0229983D03*
X0630262Y0233290D03*
X0632940Y0233290D03*
X0637034Y0233132D03*
X0639869Y0233290D03*
X0639869Y0232660D03*
X0639869Y0230140D03*
X0639869Y0229510D03*
X0639747Y0222975D03*
X0639747Y0222817D03*
X0639747Y0222660D03*
X0639747Y0221715D03*
X0639747Y0219668D03*
X0639774Y0212660D03*
X0639774Y0212502D03*
X0639774Y0211243D03*
X0639774Y0211085D03*
X0639774Y0210455D03*
X0639774Y0210298D03*
X0639774Y0210140D03*
X0639774Y0209353D03*
X0634892Y0209510D03*
X0634892Y0209668D03*
X0634892Y0209825D03*
X0634892Y0209983D03*
X0630168Y0209825D03*
X0630168Y0212975D03*
X0629668Y0219668D03*
X0629668Y0223132D03*
X0630168Y0203132D03*
X0630168Y0199668D03*
X0635050Y0199668D03*
X0635050Y0199825D03*
X0635050Y0199983D03*
X0635050Y0199510D03*
X0639932Y0199825D03*
X0639932Y0199983D03*
X0639932Y0201243D03*
X0639932Y0201400D03*
X0639932Y0201715D03*
X0639932Y0201872D03*
X0639932Y0202030D03*
X0639932Y0202345D03*
X0639932Y0202502D03*
X0639932Y0202660D03*
X0639877Y0193290D03*
X0639877Y0192502D03*
X0637357Y0193290D03*
X0634522Y0192975D03*
X0634522Y0192817D03*
X0634022Y0182975D03*
X0634022Y0182817D03*
X0634180Y0180140D03*
X0634180Y0179983D03*
X0634022Y0179668D03*
X0637014Y0179668D03*
X0639692Y0179353D03*
X0639692Y0180140D03*
X0639692Y0182502D03*
X0639692Y0182660D03*
X0639692Y0183290D03*
X0637014Y0183132D03*
X0642940Y0133290D03*
X0642940Y0129353D03*
X0649554Y0130455D03*
X0649554Y0130613D03*
X0649554Y0132187D03*
X0649554Y0132345D03*
X0649967Y0123290D03*
X0649967Y0122660D03*
X0649967Y0122502D03*
X0647133Y0122660D03*
X0645400Y0120140D03*
X0645400Y0119983D03*
X0635007Y0120140D03*
X0633432Y0122660D03*
X0631857Y0119825D03*
X0631857Y0119668D03*
X0623668Y0119510D03*
X0623668Y0120140D03*
X0623668Y0120298D03*
X0623668Y0121557D03*
X0623668Y0122345D03*
X0623668Y0122502D03*
X0623668Y0122660D03*
X0636168Y0130455D03*
X0636168Y0130613D03*
X0636168Y0130770D03*
X0636168Y0132030D03*
X0636168Y0132187D03*
X0636168Y0132345D03*
D553*
X0638924Y0130613D03*
X0642861Y0129668D03*
X0643018Y0132817D03*
X0643018Y0132975D03*
X0646955Y0131872D03*
X0646955Y0130928D03*
X0646955Y0130770D03*
X0647054Y0122187D03*
X0645322Y0120770D03*
X0645322Y0120613D03*
X0641699Y0119353D03*
X0635243Y0120928D03*
X0635085Y0120770D03*
X0635085Y0120613D03*
X0633353Y0122187D03*
X0631621Y0120770D03*
X0631621Y0120613D03*
X0627684Y0123132D03*
X0631581Y0180613D03*
X0631424Y0180928D03*
X0632081Y0190613D03*
X0631924Y0190928D03*
X0630404Y0200140D03*
X0630404Y0202660D03*
X0630404Y0210298D03*
X0630404Y0212502D03*
X0629904Y0220140D03*
X0629904Y0222660D03*
X0637148Y0220928D03*
X0637306Y0220613D03*
X0637113Y0229825D03*
X0635538Y0231243D03*
X0635538Y0231557D03*
X0637113Y0232817D03*
X0631601Y0229353D03*
X0630499Y0232345D03*
X0630499Y0232502D03*
X0627034Y0231557D03*
X0627034Y0231400D03*
X0626719Y0230613D03*
X0626562Y0230455D03*
D554*
X0629003Y0231400D03*
X0629003Y0231557D03*
X0634987Y0232817D03*
X0634987Y0232975D03*
X0634987Y0233132D03*
X0637357Y0192030D03*
X0637014Y0182187D03*
X0637014Y0180455D03*
X0643570Y0131400D03*
X0642310Y0131243D03*
X0642310Y0131085D03*
X0631070Y0123132D03*
X0631070Y0122975D03*
X0631070Y0122817D03*
X0637999Y0120770D03*
X0637999Y0120613D03*
X0641306Y0121243D03*
X0641306Y0121400D03*
D555*
X0637054Y0122817D03*
X0637054Y0122975D03*
X0637054Y0123132D03*
X0636896Y0122660D03*
X0636896Y0122502D03*
X0649337Y0120140D03*
X0649337Y0119983D03*
X0636798Y0129353D03*
X0633707Y0183447D03*
X0629140Y0183290D03*
X0635310Y0189825D03*
X0635310Y0189983D03*
X0635310Y0190140D03*
X0635310Y0190298D03*
X0635310Y0190455D03*
X0635310Y0190613D03*
X0635310Y0190770D03*
X0639247Y0189353D03*
X0629640Y0193290D03*
X0635022Y0219353D03*
D556*
X0636755Y0221085D03*
X0636755Y0221243D03*
X0636755Y0221400D03*
X0636755Y0221557D03*
X0636755Y0221715D03*
X0630140Y0222187D03*
X0630140Y0220613D03*
X0630640Y0212030D03*
X0630640Y0210770D03*
X0637255Y0210298D03*
X0637255Y0212345D03*
X0637412Y0201872D03*
X0630640Y0202187D03*
X0630640Y0200613D03*
X0631530Y0191715D03*
X0631530Y0191557D03*
X0631530Y0191400D03*
X0631530Y0191243D03*
X0631530Y0191085D03*
X0637357Y0192502D03*
X0637014Y0182660D03*
X0637014Y0180140D03*
X0631030Y0181085D03*
X0631030Y0181243D03*
X0631030Y0181400D03*
X0631030Y0181557D03*
X0631030Y0181715D03*
X0631522Y0229510D03*
X0630735Y0231400D03*
X0630735Y0231557D03*
X0634672Y0229668D03*
X0634987Y0230298D03*
X0635144Y0230455D03*
X0635302Y0232030D03*
X0637034Y0230140D03*
X0643255Y0132345D03*
X0643255Y0132187D03*
X0642625Y0130298D03*
X0640735Y0129510D03*
X0638373Y0131085D03*
X0638373Y0131243D03*
X0638373Y0131400D03*
X0638373Y0131557D03*
X0646719Y0132345D03*
X0641621Y0123132D03*
X0639731Y0121715D03*
X0639731Y0121557D03*
X0641621Y0119668D03*
X0645085Y0121557D03*
X0645085Y0121715D03*
X0631385Y0121715D03*
X0631385Y0121557D03*
X0629495Y0121557D03*
X0629495Y0121715D03*
X0627762Y0122660D03*
X0626030Y0122187D03*
X0626030Y0122030D03*
X0626030Y0121872D03*
X0625873Y0121557D03*
X0627448Y0120770D03*
D557*
X0627526Y0120928D03*
X0627841Y0122187D03*
X0627841Y0122345D03*
X0627841Y0122502D03*
X0629573Y0122345D03*
X0629573Y0122187D03*
X0629573Y0122030D03*
X0629573Y0121872D03*
X0631306Y0121872D03*
X0631306Y0122030D03*
X0633353Y0121557D03*
X0633353Y0121400D03*
X0639810Y0121872D03*
X0639810Y0122030D03*
X0639810Y0122187D03*
X0639810Y0122345D03*
X0641542Y0122817D03*
X0641542Y0122975D03*
X0643117Y0122345D03*
X0643117Y0122187D03*
X0644534Y0123132D03*
X0644849Y0122345D03*
X0645007Y0122030D03*
X0645007Y0121872D03*
X0647054Y0121557D03*
X0647054Y0121400D03*
X0643117Y0120455D03*
X0641542Y0119825D03*
X0644908Y0129353D03*
X0642546Y0130455D03*
X0642546Y0130613D03*
X0643333Y0132030D03*
X0640656Y0132345D03*
X0640656Y0133132D03*
X0639081Y0130298D03*
X0631739Y0180298D03*
X0629219Y0180770D03*
X0629219Y0182030D03*
X0636936Y0182502D03*
X0632239Y0190298D03*
X0629719Y0190770D03*
X0629719Y0192030D03*
X0630719Y0200770D03*
X0630719Y0202030D03*
X0630719Y0210928D03*
X0630719Y0211085D03*
X0630719Y0211243D03*
X0630719Y0211400D03*
X0630719Y0211557D03*
X0630719Y0211715D03*
X0630719Y0211872D03*
X0630219Y0220770D03*
X0630219Y0222030D03*
X0637463Y0220298D03*
X0634751Y0229825D03*
X0634751Y0229983D03*
X0634908Y0230140D03*
X0633018Y0230298D03*
X0631444Y0229668D03*
X0630814Y0231085D03*
X0630814Y0231243D03*
X0635223Y0232187D03*
X0635223Y0232345D03*
X0637113Y0232502D03*
X0637113Y0230298D03*
D558*
X0639711Y0230455D03*
X0639711Y0232345D03*
X0629003Y0229510D03*
X0639589Y0219510D03*
X0639617Y0212975D03*
X0634892Y0209353D03*
X0630010Y0209510D03*
X0630010Y0213290D03*
X0630168Y0203290D03*
X0630168Y0199510D03*
X0635050Y0199353D03*
X0639774Y0199510D03*
X0639774Y0203132D03*
X0637357Y0193447D03*
X0639719Y0192030D03*
X0637014Y0183290D03*
X0639534Y0182187D03*
X0639534Y0180613D03*
X0639534Y0180455D03*
X0634337Y0180455D03*
X0636325Y0132817D03*
X0636325Y0132660D03*
X0636325Y0129983D03*
X0649396Y0129983D03*
X0649396Y0132660D03*
X0649810Y0122030D03*
X0649810Y0121872D03*
X0645400Y0119825D03*
X0628865Y0119825D03*
X0628865Y0119668D03*
X0628865Y0119983D03*
X0623825Y0120613D03*
X0623825Y0122975D03*
D559*
X0623747Y0122817D03*
X0623747Y0120455D03*
X0623747Y0119353D03*
X0631936Y0119510D03*
X0633353Y0122817D03*
X0633353Y0122975D03*
X0647054Y0122975D03*
X0647054Y0122817D03*
X0649888Y0122345D03*
X0649888Y0122187D03*
X0649475Y0130140D03*
X0649475Y0130298D03*
X0649475Y0132502D03*
X0636247Y0132502D03*
X0636247Y0130298D03*
X0636247Y0130140D03*
X0636936Y0179510D03*
X0639613Y0180298D03*
X0639613Y0182345D03*
X0639613Y0183447D03*
X0634101Y0182660D03*
X0633944Y0183132D03*
X0634259Y0180298D03*
X0629062Y0179983D03*
X0629062Y0182817D03*
X0629562Y0189983D03*
X0629562Y0192817D03*
X0634444Y0193132D03*
X0634601Y0192660D03*
X0639798Y0192345D03*
X0639798Y0192187D03*
X0639798Y0193447D03*
X0639853Y0199668D03*
X0639853Y0201557D03*
X0639853Y0202817D03*
X0639853Y0202975D03*
X0639696Y0210613D03*
X0639696Y0210770D03*
X0639696Y0210928D03*
X0639696Y0212817D03*
X0630089Y0213132D03*
X0630089Y0209668D03*
X0629589Y0219510D03*
X0629589Y0223290D03*
X0629081Y0229668D03*
X0625932Y0229510D03*
X0627034Y0232187D03*
X0637113Y0233290D03*
X0639790Y0233447D03*
X0639790Y0232502D03*
X0639790Y0230298D03*
X0639790Y0229353D03*
X0637113Y0229510D03*
X0639668Y0223132D03*
X0639668Y0222502D03*
X0639668Y0222345D03*
D560*
X0635223Y0230613D03*
X0635381Y0231872D03*
X0637113Y0232660D03*
X0630656Y0231872D03*
X0630656Y0231715D03*
X0630062Y0222345D03*
X0630062Y0220455D03*
X0630562Y0212187D03*
X0630562Y0210613D03*
X0637333Y0210140D03*
X0637333Y0209983D03*
X0637333Y0211557D03*
X0637491Y0202345D03*
X0637491Y0202187D03*
X0637491Y0202030D03*
X0637491Y0200298D03*
X0630562Y0200455D03*
X0630562Y0202345D03*
X0629719Y0192187D03*
X0629719Y0190613D03*
X0637278Y0192660D03*
X0629219Y0182187D03*
X0629219Y0180613D03*
X0643176Y0132502D03*
X0642703Y0130140D03*
X0646798Y0130455D03*
X0646798Y0132187D03*
X0639081Y0132345D03*
X0638451Y0131715D03*
X0643117Y0122030D03*
X0643117Y0121872D03*
X0643117Y0121715D03*
X0643117Y0121557D03*
X0643117Y0121400D03*
X0643117Y0121243D03*
X0643117Y0121085D03*
X0643117Y0120928D03*
X0643117Y0120770D03*
X0643117Y0120613D03*
X0641699Y0119510D03*
X0645164Y0121243D03*
X0645164Y0121400D03*
X0647054Y0121715D03*
X0647054Y0121872D03*
X0633353Y0121872D03*
X0633353Y0121715D03*
X0631463Y0121400D03*
X0631463Y0121243D03*
X0627841Y0122817D03*
X0625951Y0121715D03*
X0627369Y0120613D03*
D561*
X0631699Y0120455D03*
X0631699Y0120298D03*
X0633432Y0122345D03*
X0635007Y0120455D03*
X0635007Y0120298D03*
X0645400Y0120455D03*
X0647133Y0122345D03*
X0647034Y0131085D03*
X0647034Y0131243D03*
X0647034Y0131400D03*
X0647034Y0131557D03*
X0647034Y0131715D03*
X0642940Y0133132D03*
X0638845Y0130928D03*
X0638845Y0130770D03*
X0639849Y0179825D03*
X0637014Y0179825D03*
X0637014Y0182975D03*
X0639849Y0182975D03*
X0631503Y0180770D03*
X0629140Y0180298D03*
X0629140Y0182502D03*
X0629640Y0190298D03*
X0629640Y0192502D03*
X0632003Y0190770D03*
X0637357Y0192975D03*
X0637357Y0193132D03*
X0640034Y0192975D03*
X0630325Y0199983D03*
X0630325Y0202817D03*
X0630325Y0210140D03*
X0630325Y0212660D03*
X0637412Y0209353D03*
X0637227Y0220770D03*
X0629825Y0219983D03*
X0629825Y0222817D03*
X0629003Y0230140D03*
X0627113Y0231715D03*
X0627113Y0231872D03*
X0626483Y0230298D03*
X0626325Y0230140D03*
X0630420Y0232660D03*
X0630420Y0232817D03*
X0632940Y0232817D03*
X0632940Y0232660D03*
X0632940Y0232502D03*
X0632940Y0232345D03*
X0632940Y0232187D03*
X0632940Y0232030D03*
X0632940Y0231872D03*
X0632940Y0231715D03*
X0632940Y0231557D03*
X0632940Y0231400D03*
X0632940Y0231243D03*
X0632940Y0231085D03*
X0632940Y0230928D03*
X0632940Y0230770D03*
X0632940Y0232975D03*
X0632940Y0233132D03*
X0635617Y0231400D03*
X0637034Y0232975D03*
D562*
X0626877Y0232975D03*
X0634286Y0193447D03*
X0635231Y0189668D03*
X0636877Y0133447D03*
X0648845Y0129353D03*
X0636818Y0122345D03*
X0636818Y0122187D03*
X0636660Y0122030D03*
X0636660Y0121872D03*
X0624377Y0121243D03*
X0649259Y0119825D03*
X0649259Y0119668D03*
D563*
X0649101Y0119353D03*
X0636345Y0121085D03*
X0628156Y0120298D03*
X0635073Y0189510D03*
D564*
X0635073Y0191400D03*
X0635073Y0191557D03*
X0634916Y0191715D03*
X0639483Y0191400D03*
X0639483Y0191243D03*
X0629562Y0189668D03*
X0639298Y0181715D03*
X0639298Y0181085D03*
X0634573Y0180928D03*
X0629062Y0179668D03*
X0634944Y0219510D03*
X0639475Y0230928D03*
X0639475Y0231715D03*
X0639475Y0231872D03*
X0636562Y0133132D03*
X0649160Y0133132D03*
X0649573Y0121085D03*
X0649573Y0120928D03*
X0645322Y0119510D03*
X0624062Y0120928D03*
D565*
X0633353Y0120928D03*
X0633353Y0120770D03*
X0647054Y0120770D03*
X0647054Y0120928D03*
X0643648Y0131243D03*
X0642231Y0131400D03*
X0631286Y0050077D03*
X0611286Y0048790D03*
X0611286Y0051467D03*
X0637113Y0230613D03*
X0637113Y0232187D03*
X0613538Y0287065D03*
X0613381Y0287065D03*
D566*
X0626955Y0232660D03*
X0639396Y0231557D03*
X0639396Y0231085D03*
X0639274Y0223447D03*
X0629640Y0193132D03*
X0635152Y0191243D03*
X0639404Y0191085D03*
X0629140Y0183132D03*
X0634652Y0181085D03*
X0633865Y0179353D03*
X0639219Y0181243D03*
X0639219Y0181557D03*
X0639633Y0132187D03*
X0636640Y0129510D03*
X0649081Y0129510D03*
X0649495Y0120770D03*
X0649495Y0120613D03*
D567*
X0637133Y0119983D03*
D568*
X0637054Y0119825D03*
X0637054Y0119668D03*
D569*
X0636975Y0119510D03*
D570*
X0636975Y0119353D03*
D571*
X0648509Y0166291D03*
X0648745Y0166291D03*
X0648981Y0166291D03*
X0649218Y0166291D03*
X0649454Y0166291D03*
X0649690Y0166291D03*
X0649926Y0166291D03*
X0656540Y0166291D03*
X0656777Y0166291D03*
X0657013Y0166291D03*
X0657249Y0166291D03*
X0657485Y0166291D03*
X0657722Y0166291D03*
X0657958Y0166291D03*
D572*
X0656304Y0175268D03*
X0650162Y0157315D03*
D573*
X0650162Y0169480D03*
D574*
X0650399Y0175504D03*
X0652288Y0161331D03*
X0652525Y0161331D03*
X0650399Y0157079D03*
D575*
X0654651Y0160504D03*
X0656304Y0162866D03*
X0655596Y0166173D03*
X0655359Y0166173D03*
X0651344Y0166646D03*
X0652288Y0172315D03*
X0654414Y0172315D03*
X0650399Y0162866D03*
D576*
X0650399Y0166409D03*
X0656304Y0166409D03*
X0654651Y0176331D03*
X0654414Y0176331D03*
X0652052Y0176331D03*
X0651816Y0176331D03*
X0651816Y0156252D03*
X0652052Y0156252D03*
X0652288Y0156252D03*
X0654178Y0156252D03*
X0654414Y0156252D03*
X0654651Y0156252D03*
D577*
X0655832Y0163102D03*
X0652761Y0163102D03*
X0651580Y0163102D03*
X0651344Y0163102D03*
X0651107Y0163102D03*
X0650871Y0163102D03*
X0654178Y0165701D03*
X0652525Y0167118D03*
X0650399Y0169480D03*
X0654887Y0171843D03*
X0656068Y0169480D03*
D578*
X0650635Y0175740D03*
X0650635Y0156843D03*
D579*
X0654887Y0160622D03*
X0651816Y0162984D03*
X0650635Y0162984D03*
X0654414Y0165819D03*
X0654651Y0165819D03*
X0652288Y0167000D03*
X0656304Y0169362D03*
D580*
X0653706Y0172551D03*
X0653470Y0172551D03*
X0653233Y0172551D03*
X0652997Y0172551D03*
X0652761Y0172551D03*
X0650635Y0166409D03*
X0653942Y0160268D03*
X0654178Y0160268D03*
D581*
X0654178Y0163220D03*
X0653942Y0163220D03*
X0653706Y0163220D03*
X0653470Y0163220D03*
X0653233Y0163220D03*
X0652997Y0163220D03*
X0654414Y0163220D03*
X0654651Y0163220D03*
X0654887Y0163220D03*
X0655123Y0163220D03*
X0655359Y0163220D03*
X0655596Y0163220D03*
X0653942Y0165583D03*
X0652997Y0167236D03*
X0652761Y0167236D03*
X0652761Y0169362D03*
X0652997Y0169362D03*
X0653233Y0169362D03*
X0653470Y0169362D03*
X0653706Y0169362D03*
X0653942Y0169362D03*
X0654178Y0169362D03*
X0654414Y0169362D03*
X0654651Y0169362D03*
X0654887Y0169362D03*
X0655123Y0169362D03*
X0655359Y0169362D03*
X0655596Y0169362D03*
X0655832Y0169362D03*
X0652525Y0169362D03*
X0652288Y0169362D03*
X0652052Y0169362D03*
X0651816Y0169362D03*
X0651580Y0169362D03*
X0651344Y0169362D03*
X0651107Y0169362D03*
X0650871Y0169362D03*
X0650635Y0169362D03*
D582*
X0650871Y0175858D03*
X0655832Y0175858D03*
X0655832Y0156724D03*
X0650871Y0156724D03*
D583*
X0654414Y0160386D03*
X0655832Y0166291D03*
X0651107Y0166528D03*
X0650871Y0166528D03*
X0652525Y0172433D03*
X0653942Y0172433D03*
X0654178Y0172433D03*
D584*
X0655359Y0176094D03*
X0651344Y0176094D03*
X0651344Y0156488D03*
X0651107Y0156488D03*
X0655359Y0156488D03*
D585*
X0655596Y0156606D03*
X0655596Y0175976D03*
X0651107Y0175976D03*
D586*
X0651580Y0176213D03*
X0654887Y0176213D03*
X0655123Y0176213D03*
X0655123Y0156370D03*
X0654887Y0156370D03*
X0651580Y0156370D03*
D587*
X0652761Y0159677D03*
X0651816Y0160622D03*
X0655123Y0166055D03*
X0651580Y0166764D03*
X0652052Y0172197D03*
X0654651Y0172197D03*
D588*
X0651816Y0172079D03*
X0651816Y0166882D03*
X0652052Y0166882D03*
X0654887Y0165937D03*
X0656068Y0163102D03*
X0653706Y0159559D03*
X0653470Y0159559D03*
X0653233Y0159559D03*
X0652997Y0159559D03*
D589*
X0652052Y0161449D03*
X0656068Y0156961D03*
X0656068Y0175622D03*
D590*
X0654178Y0176449D03*
X0653942Y0176449D03*
X0653706Y0176449D03*
X0653470Y0176449D03*
X0653233Y0176449D03*
X0652997Y0176449D03*
X0652761Y0176449D03*
X0652525Y0176449D03*
X0652288Y0176449D03*
X0656068Y0166291D03*
X0653942Y0156134D03*
X0653706Y0156134D03*
X0653470Y0156134D03*
X0653233Y0156134D03*
X0652997Y0156134D03*
X0652761Y0156134D03*
X0652525Y0156134D03*
D591*
X0653233Y0165346D03*
X0653470Y0167472D03*
X0573491Y0288802D03*
X0573491Y0289038D03*
X0576798Y0291636D03*
X0556010Y0291400D03*
D592*
X0653233Y0167354D03*
X0653470Y0165465D03*
X0653706Y0165465D03*
D593*
X0656304Y0157197D03*
D594*
X0642861Y0134550D03*
X0642861Y0134392D03*
X0642861Y0134235D03*
X0642861Y0134077D03*
X0642861Y0133920D03*
X0642861Y0133762D03*
X0642861Y0133605D03*
X0642861Y0129195D03*
X0642861Y0129038D03*
X0642861Y0128880D03*
X0642861Y0128723D03*
X0642861Y0128565D03*
X0642861Y0128408D03*
X0642861Y0128250D03*
D595*
X0644987Y0133447D03*
D596*
X0631286Y0046691D03*
X0631286Y0045274D03*
X0631286Y0041652D03*
X0611286Y0047294D03*
X0611333Y0286987D03*
X0611176Y0286987D03*
X0611018Y0286987D03*
X0611491Y0286987D03*
X0611648Y0286987D03*
X0611806Y0286987D03*
X0611963Y0286987D03*
X0612121Y0286987D03*
X0612908Y0286987D03*
X0613066Y0286987D03*
X0613223Y0286987D03*
X0613066Y0289979D03*
X0613066Y0292813D03*
X0612908Y0292813D03*
X0612751Y0292813D03*
X0612593Y0292813D03*
X0612436Y0292813D03*
X0612278Y0292813D03*
X0610861Y0295806D03*
X0610703Y0295806D03*
X0610546Y0295806D03*
X0610388Y0295806D03*
D597*
X0610703Y0292735D03*
X0610861Y0292735D03*
X0612121Y0292735D03*
X0613223Y0292735D03*
X0613381Y0292735D03*
X0613381Y0290057D03*
X0613223Y0290057D03*
X0611018Y0290057D03*
X0610861Y0290057D03*
X0610861Y0286908D03*
X0612278Y0286908D03*
X0612593Y0286908D03*
X0612751Y0286908D03*
X0613408Y0266491D03*
X0611676Y0266491D03*
X0615538Y0045955D03*
X0611286Y0044695D03*
X0631286Y0043778D03*
D598*
X0631444Y0045274D03*
X0631601Y0045274D03*
X0631759Y0045274D03*
X0631916Y0045274D03*
X0632073Y0045274D03*
X0632231Y0045274D03*
X0632388Y0045274D03*
X0632546Y0045274D03*
X0632703Y0045274D03*
X0632861Y0045274D03*
X0633018Y0045274D03*
X0633176Y0045274D03*
X0633333Y0045274D03*
X0633491Y0045274D03*
X0633648Y0045274D03*
X0633806Y0045274D03*
X0633963Y0045274D03*
X0634121Y0045274D03*
X0634278Y0045274D03*
X0634436Y0045274D03*
X0634593Y0045274D03*
X0634751Y0045274D03*
X0634908Y0045274D03*
X0635066Y0045274D03*
X0635223Y0045274D03*
X0635223Y0043857D03*
X0635223Y0041652D03*
X0635066Y0041652D03*
X0634908Y0041652D03*
X0634751Y0041652D03*
X0634593Y0041652D03*
X0634436Y0041652D03*
X0634278Y0041652D03*
X0634121Y0041652D03*
X0632703Y0041652D03*
X0632546Y0041652D03*
X0632388Y0041652D03*
X0632231Y0041652D03*
X0632073Y0041652D03*
X0631916Y0041652D03*
X0631759Y0041652D03*
X0631601Y0041652D03*
X0631444Y0041652D03*
X0631444Y0046691D03*
X0631601Y0046691D03*
X0615223Y0043357D03*
X0611444Y0047294D03*
X0611444Y0048869D03*
X0611444Y0051388D03*
X0615223Y0051388D03*
X0612936Y0266569D03*
X0612778Y0266569D03*
X0612306Y0266569D03*
X0612148Y0266569D03*
X0611806Y0285569D03*
X0611648Y0285569D03*
X0611491Y0285569D03*
X0611333Y0285569D03*
X0613223Y0285569D03*
X0613381Y0285569D03*
X0611806Y0289821D03*
X0610388Y0290294D03*
X0612751Y0291396D03*
X0613696Y0290294D03*
D599*
X0613538Y0290215D03*
X0613538Y0292577D03*
X0611806Y0292577D03*
X0611176Y0292577D03*
X0610546Y0290215D03*
X0610546Y0286750D03*
X0611176Y0285491D03*
X0611963Y0285491D03*
X0612908Y0285491D03*
X0613066Y0285491D03*
X0613093Y0266491D03*
X0613251Y0266491D03*
X0611991Y0266491D03*
X0611833Y0266491D03*
X0615381Y0051467D03*
X0615381Y0048790D03*
X0615381Y0043278D03*
X0615381Y0041073D03*
X0611444Y0044695D03*
X0631444Y0043778D03*
X0635381Y0045195D03*
X0635381Y0041573D03*
X0631444Y0050077D03*
D600*
X0631601Y0050077D03*
X0631759Y0050077D03*
X0631916Y0050077D03*
X0632073Y0050077D03*
X0632231Y0050077D03*
X0632388Y0050077D03*
X0632546Y0050077D03*
X0632703Y0050077D03*
X0632861Y0050077D03*
X0633018Y0050077D03*
X0633176Y0050077D03*
X0633333Y0050077D03*
X0633491Y0050077D03*
X0633648Y0050077D03*
X0633806Y0050077D03*
X0633963Y0050077D03*
X0634121Y0050077D03*
X0634278Y0050077D03*
X0634436Y0050077D03*
X0634436Y0046770D03*
X0634278Y0046770D03*
X0634121Y0046770D03*
X0633963Y0046770D03*
X0633806Y0046770D03*
X0633648Y0046770D03*
X0633491Y0046770D03*
X0633333Y0046770D03*
X0633176Y0046770D03*
X0633018Y0046770D03*
X0632861Y0046770D03*
X0632703Y0046770D03*
X0632546Y0046770D03*
X0632388Y0046770D03*
X0632231Y0046770D03*
X0632073Y0046770D03*
X0631916Y0046770D03*
X0631759Y0046770D03*
X0631601Y0043778D03*
X0635066Y0043778D03*
X0615066Y0043278D03*
X0614908Y0043278D03*
X0614593Y0043120D03*
X0614436Y0043120D03*
X0613018Y0043278D03*
X0612861Y0043278D03*
X0612703Y0043278D03*
X0612546Y0043278D03*
X0612546Y0044695D03*
X0612703Y0044695D03*
X0612861Y0044695D03*
X0613018Y0044695D03*
X0613176Y0044695D03*
X0613333Y0044695D03*
X0613491Y0044695D03*
X0613648Y0044695D03*
X0613806Y0044695D03*
X0613963Y0044695D03*
X0614121Y0044853D03*
X0614278Y0044853D03*
X0612388Y0044695D03*
X0612231Y0044695D03*
X0612073Y0044695D03*
X0611916Y0044695D03*
X0611759Y0044695D03*
X0611601Y0044695D03*
X0611601Y0047372D03*
X0611759Y0047372D03*
X0611916Y0047372D03*
X0612073Y0047372D03*
X0612231Y0047372D03*
X0612388Y0047372D03*
X0612546Y0047372D03*
X0612703Y0047372D03*
X0612861Y0047372D03*
X0613018Y0047372D03*
X0613176Y0047372D03*
X0613333Y0047372D03*
X0613491Y0047372D03*
X0613648Y0047372D03*
X0613806Y0047372D03*
X0613963Y0047215D03*
X0614121Y0047215D03*
X0614121Y0048790D03*
X0614278Y0048790D03*
X0614436Y0048790D03*
X0614593Y0048790D03*
X0614751Y0048790D03*
X0614908Y0048790D03*
X0615066Y0048790D03*
X0615223Y0048790D03*
X0613963Y0048790D03*
X0613806Y0048790D03*
X0613648Y0048790D03*
X0613491Y0048790D03*
X0613333Y0048790D03*
X0611601Y0048790D03*
X0611601Y0051467D03*
X0611759Y0051467D03*
X0611916Y0051467D03*
X0612073Y0051467D03*
X0612231Y0051467D03*
X0612388Y0051467D03*
X0612546Y0051467D03*
X0612703Y0051467D03*
X0612861Y0051467D03*
X0613018Y0051467D03*
X0613176Y0051467D03*
X0613333Y0051467D03*
X0613491Y0051467D03*
X0613176Y0041073D03*
X0613018Y0041073D03*
X0612861Y0041073D03*
X0612703Y0041073D03*
X0612546Y0041073D03*
X0612388Y0041073D03*
X0614436Y0041073D03*
X0614593Y0041073D03*
X0614751Y0041073D03*
X0614908Y0041073D03*
X0615066Y0041073D03*
X0615223Y0041073D03*
X0612621Y0266491D03*
X0612463Y0266491D03*
X0613538Y0285648D03*
X0611648Y0289743D03*
X0611963Y0289900D03*
X0610388Y0292577D03*
X0613696Y0292577D03*
D601*
X0612121Y0289979D03*
X0610388Y0286672D03*
X0613696Y0285569D03*
X0615066Y0051388D03*
X0613491Y0050128D03*
X0613333Y0050128D03*
X0611759Y0048869D03*
X0614278Y0047136D03*
X0614436Y0046979D03*
X0614751Y0043199D03*
X0613176Y0043199D03*
X0612388Y0043199D03*
X0631759Y0043699D03*
X0634908Y0043699D03*
D602*
X0634751Y0043620D03*
X0634593Y0043463D03*
X0634436Y0043306D03*
X0634278Y0043148D03*
X0634121Y0042991D03*
X0632703Y0042991D03*
X0632546Y0043148D03*
X0632388Y0043306D03*
X0632231Y0043463D03*
X0632073Y0043463D03*
X0631916Y0043620D03*
X0614436Y0045010D03*
X0611286Y0041703D03*
X0611916Y0048947D03*
X0614751Y0051309D03*
X0614908Y0051309D03*
X0611648Y0292262D03*
X0611018Y0296357D03*
X0613066Y0296357D03*
X0613223Y0296357D03*
X0613381Y0296357D03*
D603*
X0608971Y0300294D03*
X0608814Y0300136D03*
X0612436Y0290372D03*
X0612751Y0289113D03*
X0611491Y0289113D03*
X0611333Y0289113D03*
X0609129Y0282813D03*
X0609471Y0269010D03*
X0609314Y0268853D03*
X0609629Y0263813D03*
X0613648Y0050837D03*
X0613176Y0049420D03*
X0611444Y0041861D03*
X0632861Y0042361D03*
X0633963Y0042361D03*
D604*
X0633806Y0042282D03*
X0633018Y0042282D03*
X0613806Y0050916D03*
X0613018Y0049341D03*
X0609471Y0263892D03*
X0609314Y0264050D03*
X0608971Y0282892D03*
X0608814Y0283050D03*
X0611176Y0289191D03*
X0611648Y0295963D03*
X0612436Y0295963D03*
D605*
X0612908Y0289113D03*
X0613963Y0050994D03*
X0614121Y0050994D03*
X0612861Y0049262D03*
X0612703Y0049262D03*
X0615223Y0045955D03*
X0633176Y0042203D03*
X0633648Y0042203D03*
D606*
X0633491Y0042124D03*
X0633333Y0042124D03*
X0614278Y0051073D03*
X0612546Y0049183D03*
X0611491Y0292026D03*
X0611333Y0292026D03*
X0611806Y0296120D03*
X0611963Y0296120D03*
X0612121Y0296120D03*
X0612278Y0296120D03*
D607*
X0609129Y0300372D03*
X0609286Y0282735D03*
X0613696Y0283050D03*
X0609629Y0269089D03*
X0609786Y0263735D03*
X0634593Y0047479D03*
X0615066Y0046034D03*
D608*
X0611601Y0041861D03*
X0635381Y0047715D03*
X0634593Y0050865D03*
X0609944Y0263656D03*
X0609786Y0269168D03*
X0609444Y0282656D03*
X0613538Y0282971D03*
X0609286Y0300451D03*
D609*
X0609601Y0300451D03*
X0613066Y0282813D03*
X0613223Y0282813D03*
X0613566Y0269168D03*
X0613881Y0269010D03*
X0614038Y0268853D03*
X0610101Y0269168D03*
X0613566Y0263813D03*
X0614038Y0264128D03*
X0634751Y0051022D03*
X0634908Y0051022D03*
X0635066Y0051022D03*
X0635223Y0051022D03*
X0635223Y0047715D03*
X0635066Y0047715D03*
X0634908Y0047715D03*
X0634751Y0047715D03*
X0614751Y0045955D03*
X0614278Y0042018D03*
X0614121Y0042018D03*
X0613963Y0042018D03*
X0613806Y0042018D03*
X0611916Y0042018D03*
D610*
X0635381Y0043699D03*
X0612436Y0286829D03*
X0613696Y0286987D03*
X0610703Y0286829D03*
X0610703Y0290136D03*
X0611176Y0291396D03*
X0611018Y0292656D03*
X0610546Y0292656D03*
X0611963Y0292656D03*
X0612908Y0291396D03*
D611*
X0613381Y0282892D03*
X0609601Y0282735D03*
X0609944Y0269246D03*
X0610101Y0263735D03*
X0609444Y0300530D03*
X0635381Y0051101D03*
X0614908Y0046034D03*
X0611759Y0041939D03*
D612*
X0612073Y0042097D03*
X0612231Y0042097D03*
X0613491Y0042097D03*
X0613648Y0042097D03*
X0614593Y0046034D03*
X0612936Y0263577D03*
X0612778Y0263577D03*
X0613251Y0263735D03*
X0613408Y0263735D03*
X0613723Y0263892D03*
X0613881Y0264050D03*
X0614196Y0264365D03*
X0614196Y0268617D03*
X0613723Y0269089D03*
X0613408Y0269246D03*
X0613251Y0269246D03*
X0613093Y0269404D03*
X0612936Y0269404D03*
X0612778Y0269404D03*
X0612751Y0282735D03*
X0612908Y0282735D03*
X0612908Y0295491D03*
X0611176Y0295491D03*
X0610388Y0300687D03*
D613*
X0613538Y0296435D03*
X0612278Y0290136D03*
X0614593Y0051231D03*
X0612231Y0049026D03*
X0612073Y0049026D03*
X0615381Y0046034D03*
D614*
X0612388Y0049105D03*
X0614436Y0051152D03*
X0613696Y0296357D03*
D615*
X0612751Y0295412D03*
X0612593Y0295412D03*
X0611491Y0295412D03*
X0611333Y0295412D03*
X0610861Y0300766D03*
X0610703Y0300766D03*
X0610546Y0300766D03*
X0610388Y0282656D03*
X0612278Y0282656D03*
X0612436Y0282656D03*
X0612593Y0282656D03*
X0612621Y0269483D03*
X0612463Y0269483D03*
X0612306Y0269483D03*
X0612148Y0269483D03*
X0611991Y0269483D03*
X0613093Y0263656D03*
X0612621Y0263498D03*
X0612463Y0263498D03*
X0612306Y0263498D03*
X0612148Y0263498D03*
X0613333Y0042176D03*
D616*
X0614483Y0291632D03*
X0608184Y0291632D03*
D617*
X0608341Y0291632D03*
X0614325Y0291632D03*
D618*
X0614168Y0291632D03*
X0608499Y0291632D03*
D619*
X0608656Y0291632D03*
X0614010Y0291632D03*
D620*
X0609916Y0291632D03*
X0609759Y0291632D03*
D621*
X0610073Y0291632D03*
X0610231Y0291632D03*
D622*
X0610546Y0282577D03*
X0610703Y0282577D03*
X0610861Y0282577D03*
X0611018Y0282577D03*
X0611176Y0282577D03*
X0611333Y0282577D03*
X0611491Y0282577D03*
X0611648Y0282577D03*
X0611806Y0282577D03*
X0611963Y0282577D03*
X0612121Y0282577D03*
X0611833Y0269404D03*
X0611676Y0269404D03*
X0611518Y0269404D03*
X0611676Y0263577D03*
X0611833Y0263577D03*
X0611991Y0263577D03*
D623*
X0612278Y0300057D03*
X0612436Y0300057D03*
X0612593Y0300057D03*
X0611018Y0300215D03*
D624*
X0611176Y0300136D03*
X0611333Y0300136D03*
X0611491Y0300136D03*
X0611648Y0300136D03*
X0611806Y0300136D03*
X0611963Y0300136D03*
X0612121Y0300136D03*
X0614983Y0266491D03*
X0608684Y0266491D03*
D625*
X0610888Y0269010D03*
X0610888Y0263971D03*
X0611046Y0263813D03*
X0612593Y0289900D03*
X0613381Y0299821D03*
D626*
X0612908Y0299979D03*
X0612751Y0299979D03*
D627*
X0613066Y0299900D03*
X0613223Y0299900D03*
D628*
X0613538Y0299743D03*
X0611046Y0269246D03*
X0611203Y0263735D03*
D629*
X0611361Y0263656D03*
X0611518Y0263656D03*
X0611361Y0269325D03*
X0611203Y0269325D03*
X0613696Y0299664D03*
D630*
X0613853Y0291632D03*
D631*
X0614825Y0266491D03*
X0608841Y0266491D03*
D632*
X0608999Y0266491D03*
X0614668Y0266491D03*
D633*
X0614510Y0266491D03*
X0609156Y0266491D03*
D634*
X0610259Y0266491D03*
X0610416Y0266491D03*
D635*
X0610573Y0266491D03*
X0610731Y0266491D03*
D636*
X0614353Y0266491D03*
D637*
X0632231Y0234550D03*
X0632231Y0228250D03*
D638*
X0632310Y0228408D03*
X0632310Y0234392D03*
D639*
X0632388Y0234235D03*
X0632388Y0228565D03*
D640*
X0632467Y0228723D03*
X0632467Y0234077D03*
D641*
X0632546Y0233920D03*
X0632546Y0228880D03*
D642*
X0632703Y0229195D03*
X0632703Y0233605D03*
D643*
X0630105Y0233447D03*
D644*
X0626798Y0233290D03*
X0633448Y0222030D03*
X0633448Y0221872D03*
X0633448Y0221715D03*
X0633448Y0221557D03*
X0633448Y0221400D03*
X0633448Y0221243D03*
X0633448Y0221085D03*
X0633448Y0220928D03*
X0633448Y0220770D03*
X0633948Y0213132D03*
X0633948Y0212975D03*
X0633948Y0212817D03*
X0633948Y0212660D03*
X0633948Y0212502D03*
X0633948Y0212345D03*
X0633948Y0212187D03*
X0633948Y0212030D03*
X0633948Y0211872D03*
X0633948Y0211715D03*
X0633948Y0211557D03*
X0633948Y0211400D03*
X0633948Y0211243D03*
X0633948Y0211085D03*
X0633948Y0210928D03*
X0633948Y0210770D03*
X0633948Y0210613D03*
X0633948Y0210455D03*
X0633948Y0210298D03*
X0633948Y0210140D03*
X0634105Y0202975D03*
X0634105Y0202817D03*
X0634105Y0202660D03*
X0634105Y0202502D03*
X0634105Y0202345D03*
X0634105Y0202187D03*
X0634105Y0202030D03*
X0634105Y0201872D03*
X0634105Y0201715D03*
X0634105Y0201557D03*
X0634105Y0201400D03*
X0634105Y0201243D03*
X0634105Y0201085D03*
X0634105Y0200928D03*
X0634105Y0200770D03*
X0634105Y0200613D03*
X0634105Y0200455D03*
X0634105Y0200298D03*
X0634105Y0200140D03*
X0629798Y0193447D03*
X0629298Y0183447D03*
D645*
X0633471Y0184550D03*
X0633471Y0178250D03*
D646*
X0633550Y0178408D03*
X0633550Y0184392D03*
D647*
X0633629Y0184235D03*
X0633629Y0178565D03*
X0633814Y0188250D03*
X0633814Y0194550D03*
D648*
X0633892Y0194392D03*
X0633892Y0188408D03*
X0633707Y0184077D03*
X0633707Y0178723D03*
D649*
X0633786Y0178880D03*
X0633786Y0183920D03*
X0633971Y0188565D03*
X0633971Y0194235D03*
D650*
X0634050Y0194077D03*
X0634050Y0188723D03*
X0633865Y0183762D03*
X0633865Y0179038D03*
D651*
X0633944Y0179195D03*
X0633944Y0183605D03*
X0634129Y0188880D03*
X0634129Y0193920D03*
X0633999Y0218250D03*
X0633999Y0224550D03*
D652*
X0633920Y0223132D03*
X0633235Y0182187D03*
D653*
X0633235Y0182030D03*
D654*
X0633314Y0181872D03*
D655*
X0634207Y0189038D03*
X0634207Y0193762D03*
X0634077Y0218408D03*
X0634077Y0224392D03*
D656*
X0634156Y0224235D03*
X0634156Y0218565D03*
X0634184Y0214550D03*
X0634184Y0208250D03*
X0634341Y0204550D03*
X0634341Y0198250D03*
X0634286Y0193605D03*
X0634286Y0189195D03*
D657*
X0633656Y0192187D03*
D658*
X0633656Y0192030D03*
X0633656Y0191872D03*
X0633999Y0223290D03*
D659*
X0633526Y0222345D03*
X0633526Y0222187D03*
X0633526Y0220613D03*
X0633526Y0220455D03*
X0633684Y0220140D03*
X0633869Y0213290D03*
X0634026Y0203290D03*
X0634026Y0203132D03*
X0634916Y0189353D03*
D660*
X0634420Y0198408D03*
X0634420Y0204392D03*
X0634262Y0208408D03*
X0634262Y0214392D03*
X0634235Y0218723D03*
X0634235Y0224077D03*
D661*
X0634314Y0223920D03*
X0634314Y0218880D03*
X0634341Y0214235D03*
X0634341Y0208565D03*
X0634499Y0204235D03*
X0634499Y0198565D03*
D662*
X0634577Y0198723D03*
X0634577Y0204077D03*
X0634420Y0208723D03*
X0634420Y0214077D03*
X0634392Y0219038D03*
X0634392Y0223762D03*
D663*
X0634471Y0223605D03*
X0634471Y0219195D03*
X0634499Y0213920D03*
X0634499Y0208880D03*
X0634656Y0203920D03*
X0634656Y0198880D03*
D664*
X0634735Y0199038D03*
X0634735Y0203762D03*
X0634577Y0209038D03*
X0634577Y0213762D03*
D665*
X0634656Y0213605D03*
X0634656Y0209195D03*
X0634814Y0203605D03*
X0634814Y0199195D03*
D666*
X0634892Y0203447D03*
X0634735Y0213447D03*
D667*
X0632660Y0223447D03*
D668*
X0633762Y0222975D03*
D669*
X0633684Y0222817D03*
X0638566Y0222030D03*
X0638566Y0221872D03*
D670*
X0638644Y0222187D03*
X0633605Y0222502D03*
X0633605Y0222660D03*
X0633605Y0220298D03*
D671*
X0555538Y0286676D03*
X0555774Y0287148D03*
X0556010Y0287620D03*
X0556010Y0287857D03*
X0558845Y0294943D03*
X0558845Y0295180D03*
X0559081Y0295652D03*
X0559318Y0296124D03*
D672*
X0559199Y0295888D03*
X0558963Y0295416D03*
X0558727Y0294707D03*
X0556129Y0288093D03*
X0555892Y0287384D03*
X0555656Y0286912D03*
D673*
X0553648Y0288565D03*
X0562861Y0294471D03*
X0574199Y0293998D03*
X0576798Y0288329D03*
X0592625Y0291872D03*
X0592625Y0292109D03*
X0527192Y0292345D03*
X0527192Y0292581D03*
X0523648Y0294471D03*
X0522467Y0291636D03*
X0522467Y0291400D03*
D674*
X0538176Y0294471D03*
D675*
X0537703Y0288329D03*
X0546916Y0288565D03*
X0552585Y0294471D03*
X0562034Y0288565D03*
X0583766Y0288802D03*
X0583766Y0289038D03*
X0583766Y0289274D03*
X0583766Y0289510D03*
X0583766Y0289746D03*
X0592743Y0292345D03*
X0592743Y0292581D03*
X0592743Y0292817D03*
X0522113Y0289983D03*
X0521877Y0289746D03*
X0521877Y0289510D03*
D676*
X0557782Y0294471D03*
D677*
X0580696Y0294471D03*
D678*
X0578924Y0293998D03*
X0576798Y0288802D03*
X0561680Y0289038D03*
X0553885Y0289038D03*
X0550341Y0290691D03*
X0550341Y0290928D03*
X0550341Y0291164D03*
X0550341Y0291400D03*
X0550341Y0291636D03*
X0550341Y0291872D03*
X0537822Y0288802D03*
X0527428Y0292109D03*
X0523176Y0294235D03*
X0522467Y0292345D03*
X0522467Y0292109D03*
X0592388Y0290691D03*
X0592388Y0290455D03*
D679*
X0584829Y0290219D03*
X0582703Y0291636D03*
X0582703Y0291872D03*
X0582703Y0292581D03*
X0579633Y0291164D03*
X0579633Y0290928D03*
X0574199Y0291872D03*
X0573963Y0291400D03*
X0573963Y0291164D03*
X0573727Y0290928D03*
X0573491Y0290455D03*
X0570892Y0289274D03*
X0570892Y0289038D03*
X0570892Y0288802D03*
X0570892Y0291636D03*
X0570892Y0291872D03*
X0570892Y0292109D03*
X0570892Y0292345D03*
X0570892Y0292581D03*
X0565459Y0292817D03*
X0564514Y0291872D03*
X0562625Y0293762D03*
X0559318Y0293526D03*
X0556010Y0293526D03*
X0561680Y0290455D03*
X0547034Y0289510D03*
X0543727Y0289983D03*
X0543727Y0292581D03*
X0540420Y0291636D03*
X0540420Y0291400D03*
X0534987Y0291400D03*
X0534987Y0291636D03*
X0528136Y0294235D03*
X0526010Y0289983D03*
D680*
X0522467Y0292581D03*
X0522467Y0292817D03*
X0522703Y0293290D03*
X0522703Y0293526D03*
X0522940Y0293762D03*
X0531444Y0294235D03*
X0535459Y0293526D03*
X0535459Y0293290D03*
X0539948Y0293290D03*
X0539948Y0293526D03*
X0550341Y0292345D03*
X0550341Y0290219D03*
X0553885Y0289274D03*
X0557664Y0288329D03*
X0561680Y0289274D03*
X0562861Y0294235D03*
X0574436Y0293054D03*
X0579160Y0293054D03*
X0579160Y0293290D03*
X0588373Y0294235D03*
X0592152Y0289510D03*
X0592152Y0289274D03*
X0588373Y0288329D03*
X0576798Y0289274D03*
X0531444Y0288329D03*
D681*
X0537703Y0288565D03*
X0535577Y0294235D03*
X0539829Y0294235D03*
X0546916Y0293998D03*
X0553766Y0288802D03*
X0561798Y0288802D03*
X0574318Y0293762D03*
X0578806Y0294235D03*
X0576680Y0288565D03*
X0592507Y0290928D03*
X0592507Y0291164D03*
X0592507Y0291400D03*
X0592507Y0291636D03*
X0522349Y0291872D03*
D682*
X0521877Y0289038D03*
X0546916Y0294235D03*
X0553530Y0288329D03*
X0566286Y0292581D03*
X0574081Y0294235D03*
X0583766Y0288329D03*
X0592979Y0293526D03*
X0592979Y0293762D03*
X0592979Y0293998D03*
D683*
X0588255Y0293998D03*
X0584475Y0289983D03*
X0588255Y0288565D03*
X0592034Y0288565D03*
X0592034Y0288802D03*
X0592034Y0289038D03*
X0579278Y0292345D03*
X0579278Y0292581D03*
X0579278Y0292817D03*
X0576680Y0289510D03*
X0574318Y0292817D03*
X0565105Y0290691D03*
X0565105Y0290455D03*
X0561562Y0289746D03*
X0561562Y0289510D03*
X0559436Y0294235D03*
X0556129Y0294235D03*
X0552822Y0294235D03*
X0554003Y0289510D03*
X0546916Y0289038D03*
X0544081Y0290928D03*
X0544081Y0291164D03*
X0544081Y0291400D03*
X0544081Y0291636D03*
X0544081Y0291872D03*
X0546916Y0293526D03*
X0540066Y0293054D03*
X0540066Y0292817D03*
X0537703Y0289510D03*
X0535341Y0292817D03*
X0535341Y0293054D03*
X0531562Y0288565D03*
D684*
X0535105Y0291872D03*
X0535105Y0292109D03*
X0540302Y0292109D03*
X0540302Y0291872D03*
X0543845Y0292345D03*
X0543845Y0290219D03*
X0546916Y0289274D03*
X0554003Y0289746D03*
X0554003Y0289983D03*
X0554003Y0290219D03*
X0557782Y0289038D03*
X0557782Y0288802D03*
X0561562Y0289983D03*
X0561562Y0290219D03*
X0565341Y0289983D03*
X0567703Y0288329D03*
X0573609Y0290691D03*
X0574081Y0291636D03*
X0574318Y0292109D03*
X0574318Y0292345D03*
X0579514Y0291636D03*
X0579514Y0291400D03*
X0582822Y0292109D03*
X0582822Y0292345D03*
X0567703Y0294235D03*
X0562743Y0293998D03*
X0559436Y0293998D03*
X0559436Y0293762D03*
X0556129Y0293762D03*
X0556129Y0293998D03*
X0552822Y0293998D03*
X0546916Y0293290D03*
X0525892Y0290219D03*
D685*
X0527900Y0291872D03*
X0528136Y0288329D03*
X0531444Y0288802D03*
X0531444Y0289038D03*
X0531444Y0289274D03*
X0531444Y0289510D03*
X0531444Y0289746D03*
X0531444Y0289983D03*
X0531444Y0290219D03*
X0531444Y0290455D03*
X0531444Y0290691D03*
X0531444Y0292109D03*
X0531444Y0292345D03*
X0531444Y0292581D03*
X0531444Y0292817D03*
X0531444Y0293054D03*
X0531444Y0293290D03*
X0531444Y0293526D03*
X0531444Y0293762D03*
X0531444Y0293998D03*
X0535223Y0292581D03*
X0535223Y0292345D03*
X0540184Y0292345D03*
X0540184Y0292581D03*
X0543963Y0292109D03*
X0543963Y0290691D03*
X0543963Y0290455D03*
X0550341Y0289983D03*
X0550341Y0292581D03*
X0557664Y0288565D03*
X0565223Y0290219D03*
X0570892Y0288565D03*
X0570892Y0288329D03*
X0574436Y0292581D03*
X0579396Y0292109D03*
X0579396Y0291872D03*
X0584829Y0294235D03*
X0588373Y0293762D03*
X0588373Y0293526D03*
X0588373Y0293290D03*
X0588373Y0293054D03*
X0588373Y0292817D03*
X0588373Y0292581D03*
X0588373Y0292345D03*
X0588373Y0292109D03*
X0588373Y0290691D03*
X0588373Y0290455D03*
X0588373Y0290219D03*
X0588373Y0289983D03*
X0588373Y0289746D03*
X0588373Y0289510D03*
X0588373Y0289274D03*
X0588373Y0289038D03*
X0588373Y0288802D03*
X0591916Y0288329D03*
D686*
X0593097Y0294235D03*
X0566168Y0292345D03*
X0566168Y0292109D03*
X0562152Y0288329D03*
X0521995Y0288802D03*
D687*
X0522585Y0293054D03*
X0523058Y0293998D03*
X0535577Y0293998D03*
X0535577Y0293762D03*
X0539829Y0293762D03*
X0539829Y0293998D03*
X0546916Y0293762D03*
X0550223Y0292109D03*
X0550223Y0290455D03*
X0546916Y0288802D03*
X0537703Y0289038D03*
X0537703Y0289274D03*
X0574318Y0293290D03*
X0574318Y0293526D03*
X0579042Y0293526D03*
X0579042Y0293762D03*
X0576680Y0289038D03*
X0592270Y0289746D03*
X0592270Y0289983D03*
X0592270Y0290219D03*
D688*
X0584948Y0290455D03*
X0582585Y0292817D03*
X0584948Y0293998D03*
X0579751Y0290691D03*
X0579751Y0290455D03*
X0573609Y0290219D03*
X0570774Y0289746D03*
X0570774Y0289510D03*
X0567940Y0288565D03*
X0564396Y0290928D03*
X0564396Y0291164D03*
X0564396Y0291400D03*
X0564396Y0291636D03*
X0561562Y0290928D03*
X0561562Y0290691D03*
X0559436Y0292817D03*
X0559436Y0293054D03*
X0559436Y0293290D03*
X0556129Y0293290D03*
X0556129Y0293054D03*
X0554003Y0290928D03*
X0554003Y0290691D03*
X0554003Y0290455D03*
X0553058Y0293762D03*
X0550223Y0292817D03*
X0546916Y0293054D03*
X0546916Y0289746D03*
X0543609Y0292817D03*
X0540538Y0291164D03*
X0540538Y0290928D03*
X0534869Y0290928D03*
X0534869Y0291164D03*
X0534869Y0290691D03*
X0528255Y0291636D03*
X0528255Y0292817D03*
X0528255Y0293054D03*
X0528255Y0293998D03*
X0526129Y0292817D03*
X0528255Y0288565D03*
X0557782Y0289274D03*
X0557782Y0289510D03*
X0557782Y0289746D03*
X0570774Y0292817D03*
D689*
X0567822Y0292817D03*
X0567822Y0293998D03*
X0565459Y0289746D03*
X0561680Y0291164D03*
X0561680Y0291400D03*
X0561680Y0291636D03*
X0561916Y0292345D03*
X0562152Y0293054D03*
X0562388Y0293290D03*
X0562388Y0293526D03*
X0556010Y0292817D03*
X0553885Y0291636D03*
X0553885Y0291400D03*
X0553885Y0291164D03*
X0553412Y0293054D03*
X0553176Y0293526D03*
X0550341Y0289746D03*
X0547034Y0292817D03*
X0540656Y0290691D03*
X0540656Y0290455D03*
X0534751Y0290455D03*
X0534751Y0290219D03*
X0534514Y0288329D03*
X0528373Y0288802D03*
X0526010Y0289746D03*
X0528373Y0291400D03*
X0528373Y0293290D03*
X0528373Y0293526D03*
X0528373Y0293762D03*
X0573491Y0289983D03*
X0573491Y0289746D03*
X0573491Y0288329D03*
X0579869Y0289983D03*
X0579869Y0290219D03*
X0580105Y0288329D03*
X0585066Y0290691D03*
X0585066Y0293762D03*
D690*
X0585184Y0293526D03*
X0585184Y0290928D03*
X0579987Y0289746D03*
X0579987Y0289510D03*
X0576680Y0290928D03*
X0567940Y0291872D03*
X0567940Y0293054D03*
X0567940Y0293290D03*
X0567940Y0293526D03*
X0567940Y0293762D03*
X0562034Y0292817D03*
X0562034Y0292581D03*
X0561798Y0292109D03*
X0561798Y0291872D03*
X0559436Y0292109D03*
X0559436Y0292345D03*
X0559436Y0292581D03*
X0557782Y0290455D03*
X0557782Y0290219D03*
X0557782Y0289983D03*
X0556129Y0292345D03*
X0556129Y0292581D03*
X0553766Y0292345D03*
X0553766Y0292109D03*
X0553766Y0291872D03*
X0553530Y0292581D03*
X0553530Y0292817D03*
X0553294Y0293290D03*
X0546916Y0292581D03*
X0546916Y0290219D03*
X0546916Y0289983D03*
X0543373Y0289746D03*
X0540774Y0289983D03*
X0540774Y0290219D03*
X0541010Y0288329D03*
X0537703Y0290928D03*
X0537703Y0291164D03*
X0534633Y0289983D03*
X0534633Y0289746D03*
X0528491Y0289274D03*
X0528491Y0289038D03*
X0528491Y0290928D03*
X0528491Y0291164D03*
X0567940Y0288802D03*
D691*
X0568058Y0289038D03*
X0568058Y0289274D03*
X0568058Y0289510D03*
X0568058Y0289746D03*
X0568058Y0289983D03*
X0568058Y0290219D03*
X0568058Y0290455D03*
X0568058Y0290691D03*
X0568058Y0290928D03*
X0568058Y0291164D03*
X0568058Y0291400D03*
X0568058Y0291636D03*
X0573491Y0289510D03*
X0573491Y0289274D03*
X0576798Y0291164D03*
X0580105Y0289274D03*
X0580105Y0289038D03*
X0580105Y0288802D03*
X0580105Y0288565D03*
X0585302Y0291164D03*
X0585302Y0291400D03*
X0585302Y0292817D03*
X0585302Y0293054D03*
X0585302Y0293290D03*
X0556010Y0292109D03*
X0547034Y0292109D03*
X0547034Y0292345D03*
X0547034Y0291872D03*
X0547034Y0290691D03*
X0547034Y0290455D03*
X0540892Y0289746D03*
X0540892Y0289510D03*
X0541129Y0288565D03*
X0534514Y0289274D03*
X0534514Y0289510D03*
X0534278Y0288565D03*
X0528609Y0289510D03*
X0528609Y0289746D03*
X0528609Y0289983D03*
X0528609Y0290219D03*
X0528609Y0290455D03*
X0528609Y0290691D03*
X0526010Y0293054D03*
D692*
X0522703Y0291164D03*
X0522231Y0290219D03*
X0521759Y0289274D03*
X0583885Y0288565D03*
X0592861Y0293054D03*
X0592861Y0293290D03*
D693*
X0585420Y0292581D03*
X0585420Y0292345D03*
X0585420Y0292109D03*
X0585420Y0291872D03*
X0585420Y0291636D03*
X0576680Y0291400D03*
X0573609Y0288565D03*
X0559436Y0291400D03*
X0559436Y0291636D03*
X0559436Y0291872D03*
X0557782Y0291164D03*
X0557782Y0290928D03*
X0557782Y0290691D03*
X0556129Y0291636D03*
X0556129Y0291872D03*
X0546916Y0291636D03*
X0546916Y0291400D03*
X0546916Y0291164D03*
X0546916Y0290928D03*
X0541010Y0289274D03*
X0541010Y0289038D03*
X0541010Y0288802D03*
X0537703Y0291400D03*
X0537703Y0291636D03*
X0534396Y0289038D03*
X0534396Y0288802D03*
D694*
X0522822Y0290928D03*
D695*
X0523294Y0290691D03*
D696*
X0523412Y0290455D03*
D697*
X0521995Y0288565D03*
X0546798Y0288329D03*
D698*
X0522231Y0288329D03*
M02*
