G75*
%MOIN*%
%OFA0B0*%
%FSLAX25Y25*%
%IPPOS*%
%LPD*%
%AMOC8*
5,1,8,0,0,1.08239X$1,22.5*
%
%ADD10C,0.00000*%
%ADD11C,0.00079*%
D10*
X0398333Y0001400D02*
X0398333Y0306400D01*
X0658333Y0306400D01*
X0658255Y0001400D01*
X0398333Y0001400D01*
D11*
X0406030Y0154274D02*
X0408392Y0154274D01*
X0408463Y0154284D01*
X0408532Y0154298D01*
X0408601Y0154316D01*
X0408669Y0154337D01*
X0408736Y0154362D01*
X0408801Y0154391D01*
X0408865Y0154423D01*
X0408926Y0154458D01*
X0408986Y0154496D01*
X0409044Y0154538D01*
X0409099Y0154583D01*
X0409153Y0154630D01*
X0409203Y0154680D01*
X0409251Y0154733D01*
X0409296Y0154788D01*
X0409337Y0154846D01*
X0409376Y0154905D01*
X0409412Y0154967D01*
X0409444Y0155030D01*
X0409473Y0155096D01*
X0409498Y0155162D01*
X0409520Y0155230D01*
X0409538Y0155299D01*
X0409553Y0155368D01*
X0409563Y0155438D01*
X0409570Y0155509D01*
X0409574Y0155580D01*
X0409573Y0155651D01*
X0409573Y0155652D02*
X0409574Y0155723D01*
X0409570Y0155794D01*
X0409563Y0155865D01*
X0409553Y0155935D01*
X0409538Y0156004D01*
X0409520Y0156073D01*
X0409498Y0156141D01*
X0409473Y0156207D01*
X0409444Y0156273D01*
X0409412Y0156336D01*
X0409376Y0156398D01*
X0409337Y0156457D01*
X0409296Y0156515D01*
X0409251Y0156570D01*
X0409203Y0156623D01*
X0409153Y0156673D01*
X0409099Y0156720D01*
X0409044Y0156765D01*
X0408986Y0156807D01*
X0408926Y0156845D01*
X0408865Y0156880D01*
X0408801Y0156912D01*
X0408736Y0156941D01*
X0408669Y0156966D01*
X0408601Y0156987D01*
X0408532Y0157005D01*
X0408463Y0157019D01*
X0408392Y0157029D01*
X0408392Y0157030D02*
X0406030Y0157030D01*
X0406031Y0157029D02*
X0405960Y0157019D01*
X0405891Y0157005D01*
X0405822Y0156987D01*
X0405754Y0156966D01*
X0405687Y0156941D01*
X0405622Y0156912D01*
X0405558Y0156880D01*
X0405497Y0156845D01*
X0405437Y0156807D01*
X0405379Y0156765D01*
X0405324Y0156720D01*
X0405270Y0156673D01*
X0405220Y0156623D01*
X0405172Y0156570D01*
X0405127Y0156515D01*
X0405086Y0156457D01*
X0405047Y0156398D01*
X0405011Y0156336D01*
X0404979Y0156273D01*
X0404950Y0156207D01*
X0404925Y0156141D01*
X0404903Y0156073D01*
X0404885Y0156004D01*
X0404870Y0155935D01*
X0404860Y0155865D01*
X0404853Y0155794D01*
X0404849Y0155723D01*
X0404850Y0155652D01*
X0404850Y0155651D02*
X0404849Y0155580D01*
X0404853Y0155509D01*
X0404860Y0155438D01*
X0404870Y0155368D01*
X0404885Y0155299D01*
X0404903Y0155230D01*
X0404925Y0155162D01*
X0404950Y0155096D01*
X0404979Y0155030D01*
X0405011Y0154967D01*
X0405047Y0154905D01*
X0405086Y0154846D01*
X0405127Y0154788D01*
X0405172Y0154733D01*
X0405220Y0154680D01*
X0405270Y0154630D01*
X0405324Y0154583D01*
X0405379Y0154538D01*
X0405437Y0154496D01*
X0405497Y0154458D01*
X0405558Y0154423D01*
X0405622Y0154391D01*
X0405687Y0154362D01*
X0405754Y0154337D01*
X0405822Y0154316D01*
X0405891Y0154298D01*
X0405960Y0154284D01*
X0406031Y0154274D01*
X0418353Y0155554D02*
X0419928Y0155554D01*
X0419928Y0155553D02*
X0419997Y0155555D01*
X0420066Y0155561D01*
X0420135Y0155570D01*
X0420203Y0155583D01*
X0420270Y0155600D01*
X0420337Y0155620D01*
X0420402Y0155644D01*
X0420465Y0155671D01*
X0420528Y0155702D01*
X0420588Y0155736D01*
X0420646Y0155774D01*
X0420703Y0155814D01*
X0420757Y0155857D01*
X0420808Y0155904D01*
X0420857Y0155953D01*
X0420904Y0156004D01*
X0420947Y0156058D01*
X0420987Y0156115D01*
X0421025Y0156173D01*
X0421059Y0156233D01*
X0421090Y0156296D01*
X0421117Y0156359D01*
X0421141Y0156424D01*
X0421161Y0156491D01*
X0421178Y0156558D01*
X0421191Y0156626D01*
X0421200Y0156695D01*
X0421206Y0156764D01*
X0421208Y0156833D01*
X0421207Y0156903D01*
X0421202Y0156972D01*
X0421194Y0157041D01*
X0421182Y0157110D01*
X0421166Y0157177D01*
X0421146Y0157244D01*
X0421122Y0157310D01*
X0421095Y0157374D01*
X0421065Y0157436D01*
X0421031Y0157497D01*
X0420994Y0157556D01*
X0420953Y0157613D01*
X0420910Y0157667D01*
X0420863Y0157719D01*
X0420814Y0157768D01*
X0420762Y0157815D01*
X0420708Y0157858D01*
X0420651Y0157899D01*
X0420592Y0157936D01*
X0420531Y0157970D01*
X0420469Y0158000D01*
X0420405Y0158027D01*
X0420339Y0158051D01*
X0420272Y0158071D01*
X0420205Y0158087D01*
X0420136Y0158099D01*
X0420067Y0158107D01*
X0419998Y0158112D01*
X0419928Y0158113D01*
X0418353Y0158113D01*
X0418281Y0158108D01*
X0418209Y0158099D01*
X0418138Y0158086D01*
X0418067Y0158069D01*
X0417998Y0158049D01*
X0417930Y0158024D01*
X0417863Y0157997D01*
X0417798Y0157965D01*
X0417734Y0157930D01*
X0417673Y0157892D01*
X0417614Y0157851D01*
X0417557Y0157806D01*
X0417502Y0157758D01*
X0417451Y0157708D01*
X0417402Y0157654D01*
X0417356Y0157599D01*
X0417313Y0157540D01*
X0417273Y0157480D01*
X0417237Y0157417D01*
X0417204Y0157353D01*
X0417174Y0157287D01*
X0417149Y0157219D01*
X0417126Y0157150D01*
X0417108Y0157080D01*
X0417094Y0157009D01*
X0417083Y0156938D01*
X0417076Y0156866D01*
X0417073Y0156793D01*
X0417074Y0156793D02*
X0417072Y0156726D01*
X0417074Y0156659D01*
X0417080Y0156592D01*
X0417090Y0156525D01*
X0417103Y0156459D01*
X0417120Y0156394D01*
X0417141Y0156330D01*
X0417166Y0156268D01*
X0417194Y0156206D01*
X0417226Y0156147D01*
X0417260Y0156089D01*
X0417298Y0156034D01*
X0417340Y0155981D01*
X0417384Y0155930D01*
X0417431Y0155882D01*
X0417480Y0155836D01*
X0417533Y0155794D01*
X0417587Y0155754D01*
X0417644Y0155718D01*
X0417702Y0155685D01*
X0417763Y0155655D01*
X0417825Y0155629D01*
X0417888Y0155607D01*
X0417953Y0155588D01*
X0418018Y0155572D01*
X0418085Y0155561D01*
X0418151Y0155553D01*
X0418219Y0155549D01*
X0418286Y0155549D01*
X0418353Y0155553D01*
X0418353Y0174687D02*
X0419928Y0174687D01*
X0419997Y0174689D01*
X0420066Y0174695D01*
X0420135Y0174704D01*
X0420203Y0174717D01*
X0420270Y0174734D01*
X0420337Y0174754D01*
X0420402Y0174778D01*
X0420465Y0174805D01*
X0420528Y0174836D01*
X0420588Y0174870D01*
X0420646Y0174908D01*
X0420703Y0174948D01*
X0420757Y0174991D01*
X0420808Y0175038D01*
X0420857Y0175087D01*
X0420904Y0175138D01*
X0420947Y0175192D01*
X0420987Y0175249D01*
X0421025Y0175307D01*
X0421059Y0175367D01*
X0421090Y0175430D01*
X0421117Y0175493D01*
X0421141Y0175558D01*
X0421161Y0175625D01*
X0421178Y0175692D01*
X0421191Y0175760D01*
X0421200Y0175829D01*
X0421206Y0175898D01*
X0421208Y0175967D01*
X0421207Y0176037D01*
X0421202Y0176106D01*
X0421194Y0176175D01*
X0421182Y0176244D01*
X0421166Y0176311D01*
X0421146Y0176378D01*
X0421122Y0176444D01*
X0421095Y0176508D01*
X0421065Y0176570D01*
X0421031Y0176631D01*
X0420994Y0176690D01*
X0420953Y0176747D01*
X0420910Y0176801D01*
X0420863Y0176853D01*
X0420814Y0176902D01*
X0420762Y0176949D01*
X0420708Y0176992D01*
X0420651Y0177033D01*
X0420592Y0177070D01*
X0420531Y0177104D01*
X0420469Y0177134D01*
X0420405Y0177161D01*
X0420339Y0177185D01*
X0420272Y0177205D01*
X0420205Y0177221D01*
X0420136Y0177233D01*
X0420067Y0177241D01*
X0419998Y0177246D01*
X0419928Y0177247D01*
X0419928Y0177246D02*
X0418353Y0177246D01*
X0418353Y0177247D02*
X0418281Y0177242D01*
X0418209Y0177233D01*
X0418138Y0177220D01*
X0418067Y0177203D01*
X0417998Y0177183D01*
X0417930Y0177158D01*
X0417863Y0177131D01*
X0417798Y0177099D01*
X0417734Y0177064D01*
X0417673Y0177026D01*
X0417614Y0176985D01*
X0417557Y0176940D01*
X0417502Y0176892D01*
X0417451Y0176842D01*
X0417402Y0176788D01*
X0417356Y0176733D01*
X0417313Y0176674D01*
X0417273Y0176614D01*
X0417237Y0176551D01*
X0417204Y0176487D01*
X0417174Y0176421D01*
X0417149Y0176353D01*
X0417126Y0176284D01*
X0417108Y0176214D01*
X0417094Y0176143D01*
X0417083Y0176072D01*
X0417076Y0176000D01*
X0417073Y0175927D01*
X0417074Y0175927D02*
X0417072Y0175860D01*
X0417074Y0175793D01*
X0417080Y0175726D01*
X0417090Y0175659D01*
X0417103Y0175593D01*
X0417120Y0175528D01*
X0417141Y0175464D01*
X0417166Y0175402D01*
X0417194Y0175340D01*
X0417226Y0175281D01*
X0417260Y0175223D01*
X0417298Y0175168D01*
X0417340Y0175115D01*
X0417384Y0175064D01*
X0417431Y0175016D01*
X0417480Y0174970D01*
X0417533Y0174928D01*
X0417587Y0174888D01*
X0417644Y0174852D01*
X0417702Y0174819D01*
X0417763Y0174789D01*
X0417825Y0174763D01*
X0417888Y0174741D01*
X0417953Y0174722D01*
X0418018Y0174706D01*
X0418085Y0174695D01*
X0418151Y0174687D01*
X0418219Y0174683D01*
X0418286Y0174683D01*
X0418353Y0174687D01*
X0408392Y0175770D02*
X0406030Y0175770D01*
X0406031Y0175771D02*
X0405960Y0175781D01*
X0405891Y0175795D01*
X0405822Y0175813D01*
X0405754Y0175834D01*
X0405687Y0175859D01*
X0405622Y0175888D01*
X0405558Y0175920D01*
X0405497Y0175955D01*
X0405437Y0175993D01*
X0405379Y0176035D01*
X0405324Y0176080D01*
X0405270Y0176127D01*
X0405220Y0176177D01*
X0405172Y0176230D01*
X0405127Y0176285D01*
X0405086Y0176343D01*
X0405047Y0176402D01*
X0405011Y0176464D01*
X0404979Y0176527D01*
X0404950Y0176593D01*
X0404925Y0176659D01*
X0404903Y0176727D01*
X0404885Y0176796D01*
X0404870Y0176865D01*
X0404860Y0176935D01*
X0404853Y0177006D01*
X0404849Y0177077D01*
X0404850Y0177148D01*
X0404850Y0177149D02*
X0404849Y0177220D01*
X0404853Y0177291D01*
X0404860Y0177362D01*
X0404870Y0177432D01*
X0404885Y0177501D01*
X0404903Y0177570D01*
X0404925Y0177638D01*
X0404950Y0177704D01*
X0404979Y0177770D01*
X0405011Y0177833D01*
X0405047Y0177895D01*
X0405086Y0177954D01*
X0405127Y0178012D01*
X0405172Y0178067D01*
X0405220Y0178120D01*
X0405270Y0178170D01*
X0405324Y0178217D01*
X0405379Y0178262D01*
X0405437Y0178304D01*
X0405497Y0178342D01*
X0405558Y0178377D01*
X0405622Y0178409D01*
X0405687Y0178438D01*
X0405754Y0178463D01*
X0405822Y0178484D01*
X0405891Y0178502D01*
X0405960Y0178516D01*
X0406031Y0178526D01*
X0406030Y0178526D02*
X0408392Y0178526D01*
X0408463Y0178516D01*
X0408532Y0178502D01*
X0408601Y0178484D01*
X0408669Y0178463D01*
X0408736Y0178438D01*
X0408801Y0178409D01*
X0408865Y0178377D01*
X0408926Y0178342D01*
X0408986Y0178304D01*
X0409044Y0178262D01*
X0409099Y0178217D01*
X0409153Y0178170D01*
X0409203Y0178120D01*
X0409251Y0178067D01*
X0409296Y0178012D01*
X0409337Y0177954D01*
X0409376Y0177895D01*
X0409412Y0177833D01*
X0409444Y0177770D01*
X0409473Y0177704D01*
X0409498Y0177638D01*
X0409520Y0177570D01*
X0409538Y0177501D01*
X0409553Y0177432D01*
X0409563Y0177362D01*
X0409570Y0177291D01*
X0409574Y0177220D01*
X0409573Y0177149D01*
X0409573Y0177148D02*
X0409574Y0177077D01*
X0409570Y0177006D01*
X0409563Y0176935D01*
X0409553Y0176865D01*
X0409538Y0176796D01*
X0409520Y0176727D01*
X0409498Y0176659D01*
X0409473Y0176593D01*
X0409444Y0176527D01*
X0409412Y0176464D01*
X0409376Y0176402D01*
X0409337Y0176343D01*
X0409296Y0176285D01*
X0409251Y0176230D01*
X0409203Y0176177D01*
X0409153Y0176127D01*
X0409099Y0176080D01*
X0409044Y0176035D01*
X0408986Y0175993D01*
X0408926Y0175955D01*
X0408865Y0175920D01*
X0408801Y0175888D01*
X0408736Y0175859D01*
X0408669Y0175834D01*
X0408601Y0175813D01*
X0408532Y0175795D01*
X0408463Y0175781D01*
X0408392Y0175771D01*
M02*
