G75*
%MOIN*%
%OFA0B0*%
%FSLAX25Y25*%
%IPPOS*%
%LPD*%
%AMOC8*
5,1,8,0,0,1.08239X$1,22.5*
%
%ADD10R,0.05512X0.11811*%
%ADD11R,0.03937X0.04331*%
%ADD12C,0.01181*%
%ADD13R,0.05748X0.07874*%
%ADD14R,0.09843X0.05610*%
%ADD15C,0.00400*%
%ADD16C,0.00197*%
%ADD17R,0.01181X0.02598*%
%ADD18R,0.06299X0.01575*%
%ADD19R,0.01200X0.03900*%
%ADD20R,0.05906X0.03543*%
%ADD21R,0.03543X0.05906*%
%ADD22R,0.23622X0.23622*%
%ADD23R,0.02362X0.04724*%
%ADD24R,0.10630X0.07087*%
%ADD25R,0.02480X0.03268*%
%ADD26R,0.02165X0.04724*%
%ADD27R,0.04331X0.03937*%
%ADD28R,0.03268X0.02480*%
%ADD29R,0.03543X0.03150*%
%ADD30R,0.05512X0.06299*%
%ADD31R,0.06299X0.05512*%
%ADD32R,0.06000X0.03000*%
D10*
X0463333Y0011951D03*
X0463333Y0030849D03*
X0463333Y0046951D03*
X0463333Y0065849D03*
D11*
X0488333Y0083054D03*
X0488333Y0089746D03*
X0478333Y0123054D03*
X0478333Y0129746D03*
X0458333Y0129746D03*
X0458333Y0123054D03*
X0438333Y0148054D03*
X0438333Y0154746D03*
X0455333Y0183054D03*
X0455333Y0189746D03*
X0498333Y0154746D03*
X0498333Y0148054D03*
X0563333Y0158054D03*
X0568333Y0158054D03*
X0568333Y0164746D03*
X0563333Y0164746D03*
X0563333Y0173054D03*
X0568333Y0173054D03*
X0568333Y0179746D03*
X0563333Y0179746D03*
X0608333Y0154746D03*
X0613333Y0154746D03*
X0613333Y0148054D03*
X0608333Y0148054D03*
X0608333Y0208054D03*
X0613333Y0208054D03*
X0613333Y0214746D03*
X0608333Y0214746D03*
X0593333Y0218054D03*
X0588333Y0218054D03*
X0588333Y0224746D03*
X0593333Y0224746D03*
X0573333Y0243054D03*
X0573333Y0249746D03*
X0588333Y0268054D03*
X0593333Y0268054D03*
X0593333Y0274746D03*
X0588333Y0274746D03*
X0618333Y0288054D03*
X0623333Y0288054D03*
X0623333Y0294746D03*
X0618333Y0294746D03*
X0623333Y0269746D03*
X0623333Y0263054D03*
X0418333Y0268054D03*
X0408333Y0268054D03*
X0408333Y0274746D03*
X0418333Y0274746D03*
X0493333Y0049746D03*
X0493333Y0043054D03*
X0493333Y0034746D03*
X0493333Y0028054D03*
X0558333Y0033054D03*
X0558333Y0039746D03*
D12*
X0494711Y0059325D02*
X0491955Y0059325D01*
X0494711Y0059325D02*
X0494711Y0056569D01*
X0491955Y0056569D01*
X0491955Y0059325D01*
X0491955Y0057691D02*
X0494711Y0057691D01*
X0494711Y0058813D02*
X0491955Y0058813D01*
X0491955Y0066231D02*
X0494711Y0066231D01*
X0494711Y0063475D01*
X0491955Y0063475D01*
X0491955Y0066231D01*
X0491955Y0064597D02*
X0494711Y0064597D01*
X0494711Y0065719D02*
X0491955Y0065719D01*
X0491955Y0021231D02*
X0494711Y0021231D01*
X0494711Y0018475D01*
X0491955Y0018475D01*
X0491955Y0021231D01*
X0491955Y0019597D02*
X0494711Y0019597D01*
X0494711Y0020719D02*
X0491955Y0020719D01*
X0491955Y0014325D02*
X0494711Y0014325D01*
X0494711Y0011569D01*
X0491955Y0011569D01*
X0491955Y0014325D01*
X0491955Y0012691D02*
X0494711Y0012691D01*
X0494711Y0013813D02*
X0491955Y0013813D01*
X0491955Y0146569D02*
X0494711Y0146569D01*
X0491955Y0146569D02*
X0491955Y0149325D01*
X0494711Y0149325D01*
X0494711Y0146569D01*
X0494711Y0147691D02*
X0491955Y0147691D01*
X0491955Y0148813D02*
X0494711Y0148813D01*
X0494711Y0153475D02*
X0491955Y0153475D01*
X0491955Y0156231D01*
X0494711Y0156231D01*
X0494711Y0153475D01*
X0494711Y0154597D02*
X0491955Y0154597D01*
X0491955Y0155719D02*
X0494711Y0155719D01*
X0444711Y0153475D02*
X0441955Y0153475D01*
X0441955Y0156231D01*
X0444711Y0156231D01*
X0444711Y0153475D01*
X0444711Y0154597D02*
X0441955Y0154597D01*
X0441955Y0155719D02*
X0444711Y0155719D01*
X0444711Y0146569D02*
X0441955Y0146569D01*
X0441955Y0149325D01*
X0444711Y0149325D01*
X0444711Y0146569D01*
X0444711Y0147691D02*
X0441955Y0147691D01*
X0441955Y0148813D02*
X0444711Y0148813D01*
X0444711Y0184325D02*
X0441955Y0184325D01*
X0444711Y0184325D02*
X0444711Y0181569D01*
X0441955Y0181569D01*
X0441955Y0184325D01*
X0441955Y0182691D02*
X0444711Y0182691D01*
X0444711Y0183813D02*
X0441955Y0183813D01*
X0441955Y0191231D02*
X0444711Y0191231D01*
X0444711Y0188475D01*
X0441955Y0188475D01*
X0441955Y0191231D01*
X0441955Y0189597D02*
X0444711Y0189597D01*
X0444711Y0190719D02*
X0441955Y0190719D01*
X0415408Y0225022D02*
X0415408Y0227778D01*
X0418164Y0227778D01*
X0418164Y0225022D01*
X0415408Y0225022D01*
X0415408Y0226144D02*
X0418164Y0226144D01*
X0418164Y0227266D02*
X0415408Y0227266D01*
X0408503Y0227778D02*
X0408503Y0225022D01*
X0408503Y0227778D02*
X0411259Y0227778D01*
X0411259Y0225022D01*
X0408503Y0225022D01*
X0408503Y0226144D02*
X0411259Y0226144D01*
X0411259Y0227266D02*
X0408503Y0227266D01*
X0411259Y0240022D02*
X0411259Y0242778D01*
X0411259Y0240022D02*
X0408503Y0240022D01*
X0408503Y0242778D01*
X0411259Y0242778D01*
X0411259Y0241144D02*
X0408503Y0241144D01*
X0408503Y0242266D02*
X0411259Y0242266D01*
X0418164Y0242778D02*
X0418164Y0240022D01*
X0415408Y0240022D01*
X0415408Y0242778D01*
X0418164Y0242778D01*
X0418164Y0241144D02*
X0415408Y0241144D01*
X0415408Y0242266D02*
X0418164Y0242266D01*
X0418164Y0255022D02*
X0418164Y0257778D01*
X0418164Y0255022D02*
X0415408Y0255022D01*
X0415408Y0257778D01*
X0418164Y0257778D01*
X0418164Y0256144D02*
X0415408Y0256144D01*
X0415408Y0257266D02*
X0418164Y0257266D01*
X0411259Y0257778D02*
X0411259Y0255022D01*
X0408503Y0255022D01*
X0408503Y0257778D01*
X0411259Y0257778D01*
X0411259Y0256144D02*
X0408503Y0256144D01*
X0408503Y0257266D02*
X0411259Y0257266D01*
D13*
X0419416Y0177817D03*
X0419416Y0154983D03*
D14*
X0407802Y0162611D03*
X0407802Y0170189D03*
D15*
X0404592Y0153873D02*
X0404735Y0153646D01*
X0404925Y0153455D01*
X0405153Y0153313D01*
X0405406Y0153224D01*
X0405673Y0153194D01*
X0412573Y0153194D01*
X0412612Y0153186D01*
X0412644Y0153164D01*
X0412666Y0153132D01*
X0412673Y0153094D01*
X0412673Y0151194D01*
X0415773Y0151194D01*
X0415773Y0158594D01*
X0405773Y0158594D01*
X0405484Y0158561D01*
X0405209Y0158465D01*
X0404963Y0158310D01*
X0404757Y0158104D01*
X0404602Y0157858D01*
X0404506Y0157583D01*
X0404473Y0157294D01*
X0404473Y0154394D01*
X0404504Y0154127D01*
X0404592Y0153873D01*
X0404537Y0154030D02*
X0415773Y0154030D01*
X0415773Y0154428D02*
X0404473Y0154428D01*
X0404473Y0154827D02*
X0415773Y0154827D01*
X0415773Y0155225D02*
X0404473Y0155225D01*
X0404473Y0155624D02*
X0415773Y0155624D01*
X0415773Y0156022D02*
X0404473Y0156022D01*
X0404473Y0156421D02*
X0415773Y0156421D01*
X0415773Y0156819D02*
X0404473Y0156819D01*
X0404473Y0157218D02*
X0415773Y0157218D01*
X0415773Y0157616D02*
X0404518Y0157616D01*
X0404701Y0158015D02*
X0415773Y0158015D01*
X0415773Y0158413D02*
X0405127Y0158413D01*
X0404749Y0153631D02*
X0415773Y0153631D01*
X0415773Y0153233D02*
X0405381Y0153233D01*
X0412673Y0152834D02*
X0415773Y0152834D01*
X0415773Y0152436D02*
X0412673Y0152436D01*
X0412673Y0152037D02*
X0415773Y0152037D01*
X0415773Y0151639D02*
X0412673Y0151639D01*
X0412673Y0151240D02*
X0415773Y0151240D01*
X0415773Y0174257D02*
X0405773Y0174257D01*
X0405484Y0174289D01*
X0405209Y0174386D01*
X0404963Y0174540D01*
X0404757Y0174746D01*
X0404602Y0174993D01*
X0404506Y0175268D01*
X0404473Y0175557D01*
X0404473Y0178457D01*
X0404504Y0178724D01*
X0404592Y0178977D01*
X0404735Y0179205D01*
X0404925Y0179395D01*
X0405153Y0179538D01*
X0405406Y0179627D01*
X0405673Y0179657D01*
X0412573Y0179657D01*
X0412612Y0179664D01*
X0412644Y0179686D01*
X0412666Y0179719D01*
X0412673Y0179757D01*
X0412673Y0181657D01*
X0415773Y0181657D01*
X0415773Y0174257D01*
X0415773Y0174354D02*
X0405300Y0174354D01*
X0404753Y0174752D02*
X0415773Y0174752D01*
X0415773Y0175151D02*
X0404547Y0175151D01*
X0404474Y0175549D02*
X0415773Y0175549D01*
X0415773Y0175948D02*
X0404473Y0175948D01*
X0404473Y0176346D02*
X0415773Y0176346D01*
X0415773Y0176745D02*
X0404473Y0176745D01*
X0404473Y0177143D02*
X0415773Y0177143D01*
X0415773Y0177542D02*
X0404473Y0177542D01*
X0404473Y0177941D02*
X0415773Y0177941D01*
X0415773Y0178339D02*
X0404473Y0178339D01*
X0404508Y0178738D02*
X0415773Y0178738D01*
X0415773Y0179136D02*
X0404692Y0179136D01*
X0405147Y0179535D02*
X0415773Y0179535D01*
X0415773Y0179933D02*
X0412673Y0179933D01*
X0412673Y0180332D02*
X0415773Y0180332D01*
X0415773Y0180730D02*
X0412673Y0180730D01*
X0412673Y0181129D02*
X0415773Y0181129D01*
X0415773Y0181527D02*
X0412673Y0181527D01*
D16*
X0415160Y0172010D02*
X0421558Y0172010D01*
X0421558Y0171026D01*
X0415160Y0171026D01*
X0415160Y0172010D01*
X0415160Y0171951D02*
X0421558Y0171951D01*
X0421558Y0171755D02*
X0415160Y0171755D01*
X0415160Y0171560D02*
X0421558Y0171560D01*
X0421558Y0171365D02*
X0415160Y0171365D01*
X0415160Y0171169D02*
X0421558Y0171169D01*
X0421558Y0169451D02*
X0415160Y0169451D01*
X0415160Y0168467D01*
X0421558Y0168467D01*
X0421558Y0169451D01*
X0421558Y0169411D02*
X0415160Y0169411D01*
X0415160Y0169216D02*
X0421558Y0169216D01*
X0421558Y0169020D02*
X0415160Y0169020D01*
X0415160Y0168825D02*
X0421558Y0168825D01*
X0421558Y0168630D02*
X0415160Y0168630D01*
X0415160Y0166892D02*
X0421558Y0166892D01*
X0421558Y0165908D01*
X0415160Y0165908D01*
X0415160Y0166892D01*
X0415160Y0166871D02*
X0421558Y0166871D01*
X0421558Y0166676D02*
X0415160Y0166676D01*
X0415160Y0166481D02*
X0421558Y0166481D01*
X0421558Y0166285D02*
X0415160Y0166285D01*
X0415160Y0166090D02*
X0421558Y0166090D01*
X0421558Y0164333D02*
X0415160Y0164333D01*
X0415160Y0163349D01*
X0421558Y0163349D01*
X0421558Y0164333D01*
X0421558Y0164332D02*
X0415160Y0164332D01*
X0415160Y0164136D02*
X0421558Y0164136D01*
X0421558Y0163941D02*
X0415160Y0163941D01*
X0415160Y0163746D02*
X0421558Y0163746D01*
X0421558Y0163550D02*
X0415160Y0163550D01*
X0415160Y0163355D02*
X0421558Y0163355D01*
X0421558Y0161774D02*
X0415160Y0161774D01*
X0415160Y0160790D01*
X0421558Y0160790D01*
X0421558Y0161774D01*
X0421558Y0161597D02*
X0415160Y0161597D01*
X0415160Y0161401D02*
X0421558Y0161401D01*
X0421558Y0161206D02*
X0415160Y0161206D01*
X0415160Y0161011D02*
X0421558Y0161011D01*
X0421558Y0160815D02*
X0415160Y0160815D01*
D17*
X0465774Y0130022D03*
X0468333Y0130022D03*
X0470892Y0130022D03*
X0470892Y0122778D03*
X0468333Y0122778D03*
X0465774Y0122778D03*
D18*
X0576325Y0127640D03*
X0576325Y0130199D03*
X0576325Y0132758D03*
X0576325Y0135317D03*
X0576325Y0137876D03*
X0576325Y0140435D03*
X0576325Y0142994D03*
X0576325Y0145554D03*
X0599554Y0145554D03*
X0599554Y0142994D03*
X0599554Y0140435D03*
X0599554Y0137876D03*
X0599554Y0135317D03*
X0599554Y0132758D03*
X0599554Y0130199D03*
X0599554Y0127640D03*
X0599554Y0187640D03*
X0599554Y0190199D03*
X0599554Y0192758D03*
X0599554Y0195317D03*
X0599554Y0197876D03*
X0599554Y0200435D03*
X0599554Y0202994D03*
X0599554Y0205554D03*
X0576325Y0205554D03*
X0576325Y0202994D03*
X0576325Y0200435D03*
X0576325Y0197876D03*
X0576325Y0195317D03*
X0576325Y0192758D03*
X0576325Y0190199D03*
X0576325Y0187640D03*
D19*
X0580656Y0234913D03*
X0583215Y0234913D03*
X0585774Y0234913D03*
X0588333Y0234913D03*
X0590892Y0234913D03*
X0593451Y0234913D03*
X0596010Y0234913D03*
X0596010Y0257887D03*
X0593451Y0257887D03*
X0590892Y0257887D03*
X0588333Y0257887D03*
X0585774Y0257887D03*
X0583215Y0257887D03*
X0580656Y0257887D03*
D20*
X0503766Y0256715D03*
X0503766Y0261715D03*
X0503766Y0266715D03*
X0503766Y0271715D03*
X0503766Y0251715D03*
X0503766Y0246715D03*
X0503766Y0241715D03*
X0503766Y0236715D03*
X0503766Y0231715D03*
X0503766Y0226715D03*
X0503766Y0221715D03*
X0503766Y0216715D03*
X0503766Y0211715D03*
X0503766Y0206715D03*
X0432900Y0206715D03*
X0432900Y0211715D03*
X0432900Y0216715D03*
X0432900Y0221715D03*
X0432900Y0226715D03*
X0432900Y0231715D03*
X0432900Y0236715D03*
X0432900Y0241715D03*
X0432900Y0246715D03*
X0432900Y0251715D03*
X0432900Y0256715D03*
X0432900Y0261715D03*
X0432900Y0266715D03*
X0432900Y0271715D03*
D21*
X0445833Y0200849D03*
X0450833Y0200849D03*
X0455833Y0200849D03*
X0460833Y0200849D03*
X0465833Y0200849D03*
X0470833Y0200849D03*
X0475833Y0200849D03*
X0480833Y0200849D03*
X0485833Y0200849D03*
X0490833Y0200849D03*
D22*
X0468333Y0241400D03*
D23*
X0465833Y0162424D03*
X0460833Y0162424D03*
X0455833Y0162424D03*
X0450833Y0162424D03*
X0470833Y0162424D03*
X0475833Y0162424D03*
X0480833Y0162424D03*
X0485833Y0162424D03*
X0485833Y0140376D03*
X0480833Y0140376D03*
X0475833Y0140376D03*
X0470833Y0140376D03*
X0465833Y0140376D03*
X0460833Y0140376D03*
X0455833Y0140376D03*
X0450833Y0140376D03*
D24*
X0483333Y0065061D03*
X0483333Y0047739D03*
X0483333Y0030061D03*
X0483333Y0012739D03*
D25*
X0462861Y0081400D03*
X0453806Y0081400D03*
D26*
X0417073Y0201281D03*
X0413333Y0201281D03*
X0409593Y0201281D03*
X0409593Y0211519D03*
X0417073Y0211519D03*
D27*
X0416680Y0221400D03*
X0409987Y0221400D03*
X0409987Y0231400D03*
X0416680Y0231400D03*
X0416680Y0246400D03*
X0416680Y0251400D03*
X0409987Y0251400D03*
X0409987Y0246400D03*
X0409987Y0191400D03*
X0416680Y0191400D03*
X0554987Y0191400D03*
X0554987Y0196400D03*
X0561680Y0196400D03*
X0561680Y0191400D03*
X0561680Y0201400D03*
X0554987Y0201400D03*
X0564987Y0226400D03*
X0571680Y0226400D03*
X0571680Y0231400D03*
X0564987Y0231400D03*
X0564987Y0261400D03*
X0571680Y0261400D03*
X0571680Y0266400D03*
X0564987Y0266400D03*
X0561680Y0141400D03*
X0561680Y0136400D03*
X0554987Y0136400D03*
X0554987Y0141400D03*
X0554987Y0131400D03*
X0561680Y0131400D03*
X0461680Y0091400D03*
X0454987Y0091400D03*
D28*
X0433333Y0181872D03*
X0428333Y0181872D03*
X0428333Y0190928D03*
X0433333Y0190928D03*
D29*
X0477270Y0090140D03*
X0469003Y0086400D03*
X0477270Y0082660D03*
D30*
X0582822Y0166400D03*
X0593845Y0166400D03*
X0602822Y0166400D03*
X0613845Y0166400D03*
X0613845Y0176400D03*
X0602822Y0176400D03*
X0593845Y0176400D03*
X0582822Y0176400D03*
D31*
X0563333Y0240888D03*
X0563333Y0251912D03*
X0458333Y0111912D03*
X0458333Y0100888D03*
X0548333Y0061912D03*
X0548333Y0050888D03*
X0548333Y0041912D03*
X0548333Y0030888D03*
D32*
X0632333Y0258900D03*
X0654333Y0258900D03*
X0654333Y0273900D03*
X0632333Y0273900D03*
X0632333Y0283900D03*
X0654333Y0283900D03*
X0654333Y0298900D03*
X0632333Y0298900D03*
M02*
